<svg xmlns="http://www.w3.org/2000/svg" xmlns:xlink="http://www.w3.org/1999/xlink" viewBox="0 0 900 550" width="1200" height="733.333" xmlns:v="https://vecta.io/nano"><style><![CDATA[.B{fill:#fff}.C{fill:#1a2958}.D{fill:#95ccf8}.E{fill:#ffc590}.F{fill:#ff7201}.G{fill:#ffc008}.H{fill:#2d489c}.I{fill:#a4e0f9}.J{fill:#bf5601}.K{fill:#71bde1}.L{fill:#208aee}.M{fill:#2b99f1}.N{color-interpolation-filters:sRGB}]]></style><defs><clipPath id="A"><path d="M0 0h9e2v550H0z"/></clipPath><path id="B" d="M591.622 202.735c0 .76-.617 1.376-1.38 1.376s-1.376-.616-1.376-1.376.617-1.376 1.376-1.376 1.38.613 1.38 1.376z"/><path id="C" d="M591.622 227.449a1.38 1.38 0 0 1-1.38 1.376 1.38 1.38 0 0 1-1.376-1.376 1.38 1.38 0 0 1 1.376-1.38 1.38 1.38 0 0 1 1.38 1.38z"/><path id="D" d="M688.071 316.486c0 4.259-3.294 7.712-7.357 7.712s-7.357-3.453-7.357-7.712 3.293-7.713 7.357-7.713 7.357 3.453 7.357 7.713z"/></defs><g clip-path="url(#A)"><path d="M426.188 431.087c-20.378 0-38.553-.56-50.408-1.437l3.134-3.13-.263-1.9c11.818-.763 28.742-1.241 47.537-1.241 35.727 0 64.686 1.722 64.686 3.854s-28.959 3.854-64.686 3.854z" class="K"/><path d="M397.303 440.15c-142.727 0-258.431-5.259-258.431-11.751s115.704-11.751 258.431-11.751 258.428 5.262 258.428 11.751-115.7 11.751-258.428 11.751z" fill="#7fcaec"/><defs><filter id="E" x="-200%" y="-200%" width="400%" height="400%" class="N"><feGaussianBlur in="SourceGraphic" stdDeviation="8.587"/><feOffset dx="-10" dy="-20" result="A"/><feFlood flood-color="#2d489c" flood-opacity="0"/><feComposite in2="A" operator="in"/><feBlend in="SourceGraphic"/></filter></defs><g filter="url(#E)"><mask id="F" x="-200%" y="-200%" width="400%" height="400%"><path d="M-2e2-2e2h4e2v4e2H-2e2z" class="B"/><path d="M670.458 410.751H133.927a6.6 6.6 0 0 1-6.599-6.599l-9.975-302.603h576.022l-1.797 33.322q-6.283 116.484-9.686 179.583-1.7 31.516-4.838 89.698a6.6 6.6 0 0 1-6.596 6.599z"/></mask><g fill="#fafdfd"><path d="M670.458 410.751H133.927a6.6 6.6 0 0 1-6.599-6.599l-9.975-302.603h576.022l-1.797 33.322q-6.283 116.484-9.686 179.583-1.7 31.516-4.838 89.698a6.6 6.6 0 0 1-6.596 6.599z" mask="url(#F)" vector-effect="non-scaling-stroke" stroke-width="2" stroke="#a4e0f9"/><path d="M670.458 410.751H133.927a6.6 6.6 0 0 1-6.599-6.599l-9.975-302.603h576.022l-1.797 33.322q-6.283 116.484-9.686 179.583-1.7 31.516-4.838 89.698a6.6 6.6 0 0 1-6.596 6.599z"/></g></g><path d="M693.293 105.16H117.275l-1.441-35.291c0-3.255 2.638-5.897 5.894-5.897h567.44a5.9 5.9 0 0 1 5.894 5.897l-1.769 35.291z" class="H"/><g class="B"><path d="M668.512 90.155l-459.684.77-2.271-10.863H667l1.512 10.093zm-514.524-.642h-9.133l-.385-8.04h8.428l1.09 8.04z"/></g><path d="M171.112 89.513h-8.039l-.41-8.453h8.039l.41 8.453z" class="G"/><path d="M187.244 89.513l-8.439.289.403-8.329h8.799l-.763 8.04z" class="F"/><path d="M283.218 206.714h271.187l2.232-72.412-271.415 7.344-2.004 65.068zm272.888 1.754H281.411l2.114-68.526.823-.025 274.1-7.419-2.342 75.97z" fill="#ade5fa"/><path d="M353.62 297.401H285.5l-2.642-71.414h68.123l2.639 71.414z" class="I"/><path d="M332.36 371.502h-49.502v-3.376h49.502v3.376z" fill="#bdbdbc"/><path d="M646.975 301.661l-75.678-4.26 4.435-158.739 76.751 2-5.508 160.999z" class="I"/><path d="M369.577 435.843H268.052l4.007-76.619h97.518v76.619z" fill="#f6fcfc"/><path d="M369.577 372.273l-98.184-.35.666-12.699h97.518v13.049z" class="H"/><g fill="#99dff9"><path d="M341.484 387.653h-56.109v-4.435h56.109v4.435zm7.39 6.77h-45.359v-2.218h45.359v2.218zm0 6.578h-56.108v-2.218h56.108v2.218zm0 6.577h-56.108v-2.217h56.108v2.217zm2.378 6.657h-56.108v-2.222h56.108v2.222zm-17.512 6.131h-43.352v-2.217h43.352v2.217z"/></g><path d="M341.484 364.768h4.602v3.226h-4.602v-3.226z" class="L"/><path d="M349.883 364.975l4.884.167-.335 2.852h-4.299l-.25-3.019z" class="G"/><path d="M358.147 365.224h4.856l-.303 3.173-4.553-.403v-2.77z" class="F"/><path d="M701.964 350.04l-7.758 2.257-1.337.314-5.415.959.32.991 2.703-.207-5.658 5.551.959.934 4.064-3.986.143.139-4.571 4.496.959.931 4.571-4.493.132.129-3.99 3.907.959.934 3.986-3.911.128.125-3.058 2.981.955.93 5.608-5.455-.192-.189 1.265-1.429 7.405-1.74-2.178-4.168z" class="E"/><path d="M594.107 432.103l97.518 5.066v-81.685h-97.518v76.619z" class="F"/><path d="M594.107 368.536h97.518v-13.052h-97.518v13.052z" class="G"/><g fill="#f6fcfc"><path d="M682.216 360.928h-4.599v3.234h4.599v-3.234zm-8.399.211l-4.881.167.332 2.856h4.299l.25-3.023zm-8.264.249h-4.852l.303 3.173 4.549-.399v-2.774z"/></g><path d="M158.534 388.533h95.949V239.26l-103.945 5.644 7.996 143.629z" class="I"/><path d="M229.556 417.728h40.407l1.052 36.226h-41.834l.375-36.226z" class="F"/><path d="M238.861 430.592l5.333.441.421-4.299h2.595v2.948l1.262 1.858h10.592v8.032l-10.381-1.333-2.945 1.333-8.492.57 1.615-9.55z" class="B"/><path d="M258.669 128.412l293.694-11.522 7.351 49.103-303.669 5.996 2.624-43.577z" class="H"/><path d="M256.045 171.989v25.356l298.621-3.312 5.048-28.04-303.669 5.996z" fill="#223675"/><g class="G"><path d="M291.703 127.115L289.5 171.33l28.742-.567.574-44.714-27.113 1.066zm57.66-2.261l.816 45.278 33.833-.67-2.83-45.856-31.819 1.248zm68.447-2.684l2.171 46.582 33.958-.67-1.379-47.274-34.75 1.362zm111.151-4.36l-38.072 1.493 2.855 47.991 37.862-.749-2.645-48.735z"/></g><g class="F"><path d="M289.5 171.33l28.742-.567v25.89l-30.282.335 1.54-25.658zm60.679-1.198l.185 26.164 34.272-.381-.624-26.453-33.833.67zm69.802-1.38l1.516 26.757 34.482-.385-2.04-27.042-33.958.67zm73.763-1.458l-.905 27.423 39.57-.438-.803-27.734-37.862.749z"/></g><g class="B"><path d="M578.848 194.717h63.866v14.321l-62.112-.417-1.754-13.904zm1.252 25.445h62.137l-1.526 13.169h-61.61l.999-13.169z"/></g><g fill="#005386"><path d="M586.028 202.735c0 .76-.616 1.376-1.376 1.376s-1.379-.616-1.379-1.376.616-1.376 1.379-1.376 1.376.613 1.376 1.376z"/><use xlink:href="#B"/><path d="M597.216 202.735c0 .76-.617 1.376-1.38 1.376s-1.376-.616-1.376-1.376.617-1.376 1.376-1.376a1.38 1.38 0 0 1 1.38 1.376zm5.216 0c0 .76-.617 1.376-1.376 1.376a1.38 1.38 0 0 1-1.38-1.376c0-.76.617-1.376 1.38-1.376a1.37 1.37 0 0 1 1.376 1.376zm5.593 0c0 .76-.616 1.376-1.376 1.376a1.38 1.38 0 0 1-1.379-1.376c0-.763.62-1.376 1.379-1.376s1.376.613 1.376 1.376zm5.594 0c0 .76-.617 1.376-1.376 1.376s-1.376-.616-1.376-1.376.617-1.376 1.376-1.376 1.376.613 1.376 1.376zm-27.591 24.714c0 .759-.616 1.376-1.376 1.376a1.38 1.38 0 0 1-1.379-1.376 1.38 1.38 0 0 1 1.379-1.38c.76 0 1.376.617 1.376 1.38z"/><use xlink:href="#C"/><path d="M597.216 227.449a1.38 1.38 0 0 1-1.38 1.376 1.38 1.38 0 0 1-1.376-1.376 1.38 1.38 0 0 1 1.376-1.38 1.38 1.38 0 0 1 1.38 1.38zm5.216 0a1.38 1.38 0 0 1-1.376 1.376 1.38 1.38 0 0 1-1.38-1.376 1.38 1.38 0 0 1 1.38-1.38 1.38 1.38 0 0 1 1.376 1.38z"/></g><path d="M221.142 160.296h-109.14l3.893 69.923h105.247v-69.923z" class="F"/><g class="B"><path d="M127.792 201.89l2.67 14.796h67.125V201.89h-69.795zm2.599-26.788l-.022-2.004 63.364-.67.025 2.007-63.367.667zm56.811 9.101l-57.357-1.75.064-2.007 57.357 1.754-.064 2.003zm-29.834 4.646h-27.74v-2.007h27.74v2.007z"/></g><g fill="#99dff9"><path d="M286.944 316.988l-.021-2 63.367-.671.021 2.004-63.367.667zm56.811 9.105l-57.357-1.75.065-2.007 57.356 1.753-.064 2.004zm-29.833 4.642h-27.741v-2.007h27.741v2.007zm55.395-23.47l-.025-2.007 63.367-.666.025 2.003-63.367.67zm56.811 9.099l-57.357-1.751.064-2.003 57.353 1.754-.06 2zm-29.837 4.645h-27.737v-2.003h27.737v2.003zm-28.725-91.271v61.877l76.469-4.888-1.265-55.863-75.204-1.126zm-1.757 63.745v-65.528l78.679 1.18 1.341 59.239-80.02 5.109z"/><path d="M444.406 288.253l-78.244-58.704 1.051-1.405 78.245 58.704-1.052 1.405z"/><path d="M377.428 292.549l-1.191-1.295 66.793-61.901 1.194 1.29-66.796 61.906z"/></g><path d="M235.356 310.399h-48.985l-1.897-51.352h48.982l1.9 51.352z" fill="#c2ecfb"/><path d="M235.356 375.495h-48.985l-1.897-51.348h48.982l1.9 51.348z" fill="#b6e6fa"/><path d="M237.748 423.736l-92.915 6.438-6.025-86.918 92.912-6.442 6.028 86.922z" class="G"/><path d="M191.351 421.172h40.408l1.051 36.222-42.931-1.052 1.472-35.17z" fill="#347cdf"/><g class="B"><path d="M201.452 432.559h20.413l1.263 10.314h-13.045l-4.421 6.945-.631-7.362-3.579.207v-10.104zm-1.295-47.716l-25.701 2.179-4.62-12.083 33.943-2.727-3.622 12.631zm14.796-26.378l-7.319 1.027-3.059 10.011-38.465 3.091 6.592 17.223 26.71-2.264-1.686 6.285-23.024 1.526a1.32 1.32 0 0 0-1.23 1.405 1.32 1.32 0 0 0 1.316 1.23h.089l24.909-1.651 2.664-9.925 4.396-15.338 2.819-9.212 5.655-.802a1.31 1.31 0 0 0 1.123-1.49c-.1-.717-.767-1.23-1.49-1.116zm-20.889 43.341c-1.996 0-3.611 1.619-3.611 3.612s1.615 3.615 3.611 3.615 3.612-1.619 3.612-3.615a3.61 3.61 0 0 0-3.612-3.612zm-16.991 0c-1.997 0-3.615 1.619-3.615 3.612a3.62 3.62 0 0 0 3.615 3.615c1.997 0 3.611-1.619 3.611-3.615s-1.618-3.612-3.611-3.612zm480.027 11.48l-1.836.011-1.515-13.487 4.759-.029-1.408 13.505zm-14.403-.488l-1.826-.171.107-13.559 4.735.446-3.016 13.284zm-12.054-.114h-1.84l-1.419-13.498h4.76l-1.501 13.498zm27.252-16.921l-8.653-14.029-2.128 1.501 6.31 12.361-16.086-.606 5.797-11.352-2.128-1.501-7.829 12.696-13.787-.517 2.064 21.912 42.704 1.814 5.807-21.822-12.071-.457z"/></g><path d="M369.577 435.843v-6.742l6.203.549-6.203 6.193zm0-10.478v-14.614h7.148l1.926 13.869-9.074.745z" fill="#81c5e3"/><path d="M375.78 429.65l-6.203-.549v-3.736l9.074-.745.263 1.9-3.134 3.13z" fill="#68accf"/><path d="M376.725 410.751h-7.148v-51.527l7.148 51.527z" fill="#e3e6e8"/><path d="M553.5 466.446c-23.594 0-42.721-1.725-42.721-3.854s19.127-3.857 42.721-3.857c19.238 0 35.509 1.148 40.86 2.727-.043.057-.064.114-.068.175-.021.364.631.756 1.869 1.162-1.198 2.032-19.841 3.647-42.661 3.647z" class="K"/><path d="M685.626 447.685c-8.767 0-20.625-.321-31.773-1.045-17.42-1.133-43.324-3.736-49.328-5.711.043-.068.061-.136.061-.207 0-.392-.649-.774-1.861-1.13.777-1.112 8.36-1.694 19.801-1.694 8.77 0 19.804.339 31.776 1.045 28.4 1.669 51.321 4.745 51.196 6.87-.072 1.23-7.84 1.872-19.872 1.872z" fill="#7fcaec"/><path d="M596.161 462.799c-1.238-.406-1.89-.798-1.869-1.162.004-.061.025-.118.068-.175 1.212.357 1.861.738 1.861 1.13a.38.38 0 0 1-.06.207z" fill="#65b2d8"/><path d="M532.868 447.562l5.095.534.51 7.148 7.743 4.165-.912 1.853-12.518-.203-.32-3.825.228-2.189.174-7.483z" class="E"/><path d="M532.212 457.209l.154-1.205c.01-.649 1.565.624 2.017.738 1.968.503 5.79 2.135 8.66 2.207.414.014-.317-1.166-.759-1.74l.392-.139 2.981 1.323 7.501 2.556.01 1.643h-21.12l-.017-2.431.181-2.952z" class="C"/><path d="M553.168 462.592v-.813l-21.137-1.476v.806l.017 1.483h21.12z" fill="#58595b"/><path d="M570.613 447.562l6.706.698 1.85 6.984 7.74 4.165-.913 1.853-12.517-.203-.321-3.825.232-2.189-2.777-7.483z" class="E"/><path d="M572.909 457.209l.153-1.205c.011-.649 1.565.624 2.018.738 1.964.503 5.79 2.135 8.656 2.207.414.014-.314-1.166-.756-1.74l.392-.139 2.981 1.323 7.501 2.556.011 1.643h-21.124l-.018-2.431.186-2.952z" class="C"/><path d="M593.865 462.592l-.004-.813-21.138-1.476v.806l.018 1.483h21.124z" fill="#58595b"/><linearGradient id="G" x1=".344" y1=".521" x2=".788" y2=".087" gradientTransform="matrix(44.062,0,0,118.638,535.56,333.484)" gradientUnits="userSpaceOnUse"><stop offset="0" stop-color="#223675"/><stop offset=".27027%" stop-color="#223675"/><stop offset="100%" stop-color="#2d489c"/></linearGradient><path d="M560.042 336.532l9.676 66.248 9.904 49.341h-8.207l-15.398-51.99-20.457-66.647 24.482 3.048z" fill="url(#G)"/><path d="M594.246 326.546l6.203-1.376.093-2.642-6.781.392.485 3.626z" class="E"/><linearGradient id="H" x1="-.663" y1=".699" x2="-.006" y2="-1.786" gradientTransform="matrix(25.626,0,0,115.493,520.84,336.628)" gradientUnits="userSpaceOnUse"><stop offset="0" stop-color="#223675"/><stop offset=".27027%" stop-color="#223675"/><stop offset="100%" stop-color="#2d489c"/></linearGradient><path d="M546.466 336.628l-4.364 65.396-2.763 50.097-7.308-1.187-1.38-50.743-9.811-50.219.862-12.164 24.764-1.18z" fill="url(#H)"/><g class="L"><path d="M561.814 339.099l-41.741 2.053 3.141-15.918-7.394-30.564c-.959-5.205 2.955-8.778 5.857-8.778l43.517-.278c1.953 0 3.44 1.758 3.116 3.687l-9.198 39.174 2.702 10.624z"/><path d="M598.221 325.883l-20.364 4.421c-2.007.106-3.786-1.273-4.193-3.241l-7.401-24.974-1.23-16.321c4.015-.824 7.94 1.757 8.767 5.772l6.553 31.206 18.649-.86-.781 3.997z"/></g><path d="M571.415 335.598l-15.181-3.141 46.344-18.639 7.401 6.271-38.564 15.509z" fill="#576db0"/><path d="M573.119 315.943l38.564-15.505-1.704 19.651-38.564 15.509 1.704-19.655z" class="H"/><g class="E"><path d="M600.692 318.25l1.287.011-.143 4.11h.171l.168-5.376 1.287.014-.167 5.373.178.003.182-6.171 1.287.011-.182 6.171h.189l.171-5.472 1.29.01-.181 5.772-5.78 2.464.243-6.92zm-49.032 2.966l6.881-1.533 2.253-.403 3.818 1.601-.142.92-2.364-.856 5.765 4.054-.706.959-4.139-2.913-.103.142 1.675 1.181-1.073.702-1.308-.923-.096.132 1.262.884-1.074.698-.894-.627-.097.128.849.592-.973.635-2.656-1.986-.371-.282-1.319-1.073-6.496 1.936 1.308-3.968z"/></g><path d="M532.337 325.976l23.576-6.389.321 5.123-25.483 9.062a4.06 4.06 0 0 1-4.546-2.723l-9.555-26.072c-2.666-6.132-2.866-13.609 2.072-18.111 1.554-1.319 3.957-.531 4.424 1.451l9.191 37.659z" fill="#4da1f1"/><path d="M556.256 271.717a3.79 3.79 0 1 1-7.583 0c0-2.092 1.697-3.793 3.79-3.793s3.793 1.701 3.793 3.793z" class="C"/><path d="M538.754 261.339v14.892a1.49 1.49 0 0 0 .831 1.337l1.772.884-1.619 12.403 8.072.289-1.023-11.754 4.007-1.833a1.5 1.5 0 0 0 .873-1.362v-14.856h-12.913z" class="E"/><g class="C"><path d="M555.589 266.869c0 1.954-1.401 3.544-3.126 3.544s-3.127-1.59-3.127-3.544 1.401-3.548 3.127-3.548 3.126 1.59 3.126 3.548z"/><path d="M549.2 258.644s-.142-.061-.552-.089l.007-.089c-.25-1.245-3.184-1.697-6.557-1.027-2.998.599-5.319 1.886-5.629 3.037-1.918.728-3.351 3.573-3.351 6.988a11.4 11.4 0 0 0 .349 2.835c-.513.648-.837 1.458-.837 2.352a3.79 3.79 0 0 0 3.793 3.79c1.618 0 2.991-1.023 3.536-2.453 1.498-.506 2.589-1.907 2.589-3.575l-.097-.828a2.72 2.72 0 0 0 1.277-2.303 2.66 2.66 0 0 0-.275-1.166c.211-.281.357-.613.357-.99l-.103-.5.007-.014-.015-.021-.52-.76.196-.691.05-.086s1.283-1.458 2.11.11c1.191 2.257 2.788 2.204 5.141 1.976 3.473-.335 1.28-5.526-1.476-6.496z"/></g><path d="M547.757 285.707l-.325 22.257-7.455-22.211 7.78-.046z" class="B"/><g fill="#79b9f5"><path d="M547.757 285.707l3.586 5.301h-3.637l3.673 5.498-3.947 11.458.325-22.257z"/><path d="M539.967 285.707l-3.034 5.576h3.636l-2.103 6.881 8.966 9.8-7.465-22.257z"/></g><path d="M256.045 197.345s15.291 16.995 31.915-.357l-31.915.357z" class="C"/><path d="M287.96 196.988s13.658 17.017 30.282-.335l-30.282.335z" class="J"/><path d="M318.242 196.653s15.498 16.999 32.122-.357l-32.122.357z" class="C"/><path d="M350.364 196.254s17.648 17.013 34.272-.339l-34.272.339z" class="J"/><path d="M384.636 195.922s20.236 16.938 36.861-.413l-36.861.413z" class="C"/><path d="M421.497 195.491s17.857 16.988 34.482-.367l-34.482.367z" class="J"/><path d="M455.979 195.124s20.235 16.945 36.86-.407l-36.86.407z" class="C"/><path d="M492.817 194.646s22.967 16.984 39.592-.367l-39.592.367z" class="J"/><g class="C"><path d="M532.409 194.15s11.408 9.961 22.257-.117l-22.257.117zM456.97 412.537l6.51-1.547.916 8.225 1.612 3.744.409 1.9-5.105 1.404-1.394-.467-2.346.556-.463.981-11.541.046-.274-1.287 7.836-1.543 4.007-4.261-.167-7.751z"/></g><linearGradient id="I" x1="432.937" y1="361.78" x2="464.931" y2="361.78" gradientUnits="userSpaceOnUse"><stop offset="0" stop-color="#1868b3"/><stop offset="100%" stop-color="#208aee"/></linearGradient><path d="M432.937 308.403l15.48 62.023 7.437 48.497 9.077-1.298-4.778-47.488-2.506-65.503-24.71 3.769z" fill="url(#I)"/><g class="E"><path d="M393.332 191.712l1.287-.154.381 4.132.171-.021-.52-5.398 1.29-.157.521 5.402.178-.022-.609-6.192 1.29-.154.61 6.189.189-.021-.532-5.497 1.291-.157.738 7.658 1.494-2.164.945.36-2.581 4.67.035 2.282.799 4.292-4.692.717-.866-5.476-.464-2.756-.26.032-.695-7.565zm40.55 3.362l-.788 1.116 3.636 2.413-.103.15-4.742-3.177-.784 1.123 4.738 3.173-.107.154-5.433-3.651-.788 1.119 5.437 3.648-.118.167-4.827-3.234-.788 1.116 6.727 4.503-2.752.303-.135 1.059 5.615-.064 2.093 1.169 3.579 2.881 3.005-3.99-4.645-3.536-2.321-1.8.157-.225-6.656-4.417zm18.999 40.154l-12.963-6.303-3.084 6.217-3.227 3.509.874 1.233-.421 3.273c-.292.749.104 1.583.863 1.839l5.458 1.894-.873 13.43 8.349.288-1.943-12.874 6.967-12.506z"/></g><path d="M448.171 254.163l-9.038-2.239-2.72 1.119 12.004 3.123-.246-2.003z" class="L"/><g class="C"><path d="M442.649 225.902s.67.039 2.695 1.308c2.028 1.276 3.076 2.025 3.636 3.066s3.901 2.61 4.368 3.027c.467.424.641 3.907-.075 5.28-.467.895-5.123 5.412-5.123 5.412l-3.509-2.193-.003-5.572-1.009-.706-1.558 1.301-.681-.549.849-1.768-.66-1.341c-1.148.154-2.171-.606-3.005-3.272-1.145-3.648.998-4.343 4.075-3.993zm-27.064 184.689l6.282-.367v10.471l.799 4.075.068 1.829-4.959.459-1.213-.656-2.267.132-.588.835-11.47.777-.046-1.237 8.286-2.774 4.406-3.291.702-10.253z"/></g><linearGradient id="J" x1="414.238" y1="359.046" x2="450.253" y2="359.046" gradientUnits="userSpaceOnUse"><stop offset="0" stop-color="#1868b3"/><stop offset="100%" stop-color="#208aee"/></linearGradient><path d="M420.887 300.321l-5.833 62.151-.816 57.124 8.849.132 3.158-55.912 24.008-65.449-29.366 1.954z" fill="url(#J)"/><linearGradient id="K" x1=".093" y1=".633" x2=".892" y2="-.014" gradientTransform="matrix(77.919,0,0,109.186,394.116,203.612)" gradientUnits="userSpaceOnUse"><stop offset="0" stop-color="#223675"/><stop offset=".27027%" stop-color="#223675"/><stop offset="100%" stop-color="#2d489c"/></linearGradient><path d="M470.279 221.11l-10.193-7.608-14.022-9.89-4.428 4.314 22.047 19.009-6.125 31.552-32.24-8.182-.228.007c-1.087-2.738-3.23-5.055-6.185-6.271l-11.523-13.847-6.795-26.254-6.471.396 2.382 13.202 2.656 11.176c.798 5.498 1.732 6.254 5.223 11.117l17.045 28.589-.77 37.737 36.845 6.642 12.414-44.886c.742-2.003.909-5.019.881-6.913l.859-27.045c.485-6.278.909-7.465-1.372-12.845z" fill="url(#K)"/><g class="G"><path d="M724.289 183.904c0 1.005-.817 1.822-1.826 1.822h-9.654c-1.009 0-1.825-.817-1.825-1.822v-5.743c0-1.009.816-1.826 1.825-1.826h9.654c1.009 0 1.826.817 1.826 1.826v5.743zm0 45.406c0-1.009-.817-1.826-1.826-1.826h-9.654c-1.009 0-1.825.817-1.825 1.826v5.74c0 1.009.816 1.825 1.825 1.825h9.654c1.009 0 1.826-.816 1.826-1.825v-5.74zm-18.004-43.463a1.83 1.83 0 0 1 0 2.585l-6.824 6.823a1.82 1.82 0 0 1-2.578 0l-4.064-4.06a1.82 1.82 0 0 1 0-2.581l6.831-6.824c.706-.713 1.865-.713 2.581 0l4.054 4.057zm32.108 32.108c-.714-.713-1.869-.713-2.582 0l-6.823 6.827a1.83 1.83 0 0 0 0 2.581l4.057 4.061a1.83 1.83 0 0 0 2.585 0l6.823-6.827c.717-.713.717-1.868 0-2.585l-4.06-4.057zm-43.46-18.004c1.009 0 1.822.82 1.822 1.832v9.651a1.82 1.82 0 0 1-1.822 1.822h-5.743c-1.006 0-1.822-.816-1.822-1.822v-9.651c0-1.012.816-1.832 1.822-1.832h5.743zm45.406 0c-1.009 0-1.822.82-1.822 1.832v9.651a1.82 1.82 0 0 0 1.822 1.822h5.743c1.009 0 1.826-.816 1.826-1.822v-9.651a1.83 1.83 0 0 0-1.826-1.832h-5.743zm-43.459 18.004c.713-.713 1.871-.713 2.581 0l6.824 6.827c.713.713.713 1.868 0 2.581l-4.054 4.061c-.716.713-1.875.713-2.581 0l-6.831-6.827c-.717-.713-.717-1.868 0-2.585l4.061-4.057z"/><path d="M728.988 185.847a1.83 1.83 0 0 0 0 2.585l6.823 6.823c.71.713 1.868.713 2.582 0l4.06-4.06c.713-.713.713-1.868 0-2.581l-6.823-6.824a1.83 1.83 0 0 0-2.585 0l-4.057 4.057z"/><path d="M717.636 223.445c-9.298 0-16.838-7.537-16.838-16.842 0-9.298 7.54-16.838 16.838-16.838s16.842 7.54 16.842 16.838c0 9.305-7.54 16.842-16.842 16.842zm0-38.143c-11.765 0-21.302 9.536-21.302 21.301a21.31 21.31 0 0 0 21.302 21.309 21.31 21.31 0 0 0 21.302-21.309c0-11.765-9.537-21.301-21.302-21.301z"/></g><g class="H"><path d="M684.266 257.368a10.12 10.12 0 0 1-12.759-6.457c-1.737-5.301 1.144-11.013 6.449-12.756a10.12 10.12 0 0 1 12.76 6.449c1.736 5.305-1.148 11.02-6.45 12.764zm-7.943-24.19c-8.057 2.645-12.442 11.316-9.797 19.377a15.35 15.35 0 0 0 19.377 9.786c8.05-2.645 12.435-11.312 9.793-19.37a15.35 15.35 0 0 0-19.373-9.793z"/><path d="M680.038 233.51c.153.495-.11 1.023-.602 1.19l-4.721 1.548c-.495.16-1.023-.107-1.187-.599l-.923-2.806c-.154-.496.11-1.023.602-1.191l4.72-1.547c.492-.164 1.027.107 1.191.599l.92 2.806zm8.656 26.364a.93.93 0 0 0-1.183-.599l-4.721 1.547c-.495.164-.766.695-.606 1.187l.927 2.806c.157.492.692.767 1.184.599l4.72-1.547a.95.95 0 0 0 .603-1.191l-.924-2.802zm-18.421-21.427c.464.232.652.799.417 1.259l-2.242 4.435c-.232.463-.799.652-1.259.417l-2.642-1.333c-.463-.236-.645-.799-.413-1.266l2.246-4.428c.232-.467.795-.652 1.258-.421l2.635 1.337zm24.76 12.514a.95.95 0 0 0-1.262.417l-2.243 4.432c-.231.467-.042 1.033.421 1.262l2.635 1.337a.94.94 0 0 0 1.262-.418l2.239-4.431a.94.94 0 0 0-.41-1.265l-2.642-1.334zm-28.168-2.125c.492-.16 1.027.107 1.183.599l1.551 4.724c.161.488-.107 1.02-.602 1.18l-2.806.923a.94.94 0 0 1-1.184-.595l-1.55-4.72c-.161-.496.103-1.027.595-1.184l2.813-.927zm26.361-8.656a.94.94 0 0 0-.603 1.184l1.551 4.727c.16.488.695.756 1.184.592l2.805-.92a.94.94 0 0 0 .603-1.187l-1.551-4.72c-.16-.492-.692-.756-1.184-.596l-2.805.92zm-21.431 18.418a.94.94 0 0 1 1.266-.414l4.428 2.239c.467.239.656.802.417 1.262l-1.33 2.638a.95.95 0 0 1-1.262.421l-4.435-2.25a.94.94 0 0 1-.417-1.258l1.333-2.638zm12.518-24.76c-.232.459-.047 1.026.417 1.262l4.435 2.239a.93.93 0 0 0 1.258-.414l1.337-2.642c.232-.46.047-1.027-.417-1.262l-4.431-2.239c-.464-.235-1.027-.05-1.262.417l-1.337 2.639z"/></g><clipPath id="L"><path d="M649.536 133.125h226.447v257.73H649.536z" class="B"/></clipPath><g clip-path="url(#L)"><g filter="url(#N)"><path d="M707.351 252.164h25.265l-25.265-26.492v26.492z" class="M"/><path d="M732.616 252.164h-25.265l25.265 26.489v-26.489z" class="D"/><mask id="M" x="-200%" y="-200%" width="400%" height="400%"><path d="M-2e2-2e2h4e2v4e2H-2e2z" class="B"/><path d="M861.498 406.455H659.888V167.037h201.61V406.455z"/></mask><g fill="#e1eefe"><path d="M861.498 406.455H659.888V167.037h201.61V406.455z" mask="url(#M)" vector-effect="non-scaling-stroke" stroke-width="2" stroke="#2d489c"/><path d="M861.498 406.455H659.888V167.037h201.61V406.455z"/></g><path d="M862.458 166.279l-202.57.202v-12.7h201.61l.96 12.498z" class="H"/><g class="D"><path d="M668.772 159.326c0 1.403-1.089 2.542-2.423 2.542-1.34 0-2.424-1.139-2.424-2.542s1.084-2.537 2.424-2.537c1.334 0 2.423 1.135 2.423 2.537z"/><path d="M676.443 159.326c0 1.403-1.084 2.542-2.424 2.542s-2.422-1.139-2.422-2.542 1.084-2.537 2.422-2.537 2.424 1.135 2.424 2.537z"/><path d="M684.115 159.326c0 1.403-1.084 2.542-2.423 2.542s-2.423-1.139-2.423-2.542 1.084-2.537 2.423-2.537 2.423 1.135 2.423 2.537z"/></g><path d="M861.498 416.567h-96.48V170.032h96.48v246.535z" fill="#bddffb"/><path d="M861.498 200.851h-96.479v-33.962h96.479v33.962z" fill="#fec12f"/><path d="M784.828 214.416c0 4.258-3.294 7.712-7.358 7.712s-7.357-3.454-7.357-7.712 3.294-7.713 7.357-7.713 7.358 3.453 7.358 7.713z" class="B"/><g class="D"><path d="M838.025 212.933h-48.104v-1.78h48.104v1.78z"/><path d="M822.745 217.679h-32.824v-1.781h32.824v1.781z"/></g><g class="B"><path d="M784.828 181.153c0 4.258-3.294 7.712-7.358 7.712s-7.357-3.454-7.357-7.712 3.294-7.712 7.357-7.712 7.358 3.451 7.358 7.712z"/><path d="M838.025 179.669h-48.104v-1.779h48.104v1.779z"/><path d="M822.745 184.416h-32.824v-1.781h32.824v1.781z"/><path d="M784.828 242.103c0 4.259-3.294 7.713-7.358 7.713s-7.357-3.454-7.357-7.713 3.294-7.713 7.357-7.713 7.358 3.453 7.358 7.713z"/></g><g class="D"><path d="M838.025 240.619h-48.104v-1.779h48.104v1.779z"/><path d="M822.745 245.366h-32.824v-1.78h32.824v1.78z"/></g><path d="M784.828 269.79c0 4.26-3.294 7.713-7.358 7.713s-7.357-3.453-7.357-7.713 3.294-7.713 7.357-7.713 7.358 3.454 7.358 7.713z" class="B"/><g class="D"><path d="M838.025 268.307h-48.104v-1.78h48.104v1.78z"/><path d="M822.745 273.053h-32.824v-1.779h32.824v1.779z"/></g><path d="M784.828 297.477c0 4.26-3.294 7.713-7.358 7.713s-7.357-3.453-7.357-7.713 3.294-7.712 7.357-7.712 7.358 3.453 7.358 7.712z" class="B"/><g class="D"><path d="M838.025 295.995h-48.104v-1.78h48.104v1.78z"/><path d="M822.745 300.74h-32.824v-1.779h32.824v1.779z"/></g><path d="M756.55 229.565h-88.286v-25.511h88.286v25.511z" class="B"/><path d="M688.072 216.81c0 4.26-3.295 7.713-7.358 7.713s-7.357-3.453-7.357-7.713 3.294-7.712 7.357-7.712 7.358 3.453 7.358 7.712z" fill="#f02f55"/><g class="D"><path d="M741.269 215.327h-48.104v-1.781h48.104v1.781z"/><path d="M725.989 220.073h-32.824v-1.781h32.824v1.781z"/></g><path d="M756.55 196.341H668.264V170.829H756.55v25.512z" class="B"/><path d="M756.55 196.341v-.396h-87.91v-24.72h87.531l.001 25.116h.378v-.396.396h.377v-25.907h-89.041v26.302h89.041v-.395h-.377z" class="M"/><path d="M688.072 183.585c0 4.26-3.295 7.712-7.358 7.712s-7.357-3.452-7.357-7.712 3.294-7.713 7.357-7.713 7.358 3.454 7.358 7.713z" fill="#fec12f"/><g class="D"><path d="M741.269 182.102h-48.104v-1.78h48.104v1.78z"/><path d="M725.989 186.848h-32.824v-1.78h32.824v1.78z"/></g><path d="M756.55 262.791h-88.287V237.28h88.287v25.511z" class="B"/><path d="M688.071 250.035c0 4.26-3.294 7.713-7.357 7.713s-7.357-3.453-7.357-7.713 3.293-7.712 7.357-7.712 7.357 3.453 7.357 7.712z" fill="#f5729f"/><g class="D"><path d="M741.269 248.552h-48.105v-1.78h48.105v1.78z"/><path d="M725.988 253.298h-32.824v-1.78h32.824v1.78z"/></g><path d="M756.55 296.015h-88.287v-25.51h88.287v25.51z" class="B"/><path d="M688.071 283.261c0 4.259-3.294 7.711-7.357 7.711s-7.357-3.452-7.357-7.711 3.293-7.713 7.357-7.713 7.357 3.453 7.357 7.713z" fill="#7e93ee"/><g class="D"><path d="M741.269 281.777h-48.105v-1.779h48.105v1.779z"/><path d="M725.988 286.523h-32.824v-1.78h32.824v1.78z"/></g><path d="M756.55 329.241H668.263V303.729H756.55v25.512z" class="B"/><use xlink:href="#D" class="M"/><g class="D"><path d="M741.269 315.002h-48.105v-1.78h48.105v1.78z"/><path d="M725.988 319.749h-32.824v-1.781h32.824v1.781z"/></g><path d="M756.55 362.465h-88.287v-25.511h88.287v25.511z" class="B"/><path d="M688.071 349.711c0 4.259-3.294 7.712-7.357 7.712s-7.357-3.453-7.357-7.712 3.293-7.713 7.357-7.713 7.357 3.453 7.357 7.713z" fill="#3dc7c9"/><g class="D"><path d="M741.269 348.227h-48.105v-1.779h48.105v1.779z"/><path d="M725.988 352.973h-32.824v-1.78h32.824v1.78z"/></g><path d="M774.744 357.731c-.067.071-.181.067-.254-.01s-.08-.196-.013-.266.181-.066.254.011.08.195.013.265z" class="B"/></g><defs><filter id="N" x="-200%" y="-200%" width="400%" height="400%" class="N"><feGaussianBlur in="SourceGraphic" stdDeviation="6.44"/><feOffset dx="-10" dy="10" result="A"/><feFlood flood-color="#000" flood-opacity="0"/><feComposite in2="A" operator="in"/><feBlend in="SourceGraphic"/></filter></defs></g><g opacity=".1" class="I"><path d="M773.993 81.735c-.431-12.279 12.406-22.71 28.647-23.279s29.778 8.936 30.208 21.214-12.405 22.71-28.647 23.28-29.777-8.937-30.208-21.215z"/></g><g fill="#1f56b7"><path d="M739.579 119.241l.239 6.803-14.893.522-1.099-31.331 14.893-.523.86 24.529zm26.057 5.897l-14.89.523-1.601-45.635 14.89-.522 1.601 45.634zM798.088 124l-14.89.522-.781-22.271 14.89-.522.781 22.271z"/></g><path d="M827.218 122.978l-14.893.522-1.099-31.331 14.893-.522 1.099 31.331z" fill="#1f4da6"/><g class="F"><path d="M788.799 99.549l-32.046-30.615-28.335 23.798-3.313-.877 31.963-26.852 32.166 30.729L811.6 78.22l3.24.937-26.041 20.392z"/><path d="M818.442 81.494l.746-7.517-13.697 3.794 12.951 3.723z"/></g><g class="I"><path d="M739.424 114.82c-5.133-.38-10.164-1.016-14.978-1.913l-.62-17.672 14.893-.523.705 20.108zm17.086.319l-6.13.1-1.235-35.213 14.89-.522 1.231 35.091-8.756.544zm26.248-3.168l-.341-9.72 14.89-.522.215 6.12c-4.666 1.651-9.626 3.026-14.764 4.122zm28.794-10.513l-.326-9.289 12.071-.423c-2.694 3.42-6.617 6.709-11.745 9.712z"/></g><path d="M105.304 519.687c-37.761 0-68.369-2.33-68.369-5.199s30.608-5.203 68.369-5.203 68.366 2.33 68.366 5.203-30.608 5.199-68.366 5.199z" class="K"/><path d="M107.136 541.145c-33.369 0-60.421-2.326-60.421-5.202s27.052-5.2 60.421-5.2c33.361 0 60.409 2.327 60.409 5.2s-27.048 5.202-60.409 5.202z" fill="#dbf5ff" fill-opacity=".8"/><path d="M163.228 514.488H44.788v-83.647h118.44v83.647z" class="G"/><path d="M44.788 430.841l118.44 83.647-.323-82.167-118.117-1.48z" class="F"/><linearGradient id="O" x1=".072" y1=".526" x2=".806" y2=".052" gradientTransform="matrix(24.511,0,0,89.708,130.904,326.154)" gradientUnits="userSpaceOnUse"><stop offset="0" stop-color="#223675"/><stop offset=".27027%" stop-color="#223675"/><stop offset="100%" stop-color="#2d489c"/></linearGradient><path d="M148.752 391.017l-1.037-56.032c.255-4.509-3.117-8.408-7.617-8.798-4.661-.407-8.77 3.08-9.062 7.752-.826 13.016 2.486 28.988 2.546 29.487l2.442 28.041c.431 3.528.044 4.721 4.281 9.181l12.744 15.214 2.366-8.287-6.663-16.558z" fill="url(#O)"/><path d="M149.167 508.495l-9.265.742.575 16.802-1.106 5.072-.207 3.551 19.882 1.281.128-2.123-5.147-3.487-3.44-4.294-1.42-17.544z" class="C"/><path d="M141.821 534.849l.683-1.229 1.236.068.695 1.317-2.614-.156z" fill="#606060"/><path d="M115.495 291.27l-11.072-.499a4.91 4.91 0 0 0-5.108 5.191l1.126 18.889c-.036.906.49 1.751 1.36 2.194l2.841 1.872-2.123 16.267 12.31-.698-1.349-15.462 4.756-2.302c.958-.343 1.588-1.161 1.632-2.095l1.321-16.917a5.98 5.98 0 0 0-5.694-6.44z" class="E"/><linearGradient id="P" x1="71.525" y1="402.185" x2="134.226" y2="319.519" gradientUnits="userSpaceOnUse"><stop offset="0" stop-color="#223675"/><stop offset=".27027%" stop-color="#223675"/><stop offset="100%" stop-color="#2d489c"/></linearGradient><path d="M133.199 404.81H79.222l-5.662-8.004-3.388-24.814v-.004l.547 3.974 8.758-34.845.993-3.304a8.36 8.36 0 0 0-4.149-10.873c-.311-.143-.626-.271-.942-.37l20.17-.132 44.648-.288a4.76 4.76 0 0 1 4.693 5.555l-.14.882-4.561 28.512-6.99 43.711z" fill="url(#P)"/><path d="M79.13 514.544l10.111-.056 2.421 11.495.938 6.604-.044 2.937-6.755.307-1.887-1.161-3.643.024-1.017 1.289-18.466.283.036-1.987 13.518-3.751 5.977-4.908-1.189-11.076z" class="C"/><linearGradient id="Q" x1="53.215" y1="462.578" x2="154.172" y2="462.578" gradientUnits="userSpaceOnUse"><stop offset="0" stop-color="#1868b3"/><stop offset="100%" stop-color="#208aee"/></linearGradient><path d="M151.748 419.521l-18.202-5.741-.347-8.97H74.653l-2.011 9.548-13.738 7.286c-4.907 2.163-5.725 5.805-5.689 7.852l23.864 90.85 15.006-.212-14.028-84.122 11.571-3.699 31.768.004c.463 0 .906-.087 1.357-.139l7.98 1.189 7.365 86.655 12.637.216 3.432-96.096c.039-2.051-.491-2.965-2.419-4.621z" fill="url(#Q)"/><linearGradient id="R" x1="109.754" y1="327.831" x2="115.687" y2="327.831" gradientUnits="userSpaceOnUse"><stop offset="0" stop-color="#1868b3"/><stop offset="100%" stop-color="#208aee"/></linearGradient><path d="M115.687 326.071l-1.513-2.366-4.42 2.298 4.42 5.953 1.513-5.885z" fill="url(#R)"/><linearGradient id="S" x1="102.184" y1="327.831" x2="107.858" y2="327.831" gradientUnits="userSpaceOnUse"><stop offset="0" stop-color="#1868b3"/><stop offset="100%" stop-color="#208aee"/></linearGradient><path d="M102.176 326.071l1.564-2.366 4.118 2.298-4.572 5.953-1.11-5.885z" fill="url(#S)"/><g class="B"><path d="M107.798 326.15h2.007l1.688 2.195-1.739 2.187h-1.956l-1.62-2.347 1.62-2.035z"/><path d="M109.754 330.316l5.33 61.247-4.01 5.072-4.896-4.844 1.62-61.475h1.956z"/></g><g class="E"><path d="M85.235 410.133l3.371 2.454-.85 1.352-3.208-1.209.687-2.597z"/><path d="M74.286 408.645l2.49 3.539 8.87-2.151-8.359-5.961-3.001 4.573z"/></g><linearGradient id="T" x1="62.922" y1="409.094" x2="64.982" y2="317.551" gradientUnits="userSpaceOnUse"><stop offset="0" stop-color="#223675"/><stop offset=".27027%" stop-color="#223675"/><stop offset="100%" stop-color="#2d489c"/></linearGradient><path d="M75.371 411.29l-21.287-16.667a6.14 6.14 0 0 1-3.04-7.389l6.097-26.135.327-1.396c.108-.487 2.45-16.627 7.673-28.573 1.372-3.132 4.437-4.98 7.641-4.98.866 0 1.743.136 2.597.42.316.099.631.227.942.37a8.36 8.36 0 0 1 4.149 10.873l-.993 3.304.012-.052-9.317 30.923h0v.004l-4.229 14.045 7.617 10.769 5.662 8.004.195.283-4.046 6.197z" fill="url(#T)"/><path d="M87.561 427.857l-7.601-7.973 61.059.196 8.559 7.777H87.561z" fill="#a7a9ac"/><path d="M95.677 399.256h62.009l-8.108 28.601H87.561l8.116-28.601z" fill="#d1d3d4"/><path d="M80.582 419.908l1.672.108-2.566-6.033.248-.104 3.06 7.27 2.183-.111-3.328-7.909.264-.107 3.918 8.662 1.803-.327-3.81-9.085.287-.112 3.392 8.056 1.911-.754-3.97-9.429-8.87 1.895 3.806 7.98z" fill="#ffd1a6"/><g class="E"><path d="M150.58 405.249l-.691 2.039 5.873 3.308.635-2.059-5.817-3.288zm-1.453 4.716l-.686 2.031 5.865 3.32.634-2.067-5.813-3.284zm-.116-2.797l-.69 2.027 6.711 3.771.635-2.063-6.656-3.735zm.762 5.878l-.682 2.031 4.493 2.573.638-2.063-4.449-2.541z"/></g><linearGradient id="U" x1=".145" y1="1.753" x2="1.786" y2="-5.569" gradientTransform="matrix(9.305,0,0,34.845,70.172,341.117)" gradientUnits="userSpaceOnUse"><stop offset="0" stop-color="#183870"/><stop offset=".27027%" stop-color="#183870"/><stop offset="100%" stop-color="#1f458b"/></linearGradient><path d="M70.719 375.962l-.547-3.974 9.305-30.871-8.758 34.845z" fill="url(#U)"/><linearGradient id="V" x1="62.922" y1="409.096" x2="64.445" y2="313.927" gradientUnits="userSpaceOnUse"><stop offset="0" stop-color="#183870"/><stop offset=".27027%" stop-color="#183870"/><stop offset="100%" stop-color="#1f458b"/></linearGradient><path d="M70.172 371.988h0l9.317-30.923-.012.052-9.305 30.871z" fill="url(#V)"/><path d="M116.648 288.939s-1.057-.506-5.231-.235c-4.169.26-5.227 2.095-7.325.619-2.415-1.704-8.866 5.218-6.704 9.101l1.361 3.092c.566 2.617 1.009 3.934 1.201 3.719 1.452-1.628.79-5.471 2.147-5.518l2.553-.511s3.444-5.183 4.844-2.219c2.015 4.278 6.113 6.401 10.49 6.181 6.444-.335 5.969-10.905-3.336-14.229z" class="C"/></g></svg>