<svg xmlns="http://www.w3.org/2000/svg" xmlns:xlink="http://www.w3.org/1999/xlink" viewBox="0 0 800 550" width="1066.667" height="733.333" xmlns:v="https://vecta.io/nano"><style><![CDATA[.B{fill:#fff}.C{fill:#95ccf8}.D{fill:#2b99f1}.E{fill:#e9d6b8}.F{fill:#163f59}.G{fill:#2c7eea}.H{fill:#333e48}.I{fill:#1a73e8}.J{fill:#b0bfde}.K{fill:#e8502e}.L{fill:#a8d1e5}.M{fill:#0c1153}.N{fill:#194866}.O{fill:#e2c59c}.P{fill:#161711}.Q{fill:#1f6cd1}.R{fill:#ff6440}.S{fill:#f2f2f4}.T{fill:#dfdfe1}]]></style><defs><clipPath id="A"><path d="M0 0h8e2v550H0z"/></clipPath><path id="B" d="M444.263 151.694v28.798c7.952 0 14.399-6.447 14.399-14.399s-6.447-14.399-14.399-14.399z"/></defs><g clip-path="url(#A)"><path d="M613.636 491.676 491.752 502.352H247.986L126.102 491.676 247.986 481H491.752z" fill="#ebebeb"/><path d="M81.163 267.251l.014-.01zm46.847 42.512l.012.006z"/><path d="M87.696 368.673h1.383c.247-1.49-1.453-1.237-1.383 0z" class="L"/><path d="M77.644 222.934c-.103-.1-.517.203-.332.39.088.133.504-.177.332-.39z" fill="#d4fffe"/><path d="M81.177 267.241l-.014.01z"/><path d="M87.696 368.673h1.383c.247-1.49-1.453-1.237-1.383 0z" fill="#b2ddf2"/><g class="L"><path d="M216.797 368.314c-1.938.045-4.446.948-4.481 1.608s-2.707 1.871-3.604 2.218c-.868.358-2.581 3.075-2.957 3.984s-2.542.629-3.361.983c-.802.373-2.454 1.7-2.458 2.504 0 .796-.461.708-1-.211l-1.064 1.118-1.256 1.401c-.718 2.254-3.108 5.076-3.939 5.351-.799.22-.961 4.184-.961 5.77 0 1.61.635 3.578 1.396 4.38l.15 1.28.291 2.515c-.441 1.951 1.021 3.69 1.464 4.041.425.328 4.072-.649 5.453-.985.582-.136 1.303-.46 1.973-.805 6.507-10.87 11.591-22.649 15.132-35.074a2.26 2.26 0 0 0-.778-.078zm-7.967-31.507c.194.39 1.948-1.018 3.007-1.173 1.061-.166 1.725-3.009.897-3.212-.825-.227-1.868-2.414-2.474-2.672-.598-.264-1.768.942-1.711 1.806.039.864-1.918 1.209-2.301 1.916-.346.727-.346 1.249.06 1.17.396-.074 2.353 1.752 2.522 2.165zm-2.155 15.403c.522-.183-.063-2.992-1.162-3.226s-4.152 3.69-3.566 5.957c.585 2.25 1.218 2.11 1.537 1.635.296-.477 2.131.31 2.664.497.527.176.527-.377 0-1.212-.533-.83 0-3.453.527-3.651zm-6.017-2.735l.494-4.743c.168-.635-1.712-2.435-2.636-2.755-.9-.32-3.876 6.112-6.005 7.241-2.125 1.143-2.898 5.065-2.337 5.96.574.905 5 1.373 5.768 2.071.774.675 1.637-.118 2.111-.231.463-.121.322-.403.136-.523s1.558-1.942 1.809-3.112l.66-3.908zm1.263-32.027c.531-.729-.729-4.168-1.359-3.393-.626.767-.185 2.779.024 3.487.208.694.82.639 1.335-.094zm3.981 7.376c.375-.878-.498-1.876-1.913-2.161-1.417-.296-1.2 3.985-.586 4.518.623.55 2.101-1.466 2.499-2.357zm7.389 26.489c1.694 1.179 5.481.635 5.598-1.666-1.68-1.081-5.756-.916-5.598 1.666zm-.93-52.409c-.71.485-1.071 1.747-.858 2.262l-.295-.012c-.561 0-.629 2.244-.029 2.625.585.383 2.019-1.751 2.781-2.259.739-.494 2.249-.817 2.473-.656s1.538-.232 2.942-.877c.239-.113.528-.488.813-.998l-1.098-4.854-1.889 1.407c-.748.672-3.91 2.73-4.84 3.362zm7.345 54.183c-.435.241-2.591.488-2.897.076-.269-.432-.704.874-1.168 1.071-.443.223-.199 1.35.494.988.476-.237 2.521.904 4.174 1.947l.886-4.974-1.489.892z"/></g><path d="M363.79 435.226V304.784v-65.395l-46.856-46.869H186.215v48.418 63.846 130.442H363.79z" fill="#bddffb"/><path d="M316.934 239.389H363.79L316.934 192.52v46.869z" class="D"/><g class="C"><path d="M363.79 239.389h-46.856l46.856 46.862v-46.862zm-25.596 101.896H213.118v-4.326h125.076v4.326zm3.209 10.357H213.118v-4.335h128.285v4.335zm-2.676 10.341H213.118v-4.318h125.609v4.318zm-14.778 10.353H213.118v-4.319h110.831v4.319z"/><path d="M338.194 260.667H213.118v-4.326h125.076v4.326zm3.209 10.348H213.118v-4.327h128.285v4.327zm-2.676 10.34H213.118v-4.315h125.609v4.315zm-49.622 10.355h-75.987v-4.322h75.987v4.322zm49.089 18.427H213.118v-4.329h125.076v4.329zm3.209 10.351H213.118v-4.327h128.285v4.327zm-2.676 10.343H213.118v-4.312h125.609v4.312zm-.533 60.547H213.118v-4.325h125.076v4.325zm3.209 10.346H213.118v-4.321h128.285v4.321zm-2.676 10.345H213.118v-4.319h125.609v4.319zm-49.622 10.354h-75.987v-4.319h75.987v4.319zm-16.447-179.67h-59.741v-7.028h59.741v7.028z"/></g><path d="M602.813 434.812H228.911V52.79H602.813V434.812z" fill="#e1eefe"/><path d="M602.813 75.259H228.911V52.79H602.813V75.259z" class="I"/><g class="C"><path d="M245.387 64.025c0 2.482-2.02 4.497-4.494 4.497-2.486 0-4.495-2.015-4.495-4.497a4.49 4.49 0 0 1 4.495-4.489c2.474 0 4.494 2.008 4.494 4.489zm14.227 0c0 2.482-2.011 4.497-4.496 4.497s-4.493-2.015-4.493-4.497a4.495 4.495 0 1 1 8.989 0zm14.227 0c0 2.482-2.01 4.497-4.494 4.497s-4.493-2.015-4.493-4.497a4.494 4.494 0 1 1 8.987 0z"/></g><path d="M602.813 446.881H423.884V77.404H602.813V446.881z" fill="#bddffb"/><path d="M602.813 141.789H423.885V77.405h178.928v64.384z" fill="#fec12f"/><g class="C"><path d="M559.282 164.423h-89.214v-3.15h89.214v3.15zm-28.34 8.396h-60.874v-3.15h60.874v3.15z"/></g><g class="B"><path d="M460.622 108.199a13.65 13.65 0 0 1-13.646 13.644c-7.536 0-13.644-6.109-13.644-13.644s6.108-13.644 13.644-13.644 13.646 6.107 13.646 13.644zm98.66-2.624h-89.214v-3.148h89.214v3.148zm-28.34 8.397h-60.874v-3.15h60.874v3.15z"/></g><g class="C"><path d="M559.282 213.403h-89.214v-3.147h89.214v3.147zm-28.34 8.398h-60.874v-3.148h60.874v3.148zm28.34 40.587h-89.214v-3.149h89.214v3.149zm-28.34 8.397h-60.874v-3.149h60.874v3.149z"/></g><path d="M460.622 313.994c0 7.537-6.11 13.644-13.646 13.644s-13.644-6.107-13.644-13.644 6.108-13.644 13.644-13.644a13.65 13.65 0 0 1 13.646 13.644z" class="B"/><g class="C"><path d="M559.282 311.371h-89.214v-3.148h89.214v3.148zm-28.34 8.396h-60.874v-3.149h60.874v3.149z"/></g><path d="M408.178 199.407H244.444V154.276H408.178v45.131z" class="B"/><path d="M281.18 176.842a13.65 13.65 0 0 1-13.646 13.645c-7.535 0-13.644-6.108-13.644-13.645s6.109-13.644 13.644-13.644a13.65 13.65 0 0 1 13.646 13.644z" fill="#f02f55"/><g class="C"><path d="M379.839 174.219h-89.214v-3.151h89.214v3.151zm-28.338 8.396h-60.876v-3.15h60.876v3.15z"/></g><path d="M408.178 140.629H244.444V95.496h163.734v45.133z" class="B"/><path d="M408.178 140.629v-.699H245.142V96.196h162.334l.001 44.433h.701v-.699.699h.7V94.797H243.743v46.532h165.135v-.7h-.7z" class="D"/><path d="M281.18 118.063c0 7.536-6.11 13.644-13.646 13.644s-13.644-6.108-13.644-13.644a13.65 13.65 0 0 1 13.644-13.646 13.65 13.65 0 0 1 13.646 13.646z" fill="#fec12f"/><g class="C"><path d="M379.839 115.438h-89.214v-3.148h89.214v3.148zm-28.338 8.397h-60.876v-3.149h60.876v3.149z"/></g><path d="M408.178 258.189H244.442v-45.133h163.736v45.133z" class="B"/><path d="M281.178 235.623c0 7.535-6.109 13.644-13.644 13.644s-13.644-6.109-13.644-13.644 6.108-13.644 13.644-13.644 13.644 6.108 13.644 13.644z" fill="#f5729f"/><g class="C"><path d="M379.839 232.999h-89.215v-3.149h89.215v3.149zm-28.34 8.395h-60.875v-3.148h60.875v3.148z"/></g><path d="M408.178 316.968H244.442v-45.131h163.736v45.131z" class="B"/><path d="M281.178 294.403c0 7.536-6.109 13.643-13.644 13.643s-13.644-6.107-13.644-13.643 6.108-13.645 13.644-13.645 13.644 6.109 13.644 13.645z" fill="#7e93ee"/><g class="C"><path d="M379.839 291.778h-89.215v-3.147h89.215v3.147zm-28.34 8.397h-60.875v-3.15h60.875v3.15z"/></g><path d="M408.178 375.748H244.442v-45.133h163.736v45.133z" class="B"/><path d="M281.178 353.183c0 7.535-6.109 13.644-13.644 13.644s-13.644-6.109-13.644-13.644 6.108-13.645 13.644-13.645 13.644 6.108 13.644 13.645z" class="D"/><g class="C"><path d="M379.839 350.559h-89.215v-3.15h89.215v3.15zm-28.34 8.397h-60.875v-3.15h60.875v3.15z"/></g><path d="M408.178 434.527H244.442v-45.132h163.736v45.132z" class="B"/><path d="M281.178 411.962c0 7.536-6.109 13.644-13.644 13.644s-13.644-6.108-13.644-13.644 6.108-13.645 13.644-13.645a13.65 13.65 0 0 1 13.644 13.645z" fill="#3dc7c9"/><g class="C"><path d="M379.839 409.338h-89.215v-3.148h89.215v3.148zm-28.34 8.396h-60.875v-3.149h60.875v3.149z"/></g><g class="D"><path d="M680.47 449.301c2.944-4.523-.715-8.368-14.69-10.414-15.252-2.232-29.824-.712-41.811 2.052 28.275-13.698 61.238-32.937 31.141-35.163-9.384-.695-23.815 3.849-39.866 10.948 17.905-14.572 27.753-26.549 16.908-28.775-10.071-2.068-30.609 9.784-52.467 25.516 12.455-13.185 19.666-24.688 14.072-30.115-4.566-4.432-14.307.652-25.511 10.074.498-8.285-2.979-13.285-10.924-12.281-7.47.944-13.523 10.532-17.844 22.033-7.168-17.838-26.096-28.748-45.194-23.331-22.431 6.359-4.409 49.126 5.627 69.456H680.47zM534.582 321.928c-.069.047-41.159 29.567-73.936 112.575l.994.392c16.347-41.401 34.756-69.438 49.068-87.119 7.158-8.841 13.289-15.092 17.628-19.13 2.171-2.019 3.891-3.486 5.069-4.444l1.343-1.066.456-.342-.621-.866h-.001zm-40.57 10.941c-.021.034-29.452 41.105-38.021 91.956l1.054.178c4.255-25.277 13.716-48.166 22.114-64.73 4.2-8.28 8.132-14.981 11.014-19.609 1.441-2.313 2.619-4.109 3.437-5.326l.942-1.381.327-.467-.866-.621h-.001z"/><path d="M518.3 373.083c-.048.016-8.927 2.864-18.82 11.558s-20.787 23.244-24.808 46.586l1.052.181c3.984-23.092 14.722-37.401 24.46-45.966 4.87-4.28 9.492-7.12 12.891-8.887a48.82 48.82 0 0 1 4.058-1.894c.483-.197.859-.338 1.113-.429.127-.047.223-.08.287-.101l.092-.031-.324-1.017h-.001zm21.912-57.044c6.543 5.5 10.039 12.11 7.811 14.761s-9.341.338-15.884-5.163-10.039-12.11-7.811-14.76 9.341-.34 15.884 5.162z"/></g><path d="M537.458 319.315c2.077 1.747 3.187 3.845 2.479 4.688s-2.965.106-5.043-1.642-3.186-3.843-2.481-4.684c.711-.843 2.968-.11 5.045 1.638z" class="M"/><path d="M496.66 330.546c2.725 2.289 4.179 5.042 3.253 6.146s-3.889.141-6.613-2.151-4.18-5.042-3.253-6.146 3.889-.141 6.613 2.151z" class="D"/><path d="M495.514 331.909c.865.727 1.327 1.602 1.032 1.952s-1.235.047-2.1-.682-1.327-1.601-1.032-1.952 1.235-.045 2.1.682z" class="M"/><path d="M521.227 371.671c2.619 3.765 3.502 7.682 1.977 8.742s-4.887-1.131-7.506-4.9-3.507-7.682-1.978-8.744 4.886 1.134 7.507 4.902z" class="D"/><path d="M519.339 372.981c.833 1.197 1.114 2.441.629 2.776s-1.551-.359-2.385-1.555-1.113-2.439-.628-2.775 1.553.358 2.384 1.554z" class="M"/><g class="B"><path d="M492.53 420.173c.959-.146 1.623-1.045 1.478-2.007s-1.047-1.626-2.008-1.481a1.77 1.77 0 0 0-1.48 2.009c.147.962 1.044 1.625 2.01 1.479zm-4.014-1.212l.364-.272-.191-.068c-1.676-.658-2.758-1.9-2.414-2.777s1.981-1.052 3.655-.397l.416.182-.035-.2c-.27-1.78.266-3.337 1.195-3.477s1.904 1.186 2.173 2.967l.051.451.156-.132c1.405-1.123 3.022-1.439 3.612-.703.584.734-.078 2.244-1.486 3.366l-.365.27.191.067c1.675.656 2.756 1.899 2.414 2.775s-1.98 1.055-3.653.399l-.418-.184.035.202c.271 1.781-.268 3.337-1.196 3.478s-1.904-1.188-2.174-2.968l-.047-.452-.159.134c-1.406 1.122-3.021 1.439-3.609.704s.078-2.244 1.485-3.365zm-83.113-19.589c-.051-.273.111-.529.36-.576s.491.137.541.409-.112.528-.36.574-.491-.136-.541-.407zm5.734-.719c-1.507-.707-3.394-.657-4.429-.525.769-.226 2.085-.872 2.08-2.427-.004-1.798-2.389-.428-3.054 1.63-.426-1.248-.929-2.51-1.274-3.089-.977-1.624-2.516-.326-2.189 1.138.187.847.132 1.992 2.441 3.129-.906 0-1.822.147-2.611.54-3.799 1.884-3.947 2.928-2.434 3.325 1.079.283 4.255-.422 5.405-2.185-.206 1.453-.455 3.927.332 4.85 1.163 1.364 2.43 1.245 2.408-1.628-.02-2.759-.409-3.133-.439-3.16.02.02 1.34 1.095 2.679 1.084 2.73-.023 2.814-1.872 1.085-2.682zm29.287 27.307s-1.201-.098-1.968.446c-1.553 1.099-.866 2.189.446 1.967s2.509-1.214 2.944-1.652-1.417.99-.426 2.406 2.176-2.413-.015-3.499 1.868 2.071 3.073 2.612 1.568-.812.799-1.519c-.575-.53-1.114-1.513-4.592-.311s1.806.732 3.231-1.857 1.096-3.245.071-2.871-3.636 3.5-1.252 4.967-.232-.068-.756-1.131c-.362-.737-1.363-2.825-2.336-3.08-1.208-.318-1.886.253-.731 1.889s1.512 1.633 1.512 1.633z"/><path d="M441.921 426.152c-.125.125-.336.118-.472-.019s-.148-.345-.023-.469.335-.118.471.018.147.346.024.47z"/></g><path d="M375.53 348.966a6.02 6.02 0 0 0-6.018-6.019H267.743l-8.663 14.048H141.744a6.02 6.02 0 0 0-6.021 6.019l12.039 85.286c0 3.323 2.697 6.021 6.024 6.021h200.676a6.02 6.02 0 0 0 6.015-6.021l15.053-99.334z" fill="#ee8f01"/><path d="M375.53 352.847a6.02 6.02 0 0 0-6.018-6.018H267.743l-8.663 14.044H141.744c-3.324 0-6.021 2.697-6.021 6.02l12.039 85.288c0 3.325 2.697 6.021 6.024 6.021h200.676a6.02 6.02 0 0 0 6.015-6.021l15.053-99.334z" fill="#ffc910"/><g class="N"><path d="M198.677 286.018c3.283 6.731 11.515 9.476 18.388 6.121 6.876-3.345 9.792-11.52 6.51-18.248s-11.512-9.474-18.389-6.124c-6.87 3.348-9.784 11.521-6.509 18.251z"/><path d="M191.726 303.314c4.142 8.496 14.537 11.96 23.213 7.728 8.683-4.23 12.365-14.546 8.221-23.048s-14.535-11.962-23.216-7.729c-8.68 4.226-12.358 14.545-8.218 23.049z"/></g><g class="O"><path d="M206.287 322.093s.51 2.267-10.424 5.046-27.666 4.141-27.666 4.141l24.622-8.757s9.572-2.903 13.468-.43z"/><path d="M177.002 329.902c-5.154 1.48-6.63 4.698-8.443 6.086s-3.519 3.202-3.508 3.174c.513-2.534 2.16-3.073 2.791-4.027s.516-.531-1.362-.144c-1.061.223-2.372 2.588-3.4 3.987-.894 1.21-1.592 1.488-1.592 1.488s.803-2.241 2.077-4.233c1.54-2.395 3.642-4.633 4.177-5.047.978-.742 4.393-1.85 6.942-2.236 2.877-.421 6.034-.113 2.318.952z"/><path d="M168.047 331.208s-3.661 2.137-4.204 2.856c-.377.5-1.786 3.2-1.786 3.2s1.406-.663 2.029-1.711c.624-1.041 3.961-4.345 3.961-4.345z"/></g><g class="J"><path d="M200.182 318.763s10.153-2.261 11.184 3.849c.584 3.472-1.357 5.301-4.437 5.927-5.731 1.175-12.314 2.2-12.314 2.2l-5.498-8.374 11.065-3.602z"/><path d="M199.609 313.718l2.827-27.764s-.201-7.261 2.416-7.11c3.772.213 4.492 6.483 4.822 8.734.667 4.585 1.633 6.393 1.557 17.939-.043 7.121.462 15.161.015 19.966-.31 3.311-3.533-.367-6.894-.679-6.265-.591-4.743-11.086-4.743-11.086z"/></g><path d="M138.684 391.481l-9.273 20.112-12.858.282-6.499-1.318 13.986-3.323 7.486-18.668 7.158 2.915z" class="E"/><path d="M127.993 414.765l-1.708-.399-.954-2.081-10.375.455-8.351-1.55s.163-.633.558-.844c1.477-.794 7.961-1.178 7.961-1.178s-.68 1.8.059 2.178c.734.38 8.74-.114 10.664-.384 3.304-.471 5.013-1.301 4.866-.862-.213.642-2.72 4.665-2.72 4.665z" class="P"/><path d="M190.03 350.603l-30.314-.81-22.59 49.442-9.352-3.697 22.035-59.491s1.747-3.762 10.903-3.762c8.909 0 44.875-.981 48.962.156 9.692 2.698-21.309 9.945-19.644 18.162z" class="Q"/><g class="N"><path d="M211.595 268.405c3.281 6.733 11.513 9.476 18.386 6.128s9.789-11.524 6.511-18.256-11.514-9.47-18.386-6.123-9.789 11.523-6.511 18.251z"/><path d="M197.457 264.047c2.519 5.172 8.752 7.32 13.924 4.806l.174-5.591c5.167-2.519 7.313-8.755 4.795-13.92l-1.71-3.511c-2.517-5.169-8.749-7.322-13.92-4.802l-2.341 1.137c-5.169 2.522-7.318 8.754-4.799 13.928l3.877 7.953z"/></g><path d="M194.49 248.463a20.51 20.51 0 0 0 1.51 2.528c3.876 5.55 9.753 8.332 14.02 6.947 1.451 2.667 3.193 4.846 4.858 6.608 1.902 2.005 5.897 3.16 5.897 3.16 2.723 3.867 1.181 15.002-8.55 16.148-5.853.687-4.654-5.476-2.611-9.321.956-1.807 1.875-3.88 1.665-4.9-.736-3.547-2.035-4.032-4.116-5.243-3.515-1.539-6.734.074-6.734.074a1.19 1.19 0 0 1-.959.038 7.36 7.36 0 0 1-1.248-1.811l-3.758-7.72a7.36 7.36 0 0 1 .026-6.508z" class="E"/><path d="M225.028 340.81l-5.679 1.377c-1.648.62-6.475-.162-6.475-.162s-.615-23.82-1.78-32.132c-1.162-8.318-3.322-10.57-3.306-13.171.027-4.153.37-5.123 1.1-8.349.736-3.227-1.412-7.513-.683-6.693 1.176 1.323 5.579 3.376 9.688-1.175.708-.784 7.135 60.305 7.135 60.305z" class="F"/><path d="M209.26 272.024s-6.046 6.088-5.803 8.091-.372 10.413 1.013 19.364c1.39 8.95 2.505 11.171 2.733 17.702.228 6.538-1.285 7.995-.736 16.02a125.09 125.09 0 0 0 1.418 11.827s2.852.801 5.006-1.534 1.374-24.187.582-29.568c-.794-5.376-3.955-19.493-3.765-23.239s1.402-12.697 2.063-13.875c1.655-2.94-2.032-4.482-2.511-4.788z" fill="#d1dbea"/><path d="M209.236 271.46s.328.521.746.811c.789.544 1.776 1.612 1.776 1.612s-1.209-.579-1.671.464c-.569 1.283-.915 4.177-.915 4.177s-2.236-3.69-1.705-4.863c.963-2.122 1.769-2.201 1.769-2.201z" class="J"/><path d="M217.524 285.965c2.32 7.47 10.386 11.605 18.013 9.235s11.929-10.349 9.61-17.814c-2.321-7.47-10.387-11.604-18.012-9.233s-11.933 10.347-9.611 17.812z" class="N"/><path d="M168.592 395.867l-.454 14.082-2.87 3.381-7.646 4.408-5.67-1.029 9.996-7.445.73-14.779 5.914 1.382z" class="E"/><path d="M167.698 413.039l-2.567 1.834-.79-.626-8.514 4.671s-4.493 2.264-5.741.796c-.401-.471.103-2.015 1.54-3.083 1.14-.842 1.839-1.173 1.839-1.173s.294 1.101 2.846 1.521c.816.139 5.87-3.207 7.608-4.073 3.118-1.56 4.361-3.742 4.516-3.54.408.541-.737 3.673-.737 3.673z" class="P"/><path d="M228.598 321.615l-3.659 8.644-6.284.767-50.735 3.234s-4.539-1.403-7.427 5.766c-4.117 10.21 1.263 61.317 1.263 61.317l7.511-.116 4.055-48.185s48.763 8.534 62.809 4.218c5.39-1.652 9.504-11.172 8.735-20.786-.601-7.533-5.63-14.463-5.63-14.463l-10.638-.396z" class="G"/><path d="M221.696 339.761l-3.69-31.332c-1.337-10.071-1.041-26.961-1.347-29.379s-1.577-5.908-1.577-5.908 2.449-5.494 5.653-5.314c2.815.156 11.695 3.137 15.999 4.882 2.971 1.209 1.415 35.113 1.681 36.901.96 6.434 4.123 13.813 6.175 18.912 1.628 4.05 2.889 10.102 2.889 10.102s-16.242-1.916-25.783 1.136z" fill="#d1dbea"/><path d="M220.131 266.161l-2.386 2.692s-3.336 4.61-2.25 3.959c1.371-.819 2.951 3.991 2.951 3.991l4.434-9.102-2.749-1.54z" class="J"/><g class="E"><path d="M239.583 317.839s3.711 2.636-10.313 4.073c-14.025 1.447-34.943.407-34.943.407l32.074-6.075s8.846-1.793 13.182 1.595z"/><path d="M205.459 322.125c-6.65.872-9.088 4.273-11.591 5.555s-4.953 3.065-4.943 3.041c1.123-2.776 3.263-3.137 4.223-4.112s.736-.521-1.652-.373c-1.359.084-3.427 2.553-4.967 3.966-1.332 1.226-2.248 1.433-2.248 1.433s1.42-2.401 3.377-4.443c2.36-2.465 5.385-4.669 6.123-5.051 1.351-.691 5.777-1.413 8.997-1.443 3.635-.037 7.471.8 2.681 1.427z"/><path d="M194.152 322.217s-4.925 1.84-5.737 2.571c-.561.502-2.818 3.325-2.818 3.325s1.861-.529 2.833-1.612c.972-1.078 5.722-4.284 5.722-4.284z"/></g><path d="M231.285 313.866l-4.563-30.893s1.132-6.363 3.107-8.541c2.342-2.582 6.804-1.818 6.804-1.818s5.22 4.282 5.594 28.737c.256 16.741 1.789 23.62-5.422 24.349-6.733.681-14.414 1.096-14.414 1.096l-5.108-10.102 14.002-2.828z" class="J"/><g fill="#cdd5d7"><path d="M193.217 331.486h-44.265v-.91h44.265v.91z"/><path d="M173.681 330.523c-.003.703-.503 1.274-1.12 1.274h-22.7c-.618 0-1.457-.451-2.21-2.239l-11.222-20.491c0-.89.694-1.425 1.309-1.284l23.29.7c.62.146 1.123.622 1.473 1.554l11.18 20.486z"/></g><path d="M170.934 331.486h.228 22.163c-.794.42-2.121.696-3.623.696h-18.54-.228-18.535c-1.507 0-2.832-.276-3.627-.696h22.162z" fill="#b7bec0"/><path d="M655.153 377.69c2.067.285 4.403-1.417 4.904-1.891.512-.471-5.747-1.746-8.119-1.83-2.392-.081-4.289.249-4.266.719s5.403 2.705 7.481 3.002z" class="L"/><path d="M573.495 435.819c-.112-.156-.745.29-.517.573.145.174.779-.283.517-.573z" fill="#d4fffe"/><path d="M618.138 374.694l56.196.321c10.826.162 11.819-15.273 7.542-17.599-12.966-7.059-53.425-10.685-53.425-10.685l-27.518 25.272s1.545-.04 17.205 2.691z" class="G"/><path d="M656.369 291.957s10.422-2.917 14.959 10.695c6.962 20.893 6.35 40.047 5.377 44.133-.447 1.882-1.783 8.371-13.43 8.623-4.721.1-2.831-10.022-2.831-10.022s-3.034-8.594-6.259-23.14c-3.226-14.538 2.184-30.289 2.184-30.289z" class="K"/><path d="M664.615 293.13l-26.737-8.644-20.236-1.362-22.169 6.71s-7.257 5.003-.521 21.079c6.739 16.068 4.146 41.252 4.146 41.252l57.201 1.833s1.081-23.278 4.869-46.565c.845-5.199.951-11.314 3.447-14.303z" class="R"/><path d="M625.374 352.877h2.914c3.051-22.484 2.907-45.679-.447-68.076l-2.64 1.572c.736 22.907-.521 45.815.173 66.504z" class="K"/><path d="M636.737 290.783c-.393 3.095-2.919 5.773-5.571 5.899h-7.558c-2.657-.126-5.18-2.804-5.577-5.899l-1.853-15.295c-.416-3.052 1.401-9.191 5.424-11.002a14.42 14.42 0 0 1 11.57 0c4.018 1.811 5.838 7.95 5.426 11.002l-1.861 15.295z" class="O"/><g class="K"><path d="M627.085 297.065l-4.799 7.87-8.79-11 1.378-5.781 2.854-2.342.04 4.355 9.317 6.898zm.583 0l4.799 7.87 8.18-10.244-1.343-6.276-2.051-2.648-.832 5.14-8.753 6.158z"/></g><path d="M626.242 254.783c-2.119 0-3.981 1.086-5.058 2.734h-2.076c-2.587 0-4.685 2.095-4.685 4.686v11.572h3.299v-4.704a3.3 3.3 0 0 1 3.294-3.298h1.927-3.05 2.014c3.342 0 6.046-2.705 6.046-6.044v-4.946h-1.711z" class="F"/><path d="M620.401 278.087a2.87 2.87 0 0 1-2.869 2.868h-.24a2.87 2.87 0 0 1-2.869-2.868v-3.483a2.87 2.87 0 0 1 2.869-2.869h.24c1.171 0 2.179.707 2.625 1.71" class="O"/><path d="M623.676 259.382v-4.599h1.896 5.007 3.022a6.05 6.05 0 0 1 6.048 6.046v4.597h-1.903-5.001-3.027a6.05 6.05 0 0 1-6.042-6.044z" class="F"/><path d="M638.799 282.486c-.011 2.402-1.848 6.475-4.892 7.761a17.57 17.57 0 0 1-13.174-.001c-3.049-1.285-4.878-5.353-4.892-7.76v-20.474c-.017-2.418 2.397-4.454 5.376-4.511h12.205c2.978.056 5.395 2.09 5.377 4.511v20.474z" class="E"/><path d="M629.67 254.783c2.115 0 3.98 1.086 5.055 2.734h2.078c2.586 0 4.686 2.095 4.686 4.686v11.572h-3.295v-4.704c0-1.82-1.482-3.298-3.3-3.298h-.037 1.163-5.339a6.04 6.04 0 0 1-6.043-6.044v-4.946h5.032z" class="F"/><path d="M635.557 274.601a2.87 2.87 0 0 1 2.87-2.866h.235c1.589 0 2.871 1.284 2.871 2.866v3.486a2.87 2.87 0 0 1-2.871 2.868h-.235c-1.174 0-2.182-.702-2.629-1.709" class="E"/><path d="M624.633 260.57c.076-.388.118-.784.118-1.188v-4.599h-1.899-2.378c-3.347 0-6.051 2.708-6.051 6.046v4.597h1.26.643 2.382c.426 0 .837-.046 1.243-.129.469-2.367 2.32-4.239 4.682-4.727z" class="F"/><g class="P"><path d="M571.549 452.218c-.625.753-.169 2.745-.169 2.745s10.914 1.217 14.426.389c.914-.211 2.454-1 3.906-1.831.245-.138.677-.978.917-1.118.439-.262.668.175 1.045-.062l1.668-1.15c.955-5.005-.319-7.024-.319-7.024s-9.296-3.089-11.038-.935c-4.096 5.072-9.072 7.326-10.436 8.986zm102.005-5.447l.756 8.245 8.256.805s.57-1.095 1.265-1.032c.593.057 1.238 1.281 2.04 1.357l4.432.435 16.564 1.621s.54-1.667.14-2.294c-.203-.324-1.533-.987-2.426-1.335-4.149-1.615-15.985-6.55-17.711-10.831-2.094-5.207-13.316 3.029-13.316 3.029z"/></g><path d="M661.071 342.395l-27.907 11.399s19.797 2.825 32.172.3c8.371-1.705-3.883-12.063-4.265-11.699z" class="E"/><path d="M597.725 359.761s-2.687 25.481-2.303 38.956c.287 10.159.32 29.636-2.101 46.238-.15 1.015-13.131.248-13.131.248l-6.039-73.58c-1.386-10.408 2.639-17.917 23.574-11.862z" class="G"/><g class="Q"><path d="M679.37 365.903s-4.183 6.603-15.659 8.168c-4.149.566 6.687 73.954 6.687 73.954l16.951-5.426-3.276-81.161-4.703 4.465zm-46.769 8.168s-22.162 3.166-36.955 4.714c-5.424.568-10.12-14.616-10.749-15.273-3.959-4.15-7.867-3.623-7.731-3.77 3.206-3.468 19.799-6.683 37.144-10.749s19.989-1.507 19.989-1.507l-1.698 26.585z"/></g><path d="M614.31 348.993c-17.345 4.066-33.938 7.281-37.144 10.749-.136.147 3.772-.38 7.731 3.77.17.182 1.17 5.046 1.885 6.787-2.827-5.088 37.93-19.458 46.741-23.178-1.644-.526-6.438-1.123-19.213 1.872z" class="G"/><path d="M595.268 373.885l-1.698 49.589-1.697 11.501-.188-11.501.375-7.167-3.957-11.125-2.076-25.833 3.02 1.13-.38-11.31 6.601 4.716z" class="Q"/><path d="M678.794 359.742l4.151 1.132 1.509 59.584-8.674 21.305 4.149-14.52-1.699-29.977s-6.033 14.515-6.033 13.763 5.091-31.489 5.091-31.489-5.654 4.716-5.091 4.525 3.394-21.495 6.597-24.323z" class="G"/><path d="M607.723 290.078s-8.909-6.98-17.626 5.975c-12.773 18.983-18.316 39.179-20.349 45.024-1.554 4.481-.696 17.149 4.527 22.371 1.255 1.258 8.798.252 8.798.252l4.951-3.427-2.072-3.98-.111-3.151s6.331-15.271 14.106-29.709 7.776-33.355 7.776-33.355z" class="R"/><g class="E"><path d="M585.946 348.119l28.923 1.511s-27.86 12.78-28.781 10.578c-5.219-12.481-.142-12.089-.142-12.089z"/><path d="M601.856 347.231l1.542-.826s1.544 1.837 3.78 2.178c1.111.171 4.7.217 4.7.217l5.326.132 2.472-.141s1.394-.182 1.766.054c1.073.691.154 1.246.154 1.246l-9.548 1.354 9.176 1.133s1.151.342 1.204.968c.052.582-.333.566-.333.566l-10.658 1.136 4.673 1.115s1.118.361 1.203.966l.138.837-9.798-.959s-7.485-9.162-5.797-9.976z"/><path d="M612.437 353.134l6.413 1.17s1.464.103 2.115.572c.746.536.308 1.199.308 1.199l-9.836-.827 1-2.114z"/></g><path d="M652.649 358.176l.031-.058-.031-1.824h-56.987v1.824.058l.195.342c.97 1.584 2.712 1.863 4.708 1.863h47.185c1.993 0 3.734-.279 4.705-1.863l.194-.342z" fill="#b6c2c9"/><path d="M643.037 358.004h-37.733v-1.287h37.733v1.287z" fill="#879ba6"/><path d="M652.613 356.491l.156-37.359c.003-.987-.793-1.783-1.778-1.783h-53.339a1.79 1.79 0 0 0-1.792 1.783l-.153 37.359h56.906z" fill="#e4eef3"/><path d="M627.694 336.918c-.006 1.908-1.563 3.455-3.469 3.455s-3.445-1.547-3.437-3.455 1.559-3.452 3.468-3.452a3.44 3.44 0 0 1 3.438 3.452z" fill="#b6c2c9"/><path d="M582.192 362.567l-1.986-12.679 3.293-3.386 7.305 1.163-1.494 14.041-7.118.861z" class="K"/><path d="M670.873 353.47l.761-4.667-9.243-8.293-4.997 2.255 6.535 12.512 6.944-1.807z" class="R"/><circle vector-effect="non-scaling-stroke" cx="444.263" cy="166.093" r="14.399" class="D"/><use xlink:href="#B" class="I"/><path d="M442.206 172.388l-6.233-6.233 2.181-2.181 4.052 4.051 7.651-7.651 2.182 2.181-9.833 9.833z" class="S"/><path d="M444.263 170.332l7.776-7.777-2.182-2.181-5.594 5.594v4.364z" class="T"/><circle vector-effect="non-scaling-stroke" cx="444.263" cy="216.624" r="14.399" class="D"/><path d="M444.263 202.225v28.798c7.952 0 14.399-6.447 14.399-14.399s-6.447-14.399-14.399-14.399z" class="I"/><path d="M442.206 222.92l-6.233-6.234 2.181-2.181 4.052 4.051 7.651-7.651 2.182 2.182-9.833 9.833z" class="S"/><path d="M444.263 220.863l7.776-7.776-2.182-2.182-5.594 5.594v4.364z" class="T"/><circle vector-effect="non-scaling-stroke" cx="444.263" cy="264.02" r="14.399" class="D"/><path d="M444.263 249.621v28.798c7.952 0 14.399-6.447 14.399-14.399s-6.447-14.399-14.399-14.399z" class="I"/><path d="M442.206 270.316l-6.233-6.233 2.181-2.182 4.052 4.051 7.651-7.651 2.182 2.182-9.833 9.833z" class="S"/><path d="M444.263 268.259l7.776-7.776-2.182-2.182-5.594 5.594v4.364z" class="T"/><circle vector-effect="non-scaling-stroke" cx="473.244" cy="458.941" r="7.345" fill="#f9ba48"/><g fill="#333"><path d="M467.735 475.467c-2.025 0-3.672 1.647-3.672 3.673s1.647 3.672 3.672 3.672a3.68 3.68 0 0 0 3.673-3.672 3.68 3.68 0 0 0-3.673-3.673zm0 5.509a1.84 1.84 0 0 1-1.836-1.836 1.84 1.84 0 0 1 1.836-1.836 1.84 1.84 0 0 1 1.836 1.836 1.84 1.84 0 0 1-1.836 1.836zm27.146-14.114a3.07 3.07 0 0 0-2.818-.351l-.106.039-9.931-24.378-25.048 8.946-5.157-12.376h-9.793a2.76 2.76 0 0 0-2.755 2.754 2.76 2.76 0 0 0 2.755 2.755h5.821l12.982 30.361c-.857 1.302-1.359 2.856-1.359 4.528 0 4.557 3.708 8.263 8.263 8.263s8.263-3.706 8.263-8.263c0-.091-.011-.18-.013-.27l18.198-6.617a3.07 3.07 0 0 0 2.014-2.877 3.06 3.06 0 0 0-1.316-2.514zm-24.783-18.48l2.838 6.388-2.884 1.154-2.887-6.494 2.933-1.048zm-4.667 1.667l3.66 8.236 6.297-2.518-3.557-8.003 9.158-3.271 9.249 22.703-16.564 6.212c-1.504-1.558-3.608-2.531-5.939-2.531-.827 0-1.624.126-2.378.352l-7.673-18.414 7.747-2.766zm-23.403-7.634a.92.92 0 0 1-.918-.919.92.92 0 0 1 .918-.918h8.568l13.074 31.376c-.546.31-1.049.682-1.508 1.102l-13.101-30.641h-7.033zm25.707 43.152c-3.544 0-6.427-2.884-6.427-6.427s2.883-6.427 6.427-6.427 6.427 2.883 6.427 6.427-2.883 6.427-6.427 6.427zm25.821-15.04l-17.844 6.488a8.19 8.19 0 0 0-.877-2.082l17.873-6.702c.382-.145.791-.093 1.127.139a1.21 1.21 0 0 1 .526 1.006 1.23 1.23 0 0 1-.805 1.151z"/></g><path d="M144.567 439.597h-17.25a2.14 2.14 0 0 0-1.686.992l-1.882 3.387h20.818v-4.379z" class="H"/><path d="M144.567 443.514h-20.9c-5.473 0-9.951 4.478-9.951 9.951v25.947h30.851v-35.898z" fill="#ff9e16"/><path d="M111.062 480.758a2.22 2.22 0 0 0 2.212 2.212h9.583a2.22 2.22 0 0 0 2.211-2.212v-2.911a2.22 2.22 0 0 0-2.211-2.212h-9.583a2.22 2.22 0 0 0-2.212 2.212v2.911z" class="H"/><path d="M144.567 479.412h62.408v-45.925c0-2.432-1.99-4.422-4.422-4.422H148.99c-2.433 0-4.423 1.99-4.423 4.422v45.925h0z" fill="#0071ce"/><circle vector-effect="non-scaling-stroke" cx="186.607" cy="479.412" r="9.951" class="H"/><circle vector-effect="non-scaling-stroke" cx="186.607" cy="479.412" r="4.533" class="B"/><circle vector-effect="non-scaling-stroke" cx="144.568" cy="479.412" r="9.951" class="H"/><g class="B"><circle vector-effect="non-scaling-stroke" cx="144.566" cy="479.412" r="4.533"/><path d="M120.573 456.874a2.22 2.22 0 0 0 2.211 2.212h14.375a2.22 2.22 0 0 0 2.211-2.212v-6.173a2.22 2.22 0 0 0-2.211-2.211h-14.375a2.22 2.22 0 0 0-2.211 2.211v6.173h0zm-1.918 18.761h2.119a1.11 1.11 0 0 0 1.105-1.106v-3.538a1.11 1.11 0 0 0-1.105-1.106h-2.119v5.75z"/></g><path d="M113.715 469.885h5.307v5.75h-5.307z" fill="#4bb6aa"/><path d="M202.037 475.635h-2.119a1.11 1.11 0 0 1-1.105-1.106v-3.538a1.11 1.11 0 0 1 1.105-1.106h2.119v5.75z" class="B"/><path d="M201.668 469.885h5.307v5.75h-5.307z" fill="#4bb6aa"/><path d="M200.404 480.758a2.22 2.22 0 0 0 2.212 2.212h5.245a2.22 2.22 0 0 0 2.211-2.212v-2.911a2.22 2.22 0 0 0-2.211-2.212h-5.245a2.22 2.22 0 0 0-2.212 2.212v2.911z" class="H"/><path d="M144.567 438.836l62.408 17.135v9.737l-62.408-17.135v-9.737z" fill="#0055b8"/></g></svg>