<svg xmlns="http://www.w3.org/2000/svg" viewBox="0 0 800 550" width="1066.667" height="733.333" xmlns:v="https://vecta.io/nano"><style><![CDATA[.B{fill:#ba7b46}.C{fill:#dba664}.D{fill:#face8c}.E{fill:#fbd8a3}.F{fill:#daa569}.G{fill:#fea500}.H{fill:#fdc029}.I{fill:#995c2d}.J{fill:#0072d3}.K{fill:#f1b287}.L{fill:#ce9a5b}.M{fill:#b57c41}.N{fill-rule:evenodd}.O{fill:#cfa16a}.P{fill:#042e5e}.Q{fill:#b47b44}.R{fill:#e8a476}.S{fill:#e8b66a}.T{fill:#e67300}.U{fill:#0a4c96}.V{fill:#db9669}.W{fill:#e4e7eb}.X{fill:#ff8500}.Y{fill:#4a4e67}.Z{fill:#242736}.a{fill:#333647}.b{fill:#d8d8e6}.c{fill:#9c9ca8}.d{fill:#c4c4cc}.e{fill:#eba06f}.f{fill:#ab6f48}.g{fill:#642e40}]]></style><defs><clipPath id="A"><path d="M0 0h8e2v550H0z"/></clipPath></defs><g clip-path="url(#A)"><g class="N"><path d="M448.325 313.947l-51.312 31.179-110.487-65.471 51.34-30.037 110.459 64.329z" class="W"/><path d="M340.663 89.055l-.866 1.01-3.801 2.03-4.696-3.038 4.667-2.714 4.696 2.712z" class="Y"/><path d="M340.663 89.055l-.015 167.644-4.666 2.712-.226-1.963.24-165.681 4.667-2.712z" class="Z"/><path d="M335.996 91.767l-.014 167.644-4.698-2.712.016-167.642 4.696 2.71z" class="a"/><path d="M301.412 112.089l-.868 1.01-3.801 2.028-4.695-3.037 4.666-2.714 4.698 2.713z" class="Y"/><path d="M301.412 112.089l-.017 167.644-4.666 2.712-.224-1.963.238-165.681 4.669-2.712z" class="Z"/><path d="M296.743 114.801l-.014 167.644-4.698-2.712.017-167.643 4.695 2.711z" class="a"/><path d="M434.231 284.85l-12.399 10.883-31.16 15.586-93.791-55.578 43.583-25.499 93.767 54.608z" class="b"/><path d="M434.231 284.85l.017 5.564-43.362 25.809-.926-1.569-1.802.013 2.477-4.333 43.596-25.484z" class="c"/><path d="M390.635 310.334l.252 5.889-94.002-54.758-.004-5.724 93.754 54.593z" class="d"/><path d="M358.321 233.46l-4.781 5.574-20.967 11.193-25.902-16.761 25.74-14.966 25.91 14.96z" class="D"/><path d="M358.321 233.46l-.089 24.532-25.739 14.958-1.237-10.834 1.317-13.698 25.748-14.958z" class="B"/><path d="M332.573 248.418l-.08 24.532-25.91-14.958.088-24.526 25.902 14.952z" class="C"/><path d="M343.378 254.236l.089-12.167 3.344-1.913-.029 12.103-3.404 1.977z" class="F"/><path d="M345.047 241.165l.468-.267-.082 12.145-.412.24.026-12.118z" class="B"/><path d="M343.467 242.069L319.04 226.29l3.286-1.939 24.484 15.805-3.343 1.913z" class="E"/><path d="M320.554 225.396l.504-.297 24.457 15.798-.465.267-24.496-15.768z" class="C"/><path d="M384.889 248.666l-4.782 5.574-20.966 11.194-25.903-16.762 25.741-14.965 25.91 14.959z" class="D"/><path d="M384.889 248.666l-.09 24.531-25.738 14.96-1.238-10.835 1.318-13.697 25.748-14.959z" class="B"/><path d="M359.141 263.625l-.08 24.532-25.91-14.96.087-24.525 25.903 14.953z" class="C"/><path d="M369.945 269.443l.088-12.166 3.345-1.914-.028 12.102-3.405 1.978z" class="F"/><path d="M371.614 256.372l.469-.268-.082 12.145-.413.24.026-12.117z" class="B"/><path d="M370.033 257.277l-24.425-15.781 3.286-1.938 24.484 15.805-3.345 1.914z" class="E"/><path d="M347.122 240.603l.503-.297 24.458 15.798-.465.267-24.496-15.768z" class="C"/><path d="M359.793 263.872l5.154 6.067 10.175 4.806 26.019-16.836-15.293-8.918-26.055 14.881z" class="D"/><path d="M359.793 263.872l.089 24.643 15.321 9.056 1.243-10.884-1.324-13.758-15.329-9.057z" class="C"/><path d="M375.122 272.929l.081 24.642 26.026-15.027-.088-24.635-26.019 15.02z" class="B"/><path d="M368.409 281.15l-.088-12.221-3.361-1.921.03 12.156 3.419 1.986z" class="S"/><path d="M366.733 268.021l-.469-.27.081 12.2.413.24-.025-12.17z" class="B"/><path d="M368.321 268.929l24.535-15.851-3.302-1.948-24.594 15.878 3.361 1.921z" class="E"/><path d="M391.335 252.18l-.505-.298-24.568 15.869.468.267 24.605-15.838z" class="C"/><path d="M434.231 242.209l-12.399 10.883-31.16 15.587-93.791-55.578 43.583-25.499 93.767 54.607z" class="b"/><path d="M434.231 242.209l.017 5.564-43.362 25.809-.926-1.569-1.802.013 2.477-4.333 43.596-25.484z" class="c"/><path d="M390.635 267.693l.251 5.889-94.001-54.759-.004-5.722 93.754 54.592z" class="d"/><path d="M355.883 189.905l-4.781 5.574-20.965 11.194-25.903-16.762 25.741-14.966 25.908 14.96z" class="D"/><path d="M355.883 189.905l-.088 24.532-25.739 14.959-1.237-10.835 1.318-13.696 25.746-14.96z" class="B"/><path d="M330.137 204.865l-.081 24.531-25.91-14.959.088-24.526 25.903 14.954z" class="C"/><path d="M340.942 210.682l.087-12.166 3.346-1.914-.03 12.102-3.403 1.978z" class="F"/><path d="M342.61 197.612l.468-.269-.08 12.145-.414.241.026-12.117z" class="B"/><path d="M341.029 198.516l-24.426-15.78 3.288-1.939 24.484 15.805-3.346 1.914z" class="E"/><path d="M318.118 181.842l.503-.296 24.457 15.797-.465.267-24.495-15.768z" class="C"/><path d="M382.451 205.112l-4.781 5.574-20.965 11.193-25.903-16.76 25.741-14.967 25.908 14.96z" class="D"/><path d="M382.451 205.112l-.088 24.532-25.74 14.959-1.236-10.835 1.318-13.698 25.746-14.958z" class="B"/><path d="M356.705 220.07l-.082 24.533-25.909-14.959.088-24.525 25.903 14.951z" class="C"/><path d="M367.51 225.888l.087-12.166 3.346-1.913-.03 12.102-3.403 1.977z" class="F"/><path d="M369.178 212.819l.467-.269-.081 12.145-.412.24.026-12.116z" class="B"/><path d="M367.597 213.722l-24.426-15.78 3.288-1.939 24.484 15.806-3.346 1.913z" class="E"/><path d="M344.686 197.048l.502-.295 24.458 15.797-.465.266-24.495-15.768z" class="C"/><path d="M357.356 220.317l5.155 6.069 10.175 4.804 26.019-16.836-15.294-8.917-26.055 14.88z" class="D"/><path d="M357.356 220.317l.09 24.643 15.321 9.057 1.242-10.884-1.323-13.759-15.33-9.057z" class="C"/><path d="M372.686 229.374l.081 24.643 26.025-15.027-.087-24.636-26.019 15.02z" class="B"/><path d="M365.972 237.595l-.087-12.221-3.361-1.921.029 12.156 3.419 1.986z" class="S"/><path d="M364.297 224.466l-.47-.268.081 12.199.415.241-.026-12.172z" class="B"/><path d="M365.885 225.374l24.534-15.851-3.302-1.947-24.593 15.877 3.361 1.921z" class="E"/><path d="M388.899 208.625l-.506-.296-24.566 15.869.466.267 24.606-15.84z" class="C"/><path d="M434.231 199.569l-12.399 10.882-31.16 15.587-93.791-55.577 43.583-25.5 93.767 54.608z" class="b"/><path d="M434.231 199.569l.017 5.562-43.362 25.809-.926-1.567-1.802.013 2.477-4.335 43.596-25.482z" class="c"/><path d="M390.635 225.051l.252 5.889-94.002-54.756-.004-5.723 93.754 54.59z" class="d"/><path d="M354.666 146.96l-4.782 5.574-20.965 11.194-25.904-16.761L328.757 132l25.909 14.96z" class="D"/><path d="M354.666 146.96l-.09 24.532-25.739 14.959-1.237-10.835 1.319-13.696 25.747-14.96z" class="B"/><path d="M328.919 161.92l-.082 24.531-25.908-14.959.086-24.525 25.904 14.953z" class="C"/><path d="M339.723 167.738l.088-12.168 3.345-1.913-.029 12.102-3.404 1.979z" class="F"/><path d="M341.391 154.665l.468-.267-.08 12.145-.412.24.024-12.118z" class="B"/><path d="M339.811 155.57l-24.426-15.78 3.287-1.938 24.484 15.805-3.345 1.913z" class="E"/><path d="M316.9 138.897l.502-.296 24.458 15.797-.465.266-24.495-15.767z" class="C"/><path d="M381.234 162.166l-4.783 5.575-20.965 11.193-25.903-16.76 25.742-14.966 25.909 14.958z" class="D"/><path d="M381.234 162.166l-.09 24.533-25.739 14.958-1.237-10.834 1.318-13.697 25.748-14.96z" class="B"/><path d="M355.486 177.126l-.081 24.531-25.908-14.958.086-24.525 25.903 14.952z" class="C"/><path d="M366.291 182.943l.088-12.166 3.345-1.912-.029 12.101-3.404 1.977z" class="F"/><path d="M367.959 169.872l.468-.268-.08 12.146-.414.24.026-12.118z" class="B"/><path d="M366.379 170.777l-24.426-15.78 3.287-1.939 24.484 15.807-3.345 1.912z" class="E"/><path d="M343.468 154.103l.502-.297 24.458 15.798-.466.267-24.494-15.768z" class="C"/><path d="M356.138 177.373l5.155 6.066 10.174 4.807 26.019-16.836-15.293-8.918-26.055 14.881z" class="D"/><path d="M356.138 177.373l.09 24.642 15.321 9.056 1.242-10.883-1.324-13.759-15.329-9.056z" class="C"/><path d="M371.467 186.429l.082 24.642 26.025-15.026-.088-24.635-26.019 15.019z" class="B"/><path d="M364.754 194.651l-.088-12.222-3.36-1.921.03 12.156 3.418 1.987z" class="S"/><path d="M363.078 181.521l-.469-.268.08 12.199.415.241-.026-12.172z" class="B"/><path d="M364.666 182.429l24.536-15.851-3.302-1.947-24.594 15.877 3.36 1.921z" class="E"/><path d="M387.681 165.682l-.505-.3-24.568 15.869.468.269 24.605-15.838z" class="C"/><path d="M434.231 156.928l-12.399 10.883-31.16 15.587-93.791-55.578 43.583-25.499 93.767 54.607z" class="b"/><path d="M434.231 156.928l.017 5.563-43.361 25.809-.927-1.568-1.802.013 2.477-4.334 43.596-25.483z" class="c"/><path d="M390.635 182.411l.252 5.889-94.002-54.757-.004-5.723 93.754 54.591z" class="d"/><path d="M353.447 104.015l-4.782 5.574-20.965 11.193-25.902-16.76 25.741-14.966 25.908 14.959z" class="D"/><path d="M353.447 104.015l-.089 24.532-25.738 14.958-1.238-10.834 1.318-13.696 25.747-14.96z" class="B"/><path d="M327.7 118.975l-.08 24.531-25.909-14.959.087-24.525 25.902 14.953z" class="C"/><path d="M338.505 124.793l.087-12.168 3.346-1.913-.029 12.102-3.404 1.979z" class="F"/><path d="M340.174 111.721l.467-.268-.08 12.145-.415.24.028-12.117z" class="B"/><path d="M338.592 112.625l-24.424-15.78 3.286-1.938 24.484 15.805-3.346 1.913z" class="E"/><path d="M315.681 95.952l.504-.296 24.456 15.797-.465.267-24.495-15.768z" class="C"/><path d="M380.015 119.222l-4.782 5.573-20.965 11.194-25.902-16.76 25.74-14.966 25.909 14.959z" class="D"/><path d="M380.015 119.222l-.089 24.531-25.738 14.959-1.238-10.835 1.318-13.696 25.747-14.959z" class="B"/><path d="M354.268 134.181l-.08 24.531-25.909-14.959.087-24.524 25.902 14.952z" class="C"/><path d="M365.073 139.998l.087-12.166 3.346-1.912-.03 12.102-3.403 1.976z" class="F"/><path d="M366.742 126.928l.467-.267-.081 12.143-.414.241.028-12.117z" class="B"/><path d="M365.16 127.832l-24.426-15.78 3.288-1.939 24.484 15.807-3.346 1.912z" class="E"/><path d="M342.249 111.158l.504-.296 24.456 15.799-.465.265-24.495-15.768z" class="C"/><path d="M354.921 134.427l5.153 6.068 10.176 4.806 26.018-16.837-15.293-8.918-26.054 14.881z" class="D"/><path d="M354.921 134.427l.088 24.642 15.321 9.057 1.244-10.883-1.324-13.759-15.329-9.057z" class="C"/><path d="M370.25 143.484l.08 24.642 26.026-15.027-.088-24.635-26.018 15.02z" class="B"/><path d="M363.535 151.705l-.086-12.221-3.362-1.921.03 12.156 3.418 1.986z" class="S"/><path d="M361.86 138.576l-.47-.268.082 12.199.414.241-.026-12.172z" class="B"/><path d="M363.449 139.484l24.535-15.851-3.302-1.947-24.595 15.877 3.362 1.921z" class="E"/><path d="M386.462 122.736l-.505-.297-24.567 15.869.467.267 24.605-15.839z" class="C"/><path d="M372.559 140.768l5.939 6.99 11.722 5.538 29.978-19.398-19.138-11.185-28.501 18.055z" class="D"/><path d="M372.559 140.768l.103 28.392 17.651 10.436 1.433-12.541-1.526-15.851-17.661-10.436z" class="C"/><path d="M390.22 151.204l.093 28.392 29.986-17.314-.101-28.384-29.978 17.306z" class="B"/><path d="M382.485 160.676l-.101-14.083-3.872-2.212.035 14.006 3.938 2.289z" class="S"/><path d="M380.555 145.548l-.542-.31.094 14.056.478.277-.03-14.023z" class="B"/><path d="M382.384 146.593l28.269-18.261-3.804-2.244-28.337 18.293 3.872 2.212z" class="E"/><path d="M408.9 127.298l-.581-.343-28.306 18.283.538.309 28.349-18.249z" class="C"/><path d="M439.384 146.886l-.868 1.011-3.8 2.028-4.695-3.037 4.666-2.713 4.697 2.711z" class="Y"/><path d="M439.384 146.886l-.017 167.646-4.666 2.711-.224-1.965.239-165.68 4.668-2.712z" class="Z"/><path d="M434.716 149.598l-.015 167.645-4.697-2.711.017-167.644 4.695 2.71z" class="a"/><path d="M400.131 169.92l-.866 1.011-3.801 2.028-4.696-3.039 4.666-2.712 4.697 2.712z" class="Y"/><path d="M400.131 169.92l-.015 167.645-4.666 2.711-.224-1.964.238-165.68 4.667-2.712z" class="Z"/><path d="M395.464 172.632l-.014 167.644-4.698-2.711.016-167.645 4.696 2.712z" class="a"/></g><path d="M354.835 133.852l-5.152-3.025 14.504-3.624.973.629v.02l-10.325 6z" class="L"/><path d="M355.374 134.168l-.539-.316 10.325-6-.005.73-9.781 5.586zm13.129-7.5l.002-.542 1.69-.423-1.692.965z" class="I"/><path d="M365.155 128.582l.005-.73v-.02l1.699-.972-.117.068-.002.748-1.585.906zm2.049-1.17l.005-.751h0l.657-.376.639-.159-.002.542-1.299.744z" class="Q"/><path d="M366.74 127.676l.002-.748.117-.068.249-.142.101-.057-.005.751-.464.264z" class="I"/><path d="M365.16 127.832h0l-.973-.629 2.153-.537.404.26.364-.208-.249.142-1.699.972zm2.049-1.171l-.236-.153.893-.223-.657.376z" class="O"/><path d="M366.744 126.926l-.404-.26.633-.158.236.153h0l-.101.057-.364.208z" class="M"/><path d="M365.889 140.342l-1.974-1.16 21.442-13.852 2.614 1.749-22.082 13.263zm-5.293-3.108l-5.222-3.066 9.781-5.586 1.585-.906.464-.264 1.299-.744 1.692-.965 11.445-2.859.613.41-21.657 13.98z" class="L"/><path d="M363.915 139.182l-1.57-.922 21.577-13.89 1.435.96-21.442 13.852zm-2.033-1.193l-1.286-.755 21.657-13.98 1.2.803-21.571 13.932z" class="O"/><path d="M362.345 138.26l-.463-.271 21.571-13.932.469.313-21.577 13.89z" class="M"/><g class="N"><path d="M344.581 106.913l4.377 5.153 8.642 4.081 22.097-14.298-14.107-8.245-21.009 13.309z" class="D"/><path d="M344.581 106.913l.075 20.928 13.012 7.692 1.055-9.243-1.123-11.685-13.019-7.692z" class="C"/><path d="M357.6 114.605l.068 20.928 22.104-12.761-.075-20.923-22.097 12.756z" class="B"/><path d="M351.899 121.588l-.076-10.381-2.853-1.631.024 10.325 2.905 1.687z" class="S"/><path d="M350.475 110.436l-.399-.228.069 10.362.352.203-.022-10.337z" class="B"/><path d="M351.823 111.207l20.837-13.461-2.803-1.654-20.887 13.484 2.853 1.631z" class="E"/><path d="M371.369 96.983l-.429-.252-20.865 13.477.397.227 20.897-13.452z" class="C"/></g><path d="M392.584 149.839l-7.568-4.945 16.666-10.768 7.979-1.992 6.298 4.213-23.375 13.492z" class="L"/><path d="M392.701 160.939l-.086-11.08-.031-.02 23.375-13.492.034.022-.086 10.609-23.206 13.961z" class="I"/><path d="M381.389 142.523l-3.684-2.407 12.094-3.021-8.41 5.428z" class="L"/><path d="M385.016 144.894l-1.712-1.119 12.837-8.264 5.541-1.385-16.666 10.768zm-2.223-1.452l-1.404-.919 8.41-5.428 4.599-1.149-11.605 7.496z" class="O"/><path d="M383.304 143.775l-.511-.333 11.605-7.496 1.743-.435-12.837 8.264z" class="M"/><g class="N"><path d="M376.688 119.034l4.378 5.154 8.641 4.082 22.099-14.299-14.107-8.246-21.011 13.309z" class="D"/><path d="M376.688 119.034l.076 20.929 13.012 7.691 1.055-9.242-1.124-11.685-13.019-7.693z" class="C"/><path d="M389.707 126.727l.069 20.927 22.104-12.761-.074-20.922-22.099 12.756z" class="B"/><path d="M384.006 133.709l-.075-10.38-2.854-1.632.026 10.325 2.903 1.687z" class="S"/><path d="M382.582 122.558l-.398-.228.069 10.36.352.206-.023-10.338z" class="B"/><path d="M383.931 123.329l20.838-13.462-2.805-1.654-20.887 13.484 2.854 1.632z" class="E"/><path d="M403.477 109.105l-.428-.253-20.866 13.478.397.227 20.897-13.452z" class="C"/><path d="M372.811 360.403l-96.39 57.518-143.443-83.759c39.203-20.693 63.484-36.702 102.802-56.941l137.031 83.182z" class="W"/><path d="M241.769 247.734l-7.3 8.51-32.005 17.086-39.539-25.585 39.294-22.847 39.55 22.836z" class="D"/><path d="M241.769 247.734l-.135 37.449-39.292 22.836-1.889-16.54 2.011-20.909 39.305-22.836z" class="B"/><path d="M202.464 270.57l-.122 37.449-39.551-22.836.134-37.438 39.539 22.825z" class="C"/><path d="M218.959 279.45l.133-18.572 5.107-2.92-.044 18.474-5.196 3.018z" class="F"/><path d="M221.505 259.498l.714-.409-.123 18.539-.631.366.04-18.496z" class="B"/><path d="M219.092 260.878l-37.286-24.089 5.018-2.958 37.375 24.127-5.107 2.92z" class="E"/><path d="M184.118 235.426l.768-.453 37.335 24.116-.712.407-37.391-24.07z" class="C"/><path d="M283.173 272.025l-7.3 8.51-32.003 17.086-39.541-25.586 39.295-22.846 39.549 22.836z" class="D"/><path d="M283.173 272.025l-.136 37.448-39.29 22.836-1.889-16.54 2.012-20.908 39.303-22.836z" class="B"/><path d="M243.87 294.861l-.123 37.448-39.551-22.836.133-37.438 39.541 22.826z" class="C"/><path d="M260.365 303.741l.132-18.572 5.108-2.92-.046 18.474-5.194 3.018z" class="F"/><path d="M262.911 283.789l.713-.408-.123 18.539-.63.365.04-18.496z" class="B"/><path d="M260.497 285.169l-37.285-24.089 5.017-2.959 37.376 24.128-5.108 2.92z" class="E"/><path d="M225.524 259.716l.767-.452 37.334 24.116-.71.406-37.391-24.07z" class="C"/><path d="M324.579 296.316l-7.3 8.509-32.005 17.087-39.54-25.586 39.294-22.846 39.551 22.836z" class="D"/><path d="M324.579 296.316l-.136 37.448-39.292 22.836-1.888-16.539 2.011-20.909 39.305-22.836z" class="B"/><path d="M285.274 319.152l-.123 37.448-39.551-22.836.134-37.438 39.54 22.826z" class="C"/><path d="M301.769 328.033l.132-18.574 5.108-2.92-.045 18.474-5.195 3.02z" class="F"/><path d="M304.315 308.08l.715-.41-.125 18.539-.629.367.039-18.496z" class="B"/><path d="M301.901 309.459l-37.285-24.088 5.017-2.959 37.376 24.127-5.108 2.92z" class="E"/><path d="M266.927 284.008l.768-.454 37.335 24.116-.71.407-37.393-24.069z" class="C"/><path d="M365.982 320.606l-7.298 8.51-32.005 17.087-39.54-25.586 39.294-22.845 39.549 22.834z" class="D"/><path d="M365.982 320.606l-.134 37.449-39.292 22.836-1.889-16.54 2.012-20.909 39.303-22.836z" class="B"/><path d="M326.679 343.442l-.123 37.449-39.551-22.836.134-37.438 39.54 22.825z" class="C"/><path d="M343.174 352.322l.133-18.572 5.107-2.92-.046 18.475-5.194 3.017z" class="F"/><path d="M345.721 332.37l.713-.408-.123 18.539-.631.367.041-18.498z" class="B"/><path d="M343.307 333.75l-37.286-24.089 5.018-2.959 37.375 24.128-5.107 2.92z" class="E"/><path d="M308.333 308.298l.767-.453 37.334 24.116-.709.407-37.392-24.07z" class="C"/><path d="M271.691 228.506l-7.182 8.373-31.491 16.812-38.904-25.174 38.662-22.479 38.915 22.468z" class="D"/><path d="M271.691 228.506l-.134 36.846-38.66 22.47-1.858-16.274 1.979-20.572 38.673-22.47z" class="B"/><path d="M233.018 250.976l-.121 36.846-38.914-22.47.131-36.835 38.904 22.459z" class="C"/><path d="M249.248 259.713l.131-18.274 5.024-2.874-.044 18.178-5.111 2.97z" class="F"/><path d="M251.752 240.081l.704-.402-.122 18.24-.62.362.038-18.2z" class="B"/><path d="M249.379 241.439l-36.686-23.702 4.937-2.912 36.773 23.74-5.024 2.874z" class="E"/><path d="M214.967 216.397l.756-.446 36.733 23.728-.698.399-36.791-23.681z" class="C"/><path d="M312.429 252.407l-7.182 8.372-31.49 16.813-38.905-25.175 38.664-22.479 38.913 22.469z" class="D"/><path d="M312.429 252.407l-.133 36.846-38.66 22.468-1.859-16.273 1.98-20.573 38.672-22.468z" class="B"/><path d="M273.757 274.875l-.121 36.846-38.915-22.468.131-36.836 38.905 22.458z" class="C"/><path d="M289.986 283.613l.131-18.275 5.025-2.872-.043 18.178-5.113 2.969z" class="F"/><path d="M292.493 263.982l.702-.403-.122 18.241-.621.361.041-18.199z" class="B"/><path d="M290.117 265.338l-36.686-23.7 4.937-2.912 36.774 23.74-5.025 2.872z" class="E"/><path d="M255.706 240.296l.755-.446 36.734 23.729-.699.399-36.79-23.682z" class="C"/><path d="M353.168 276.306l-7.182 8.373-31.489 16.812-38.906-25.174 38.662-22.479 38.915 22.468z" class="D"/><path d="M353.168 276.306l-.133 36.846-38.66 22.47-1.858-16.275 1.98-20.571 38.671-22.47z" class="B"/><path d="M314.496 298.776l-.121 36.846-38.915-22.47.131-36.835 38.905 22.459z" class="C"/><path d="M330.726 307.513l.13-18.274 5.026-2.874-.044 18.178-5.112 2.97z" class="F"/><path d="M333.231 287.881l.702-.401-.121 18.241-.621.36.04-18.2z" class="B"/><path d="M330.856 289.239l-36.686-23.701 4.937-2.911 36.775 23.738-5.026 2.874z" class="E"/><path d="M296.445 264.197l.755-.446 36.735 23.729-.7.399-36.79-23.682z" class="C"/><path d="M270.672 189.835l-7.182 8.372-31.489 16.813-38.904-25.176 38.662-22.478 38.913 22.469z" class="D"/><path d="M270.672 189.835l-.133 36.846-38.66 22.468-1.857-16.273 1.979-20.573 38.671-22.468z" class="B"/><path d="M232.001 212.303l-.122 36.846-38.915-22.469.133-36.836 38.904 22.459z" class="C"/><path d="M248.23 221.041l.131-18.275 5.024-2.873-.043 18.179-5.112 2.969z" class="F"/><path d="M250.736 201.408l.702-.401-.121 18.24-.62.361.039-18.2z" class="B"/><path d="M248.361 202.766l-36.687-23.7 4.937-2.913 36.774 23.74-5.024 2.873z" class="E"/><path d="M213.949 177.724l.755-.446 36.735 23.729-.7.399-36.79-23.682z" class="C"/><path d="M311.412 213.734l-7.183 8.373-31.49 16.812-38.904-25.174 38.663-22.479 38.914 22.468z" class="D"/><path d="M311.412 213.734l-.134 36.846-38.66 22.468-1.858-16.272 1.979-20.574 38.673-22.468z" class="B"/><path d="M272.739 236.202l-.121 36.846-38.915-22.468.132-36.835 38.904 22.457z" class="C"/><path d="M288.968 244.941l.132-18.274 5.025-2.874-.044 18.178-5.113 2.97z" class="F"/><path d="M291.474 225.309l.704-.401-.122 18.239-.621.36.039-18.198z" class="B"/><path d="M289.1 226.667l-36.686-23.701 4.936-2.913 36.775 23.74-5.025 2.874z" class="E"/><path d="M254.688 201.623l.755-.444 36.735 23.729-.7.399-36.79-23.684z" class="C"/><path d="M352.15 237.635l-7.181 8.371-31.49 16.812-38.905-25.172 38.662-22.479 38.914 22.468z" class="D"/><path d="M352.15 237.635l-.132 36.845-38.66 22.469-1.859-16.273 1.98-20.573 38.671-22.468z" class="B"/><path d="M313.479 260.103l-.121 36.846-38.915-22.469.131-36.834 38.905 22.457z" class="C"/><path d="M329.708 268.841l.131-18.275 5.025-2.872-.044 18.176-5.112 2.971z" class="F"/><path d="M332.213 249.209l.702-.402-.12 18.241-.621.36.039-18.199z" class="B"/><path d="M329.839 250.566l-36.687-23.701 4.937-2.911 36.775 23.74-5.025 2.872z" class="E"/><path d="M295.428 225.524l.755-.445 36.734 23.728-.7.4-36.789-23.683z" class="C"/><path d="M226.63 293.848l-8.022 9.354-35.182 18.781-43.463-28.123 43.194-25.114 43.473 25.102z" class="D"/><path d="M226.63 293.848l-.149 41.164-43.19 25.101-2.075-18.18 2.21-22.984 43.204-25.101z" class="B"/><path d="M183.426 318.949l-.135 41.164-43.474-25.101.146-41.152 43.463 25.089z" class="C"/><path d="M201.558 328.711l.145-20.415 5.615-3.21-.049 20.307-5.711 3.318z" class="F"/><path d="M204.356 306.779l.786-.448-.136 20.377-.692.403.042-20.332z" class="B"/><path d="M201.703 308.296l-40.983-26.479 5.515-3.253 41.083 26.522-5.615 3.21z" class="E"/><path d="M163.26 280.318l.845-.497 41.038 26.508-.781.447-41.102-26.458z" class="C"/><path d="M136.171 249.223l8.611 10.135 16.996 8.029 43.463-28.125-27.747-16.216-41.323 26.177z" class="D"/><path d="M136.171 249.223l.151 41.164 25.592 15.129 2.076-18.18-2.212-22.984-25.607-15.129z" class="C"/><path d="M161.778 264.352l.136 41.164 43.474-25.102-.147-41.152-43.463 25.09z" class="B"/><path d="M150.564 278.085l-.147-20.415-5.613-3.21.049 20.307 5.711 3.318z" class="D"/><path d="M147.764 256.153l-.783-.448.134 20.377.693.403-.044-20.332z" class="B"/><path d="M150.417 257.67l40.985-26.478-5.514-3.253-41.084 26.521 5.613 3.21z" class="E"/><path d="M188.862 229.693l-.845-.498-41.038 26.509.781.447 41.102-26.458z" class="C"/><path d="M164.158 265.76l8.611 10.136 16.996 8.029 43.463-28.125-27.746-16.216-41.324 26.176z" class="D"/><path d="M164.158 265.76l.15 41.164 25.593 15.129 2.075-18.18-2.211-22.983-25.607-15.13z" class="C"/><path d="M189.765 280.89l.136 41.163 43.474-25.101-.147-41.152-43.463 25.09z" class="B"/><path d="M178.55 294.623l-.146-20.415-5.613-3.21.049 20.307 5.71 3.318z" class="D"/><path d="M175.751 272.69l-.784-.447.135 20.377.693.403-.044-20.333z" class="B"/><path d="M178.404 274.208l40.985-26.479-5.515-3.253-41.083 26.522 5.613 3.21z" class="E"/><path d="M216.848 246.23l-.844-.497-41.038 26.508.781.447 41.101-26.458z" class="C"/><path d="M273.191 320.562l-8.026 9.355-35.178 18.781-43.463-28.124 43.192-25.113 43.475 25.101z" class="D"/><path d="M273.191 320.562l-.149 41.164-43.191 25.102-2.076-18.181 2.212-22.983 43.204-25.102z" class="B"/><path d="M229.987 345.664l-.136 41.164-43.475-25.102.148-41.152 43.463 25.09z" class="C"/><path d="M248.118 355.425l.146-20.416 5.613-3.209-.049 20.307-5.71 3.318z" class="F"/><path d="M250.917 333.493l.784-.449-.135 20.378-.693.403.044-20.332z" class="B"/><path d="M248.264 335.009l-40.985-26.477 5.515-3.253 41.083 26.521-5.613 3.209z" class="E"/><path d="M209.819 307.033l.845-.498 41.038 26.509-.781.445-41.102-26.456z" class="C"/><path d="M318.939 347.038l-8.024 9.353-35.18 18.783-43.463-28.124 43.192-25.113 43.475 25.101z" class="D"/><path d="M318.939 347.038l-.149 41.164-43.191 25.102-2.075-18.182 2.211-22.982 43.204-25.102z" class="B"/><path d="M275.735 372.14l-.136 41.164-43.475-25.102.148-41.152 43.463 25.09z" class="C"/><path d="M293.866 381.901l.146-20.416 5.613-3.209-.048 20.307-5.711 3.318z" class="F"/><path d="M296.665 359.969l.785-.449-.136 20.378-.693.402.044-20.331z" class="B"/><path d="M294.012 361.485l-40.985-26.477 5.515-3.253 41.083 26.521-5.613 3.209z" class="E"/><path d="M255.569 333.509l.843-.498 41.038 26.509-.78.445-41.101-26.456z" class="C"/></g><path d="M287.11 328.661l-1.864-1.076.005-1.307.083-.031 1.781 1.136-.005 1.278z" class="I"/><g class="M"><path d="M285.246 327.585l-1.382-.798 1.387-.509-.005 1.307zm23.303 13.456l-21.439-12.38.005-1.278 21.434 13.658z"/></g><path d="M275.824 372.088l-36.4-21.167.041-.025 23.922 13.813.075-22.96 30.55 19.736v.036l-18.188 10.567zm23.788-13.821l-36.127-23.321.002-.673 20.377-7.486 1.382.798 1.864 1.076 21.439 12.38 9.879 6.293-18.816 10.933z" class="L"/><path d="M275.771 396.884l.122-24.757-.069-.039 18.188-10.567-.146 20.38 5.711-3.318.048-20.307-.013-.009 18.816-10.933.011.007-.135 24.756-42.533 24.787z" class="I"/><path d="M293.866 381.901l.146-20.38v-.036l2.658-1.52h0l.294-.168 2.661-1.521-.048 20.307-5.711 3.318zm3.584-22.381l-.785.449-.044 20.331.693-.402.136-20.378z" class="Q"/><path d="M296.621 380.3l.044-20.331.785-.449-.136 20.378-.693.402z" class="I"/><path d="M294.012 361.485h0l-30.55-19.736.01-3.152 33.198 21.368-2.658 1.52zm2.952-1.688l.486-.277-33.974-21.946.009-2.628 36.127 23.321.013.009-2.661 1.521z" class="O"/><path d="M296.67 359.965h0l-33.198-21.368.004-1.023 33.974 21.946-.486.277-.294.168z" class="M"/><g class="N"><path d="M191.637 282.043l8.609 10.136 16.996 8.028 43.463-28.124-27.747-16.217-41.321 26.177z" class="D"/><path d="M191.637 282.043l.149 41.163 25.591 15.13 2.076-18.18-2.211-22.984-25.605-15.129z" class="C"/><path d="M217.242 297.172l.135 41.164 43.475-25.101-.147-41.152-43.463 25.089z" class="B"/><path d="M206.028 310.906l-.145-20.416-5.615-3.21.049 20.309 5.711 3.317z" class="D"/><path d="M203.228 288.973l-.784-.448.135 20.378.693.402-.044-20.332z" class="B"/><path d="M205.883 290.49l40.983-26.479-5.515-3.251-41.083 26.52 5.615 3.21z" class="E"/><path d="M244.326 262.513l-.844-.496-41.039 26.507.781.447 41.102-26.458z" class="C"/><path d="M306.727 298.443l-8.025 9.354-35.179 18.783-43.463-28.126 43.192-25.111 43.475 25.1z" class="D"/><path d="M306.727 298.443l-.149 41.165-43.191 25.101-2.076-18.181 2.212-22.982 43.204-25.103z" class="B"/><path d="M263.523 323.546l-.136 41.163-43.475-25.103.148-41.152 43.463 25.092z" class="C"/><path d="M281.654 333.307l.146-20.416 5.613-3.21-.049 20.308-5.71 3.318z" class="F"/><path d="M284.453 311.374l.784-.448-.135 20.378-.693.402.044-20.332z" class="B"/><path d="M281.8 312.891l-40.985-26.478 5.515-3.254 41.083 26.522-5.613 3.21z" class="E"/><path d="M243.356 284.913l.844-.497 41.038 26.508-.781.447-41.101-26.458z" class="C"/><path d="M310.792 130.42c-3.702 2.464-7.401 8.155-10.9 10.94-2.257 2.025-.203 6.774 2.597 6.153 3.17-1.657 8.378-5.533 10.644-7.258 4.632-3.53 6.15-6.451 4.61-8.795-1.424-2.163-4.25-2.839-6.951-1.04z" class="G"/><path d="M285.268 144.338c.268.029.881.15 1.163.198.404.069.762.546 1.173.684 1.092.364 4.784 1.376 7.917 1.962.959.178 3.692.542 5.484.406 1.591-.119 2.451-.664 2.378-2.133-.074-1.482-.79-3.512-2.835-4.171-2.714-.863-8.545-.84-12.07-1.093-.548-.038-1.039.344-1.499.53-.4-.005-.79.004-1.173-.096-.348.162-.958 2.523-.538 3.713z" fill="#e8a100"/><path d="M247.952 120.37c2.322 2.697 6.878 7.001 9.842 11.491-.744 1.005-1.645 2.427-3.569 2.992-5.022-3.329-10.741-9.068-12.293-11.009-2.625-7.995-6.126-20.394-1.198-22.592 3.548-1.583 5.477 1.463 6.509 5.844.766 3.253.302 9.817.709 13.274z" class="X"/></g><path d="M229.264 209.776a15.84 15.84 0 0 1-1.296-.055l-.533-.054-12.035-6.948-.026-.2c-.084-1.029.578-1.981 1.99-2.625l14.127-8.026 15.028 9.708-12.785 7.266c-1.156.629-2.745.934-4.47.934zm22.268-11.079l-15.009-9.69 1.936-1.1c1.487-.678 3.389-1.265 5.18-1.265.978 0 1.923.175 2.749.606 2.134 1.112 5.646 3.388 7.199 4.275 1.18.675 5.275 3.134 2.722 4.518l-4.777 2.656z" class="L"/><path d="M227.435 209.667c-2.032-.239-4.074-.859-5.709-1.813l-3.736-2.178c-1.55-.903-2.415-1.96-2.59-2.957l12.035 6.948z" class="M"/><path d="M246.519 201.576l-15.028-9.708 2.352-1.339 15.04 9.682-2.364 1.365zm3.065-1.767l-15.009-9.695 1.948-1.107 15.009 9.69-1.948 1.112z" class="O"/><path d="M248.883 200.211l-15.04-9.682.732-.415 15.009 9.695-.701.402z" class="M"/><g class="N"><g class="P"><path d="M222.683 193.474c-.133.483-.06.886-.298 1.518s-.521 1.341-.78 2.441c-.399 1.701.15 3.977-.39 6.381-.278.961-.256 1.731.382 2.581.626.833 1.805 2.167 3.341 2.116a2.3 2.3 0 0 0 1.621-.786c.582-.666 1.057-1.641.969-2.85-.034-.459-.301-1.935-.254-3.28.039-1.178.255-1.827.228-3.118l-.155-4.125-4.664-.878zm13.571-6.994c-.444 1.21-.738 1.727-.759 3.415.273.891.9 1.252 1.6 1.868l.493.108c1.223.661 1.671 2.981 2.805 4.038.8.745 2.394 1.151 3.976 1.456 1.689.327 3.294-.156 2.855-1.485-1.094-3.303-5.818-7.032-5.927-10.721l-5.043 1.321z"/></g><path d="M243.345 162.944c-.122 6.326-1.845 17.82-1.633 24.055-1.911 1.326-4.508 1.021-5.56-.637-.657-5.736-1.421-13.443-1.498-16.591-.062-2.619.172-5.028.841-7.381-.938-6.922-4.936-16.367-3.985-22.879.419-2.86 2.293-5.939 2.84-8.299 4.714 5.81 8.306 3.024 10.257 2.52-.01 2.007.141 1.739.076 3.849l-.943 22.151c.013 1.105-.085 2.32-.395 3.212z" class="U"/><path d="M232.843 167.546c-1.135 6.325-4.351 20.793-5.141 27.026-2.042 1.134-4.649.542-5.37-1.116-.023-5.736-.1-15.168.33-18.316.358-2.62 1.579-6.563 2.626-8.916.171-6.921-2.663-16.63-.582-23.117 1.993-6.21 3.804-5.892 4.729-8.251 1.264 1.943 2.799 2.76 6.982 2.419.41-.033 3.897-2.524 5.048-2.811-1.459 8.794-5.664 20.279-7.711 29.869-.163 1.105-.458 2.32-.911 3.213z" class="J"/><path d="M230.121 104.602c-2.956 1.836-4.618 3.484-6.152 5.48-2.137 2.782-2.29 4.487-2.023 8.096.299 4.046 2.933 8.968 3.815 13.531.425 2.201.527 6.294.399 9.179-.137 3.108 1.255 4.168 5.24 3.928 4.719-.282 10.638-2.893 13.375-7.592.763-1.313-.677-14.47 1.557-22.111 1.205-4.12.783-10.534-1.539-13.2-4.182-4.806-9.139-.747-14.672 2.689z" class="G"/><g class="J"><path d="M233.123 120.054c-2.138 2.783-2.215 5.38-1.948 8.989.299 4.046-2.725 4.652-5.414 2.666.425 2.201.249 4.156.12 7.041-.044.992-1.175 6.298-.18 7.071 3.151 2.454 11.118 3.144 11.15 3.098 2.268-3.195 6.71-9.612 7.924-11.695.763-1.313-.677-14.47 1.557-22.111.728-9.158-11.677 2.947-13.209 4.941z"/><path d="M226.659 107.089c1.464.697 3.228 1.879 4.836 3.569 1.313 1.38 2.638 3.12 3.585 5.308.202.47.667 1.938.832 2.449.084.259-.052.682-.542 1.064-.524.41-1.414.755-1.586.157l-.739-2.353c-.811-2.114-1.957-3.781-3.184-5.07-1.799-1.891-3.708-2.887-4.963-3.356-.107-.426 1.272-1.939 1.761-1.768z"/></g><path d="M234.654 117.665c.347 0 .628.307.628.688s-.281.688-.628.688-.628-.308-.628-.688.281-.688.628-.688z" class="G"/><path d="M236.494 100.02a16.61 16.61 0 0 1 4.645 3.772c1.237 1.446 2.472 3.253 3.301 5.489.179.479.565 1.969.702 2.488.07.264-.088.679-.596 1.034-.547.383-1.453.679-1.592.073l-.615-2.388a15.22 15.22 0 0 0-2.914-5.23c-2.035-2.378-4.29-3.578-5.43-3.928-.486-.148 1.663-1.531 2.499-1.31z" class="J"/><path d="M243.926 110.954c.345.018.611.34.59.72s-.317.673-.663.654-.612-.341-.592-.72.317-.672.665-.654z" class="G"/><path d="M239.078 106.604l.347-.709c.34-.708.514-2.205 1.149-3.862l-6.213-2.846-1.316-.741c.233 2.46-.603 4.5-1.493 6.245-.335 2.363 4.337 3.434 6.798 4.039.289-.572.398-1.413.728-2.126z" class="R"/><g class="H"><path d="M238.349 108.734c.132-.339.2-1.038.343-1.647l.62-2.23c.555.142.903 3.289 1.536 4.615-.979-.681-1.403-.741-2.499-.738z"/><path d="M231.707 104.204c.083 2.344 4.033 3.956 6.665 4.532-.639.77-1.464 1.739-1.431 2.51-1.835-.503-4.946-1.366-6.208-3.712-.862-1.604-.036-2.778.974-3.33z"/></g><path d="M238.412 105.673l-3.042-2.195c-1.358-1.166-1.081-2.501-1.339-4.644-1.273-1.065-1.669-1.863-1.724-2.736-.13-2.071 1.206-4.192 2.863-5.28 1.448-.951 3.044-1.127 4.784-.605 3.381 1.013 4.715 2.951 4.672 5.937a8.35 8.35 0 0 1-.269 1.503c-.232.584-.403.668-.522 1.08-.077.269-.088.592.018 1.033.246 1.025-1.382 5.556-2.106 5.994-.806.487-2.14.632-3.335-.087z" class="K"/><path d="M241.739 95.449l-4.776-3.603c-1.236-.999-2.59-2.065-3.86-1.382-1.177 1.071-1.821 3.234-1.814 4.501.007 1.813.921 3.544 2.208 5.417.485.705.822-1.807 1.092-2.3.171.941.427 1.37.7 1.478.197.078.405.238.594-.895.293-1.736 1.162-1.875.958-3.08-.165-.965.418-.753.676-1.077 1.264.275 2.332 1.106 4.222.941z" fill="#38251b"/><path d="M234.106 96.966c-1.253-.686-1.53.85-1.487 1.818.03.665.567.711.67 1.25.124.642.543 1.005.943 1.063.815.12.524-1.171.511-1.667.232-.766.157-2.028-.637-2.464z" class="K"/><path d="M232.991 90.559c.966.443 2.032 1.721 3.361 2.757 1.832 1.426 4.012 2.594 5.826 2.419 1.041-.1 2.189-.667 2.412-1.084 3.351-6.232-9.063-9.511-11.599-4.092z" fill="#422d22"/><path d="M242.241 103.603c-.137-.019-.193.044-.356.077-.258-.016-.343-.012-.53.043-.34.099-.395.29-.904.398-.153.033-.127.058.027.127.246.109 1.14.122 1.512-.003.246-.083.172-.21.301-.33.096-.089.225-.273-.05-.312z" class="e"/><g class="f"><path d="M240.502 99.323c-.748.18-1.324.182-2.111-.305.736.658 1.456.659 2.111.305zm2.106-.327c.656-.026.674.006 1.215-.298-.36.387-.655.426-1.23.403l.015-.105zm-.254.654c.114.713.1 1.073.416 1.58.545.875.24 1.212-.665 1.302.956-.247.855-.523.507-1.299-.216-.485-.216-.785-.258-1.583z"/><path d="M243.493 98.954c-.131.316-.474.403-.674.12.236-.011.43-.016.674-.12zm-4.456.422c.13.316.474.402.672.12-.236-.011-.43-.017-.672-.12z"/></g><path d="M245.274 94.83c-.788.175-10.293 1.824-13.988.146-.082-6.101 4.122-7.982 7.482-7.861 3.769.134 7.496 2.99 6.506 7.715z" class="H"/><path d="M245.893 97.618c-.61-.437-1.146-.834-2.078-1.228 2.556-.372 2.2-.473 4.35.394.118.048.256.139.363.207.903.8.635 2.971-2.635.627z" class="T"/><path d="M235.482 95.653c3.312.095 6.119-1.533 9.082-1.078.847.13 2.981 1.763 3.96 2.411l.07.069c-3.132-.856-4.352 1.142-7.647 1.273-1.522.061-3.766-.7-5.465-2.675z" class="G"/><path d="M302.943 130.993l-5.867 6.839-25.726 13.735L239.566 131l31.587-18.364 31.79 18.357z" class="D"/><path d="M302.943 130.993l-.109 30.1-31.583 18.357-1.518-13.294 1.617-16.808 31.593-18.355z" class="B"/><path d="M271.35 149.348l-.099 30.102-31.792-18.357.107-30.093 31.784 18.348z" class="C"/><path d="M284.609 156.487l.106-14.93 4.105-2.346-.035 14.849-4.176 2.427z" class="F"/><path d="M286.655 140.448l.574-.328-.1 14.902-.506.294.032-14.868z" class="B"/><path d="M284.715 141.557l-29.97-19.363 4.033-2.378 30.042 19.395-4.105 2.346z" class="E"/><path d="M256.603 121.098l.616-.364 30.01 19.386-.57.325-30.056-19.347z" class="C"/><path d="M230 114.122c1.467 4.199 1.721 11.237 2.992 15.523.687 2.955-3.718 5.668-5.656 3.555-1.648-3.175-3.692-9.337-4.558-12.05-1.773-5.548-.875-8.919 1.732-9.954 2.406-.957 4.365-.292 5.49 2.926z" class="H"/><path d="M245.97 138.014l-1.167-.777c-1.08.614-1.959 2.232-2.129 2.688a10.33 10.33 0 0 1 1.108.941c.212.249.426.48.637.674 1.321 1.218 3.125 2.215 6.196 1.646 1.608-.297 1.569.279 3.066.859 1.077.419 2.894-3.304 2.301-3.815l-1.328-1.096c-1.591-1.131-1.014-1.074-3.424-.687-2.045.326-4.587-.203-5.26-.433z" class="K"/><path d="M243.543 140.909l-1.105-.543c-.517-.121-1.018.07-1.434-.048-1.107-.316-4.775-1.821-7.692-3.107-.891-.394-3.355-1.635-4.757-2.758-1.243-.998-1.648-1.933-.758-3.105.898-1.182 2.634-2.453 4.696-1.843 2.726.819 8.093 4.371 11.145 6.154.473.276.663.868.938 1.282.333.222.65.448 1.023.583.193.33-1.037 2.639-2.056 3.385z" class="H"/></g><path d="M294.112 223.786l-6.024-3.889c.846-.952 2.259-1.833 2.879-2.205l7.273-4.528c.886-.485 1.914-.68 2.977-.68 1.782 0 3.665.546 5.151 1.187l2.669 1.443-14.925 8.672z" class="L"/><path d="M294.836 225.865l-.715-.39.004-1.682-.013-.007 14.925-8.672 2.223 1.202-13.156 7.648-.015-.01-2.294 1.354-.959.557z" class="I"/><path d="M294.121 225.475l-1.511-.816 1.515-.866-.004 1.682z" class="Q"/><path d="M292.61 224.659l-4.331-2.285-.162-.09-.133-.085c-.921-.641-.611-1.498.104-2.302l6.024 3.889.013.007-1.515.866z" class="O"/><path d="M288.117 222.284l-.133-.085.133.085z" class="M"/><path d="M316.503 235.841l-18.399-11.877 13.156-7.648 16.948 9.169c1.457.629 2.154 1.589 2.09 2.642-.066 1.079-.937 2.264-2.607 3.286l-3.778 2.31c-1.795 1.099-4.095 1.806-6.346 2.042l-1.064.076zm-21.661-9.972l.953-.561-.953.561z" class="L"/><path d="M315.935 235.853c-1.647 0-3.159-.281-4.287-.864l-.627-.326-14.838-9.584-.755.445 7.109 4.577-7.695-4.232.953-.561 2.294-1.354.015.01 18.399 11.877-.568.012z" class="O"/><path d="M311.021 234.663l-8.484-4.562-7.109-4.577.755-.445 14.838 9.584z" class="M"/><g class="N"><path d="M307.837 219.237c-.517-.2-1.666-2.493-3.634-2.269-2.363.268-4.906-1.355-6.987-1.596-.372-.043-.831-.188-1.074-.038-1.072.66-1.274 1.436-.522 2.525.553.801 1.596 1.864 2.508 2.621.966.8 1.72 1.465 2.922 2.133.894.497 1.53.506 2.345.903l-.025.763c.617.658 1.337 1.108 1.798 1.197 1.182.231 2.66-.409 3.778-1.407.245-1.241.808-2.443.372-4.348l-1.481-.484z" class="P"/><path d="M306.122 167.213c-.452 5.068-3.19 23.517-2.484 27.96 1.064 6.682-.294 16.241-.305 23.334.05.846.505 1.999 1.471 2.795 1.506 1.243 3.832 1.83 4.565.665.958-6.336 2.805-14.193 3.36-17.715.621-3.943.514-7.945-.488-10.537.411-2.831 2.626-11.884 4.239-16.946 1.763-5.533 3.245-5.523 1.833-11.642-.386-1.67-.838-3.266-1.023-3.994l-11.168 6.08z" class="U"/><path d="M321.259 224.709c-.554-.011-2.424-1.769-4.193-.882-2.126 1.065-5.073.416-7.11.906-.364.086-.844.109-1.022.334-.778.987-.702 1.785.378 2.549.795.563 2.142 1.202 3.257 1.598 1.183.421 2.12.786 3.477.998 1.012.158 1.612-.051 2.515.042l.238.725c.804.406 1.636.579 2.1.505 1.189-.189 2.356-1.299 3.064-2.62-.197-1.25-.082-2.572-1.148-4.212l-1.556.057z" class="P"/><path d="M306.154 196.709c3.076 6.961 7.18 21.675 9.651 28.759.935 1.977 6.459 2.672 7.85.118-1.209-6.281-3.701-19.816-5.18-23.01-1.238-2.675-2.196-3.83-3.612-7.077-.588-2.709-1.58-9.909-2.461-15.082.384-2.082 1.233-5.893.749-9.48-.301-2.215-1.806-5.1-1.924-8.316-2.117 1.505-9.67 4.772-12.638 3.096-.31 4.004.409 9.876 2.111 15.97 2.153 7.709 3.791 11.258 5.454 15.022z" class="J"/><path d="M318.528 147.051c-.15 3.81-1.997 6.789-1.674 12.677-.958 4.934-11.603 9.955-18.309 6.048-.162-4.057 1.116-5.829.598-9.692-.777-5.788-4.451-13.246-2.677-17.801.381-.976 1.048-1.451 1.803-2.057 1.959-1.574 11.176-6.245 14.247-6.61 8.917-1.156 6.184 13.103 6.012 17.435z" class="G"/><g class="J"><path d="M318.528 147.051c-.249 3.994-2.082 7.596-1.12 14.301-.417 2.444-3.774 4.374-6.321 6.487-2.922 2.427-8.469.31-12.542-2.063-.162-4.057 1.116-5.829.598-9.692-.777-5.788-4.451-13.246-2.677-17.801.093-.238.203-.447.326-.634-.663 3.425.565 7.292 1.389 10.789.539 2.288.947 4.751 1.67 5.086 1.158.536 2.842-.144 2.996-.712.383-1.407.655-2.156 2.513-3.049 3.209-1.54 6.928-3.432 10.86-5.532 1.901-1.016 2.286-.94 2.513.361l-.205 2.459z"/><path d="M312.183 129.641c3.195 2.532 5.96 9.598 6.073 14.745.005.277-.26.644-.851.864-.633.237-1.601.297-1.583-.334.137-5-3.066-12.156-6.109-14.377-.299-.256 1.82-1.249 2.47-.898z"/></g><path d="M317.231 143.385c.353.111.538.514.416.899s-.506.607-.857.495-.538-.513-.416-.899.505-.607.857-.495z" class="T"/><path d="M317.277 143.361c.335.107.513.491.396.859s-.483.581-.819.473-.514-.491-.397-.859.483-.579.82-.473z" class="G"/><g class="R"><path d="M301.216 129.411c.519.256 3.157-.117 3.081.119-.035 1.057-.32 1.741-.462 3.034.069 1.17 6.726 1.543 6.901-1.525-.115-1.3-.262-2.935.117-3.544.614-.994 1.876-2.1 2.324-3.605.714-2.407.453-5.081-1.791-6.862-4.097-3.254-9.337-.938-10.665 3.82-.259.93.474 1.433.448 2.227-.005.157-.211.319-.378.663-.23.478-.212 5.357.425 5.673z"/><path d="M301.324 129.411c.274.146 1.414.049 2.263-.276.533-.205.921-.663 1.004-.697.351-.143 1.132-1.25-.077-3.014-1.179-1.721 5.96 2.681 6.339 2.071.614-.994 1.876-2.1 2.324-3.605.714-2.407.453-5.081-1.791-6.862-4.097-3.254-9.337-.938-10.665 3.82-.259.93.474 1.433.448 2.227-.005.157-.211.319-.378.663-.23.478-.094 5.336.533 5.673z"/></g><path d="M304.259 125.475c1.469-1.368 2.886 2.985.523 2.94.921-.976.222-2.521-.523-2.94z" class="V"/><path d="M304.267 126.111c-.22-.608-.035-.83.233-.764.294.073.712.495.929 1.126.351 1.017-.152 2.303-1.135 1.8.846.05.767-.97.514-1.598-.172-.426-.439-.729-.541-.564z" class="K"/><path d="M304.655 126.386c-.237.44-.318.702-.242.854.053.105.215.225.483-.034.007-.304-.099-.588-.241-.82z" class="V"/><g fill="#361d07"><path d="M310.724 128.092c.682-1.431 1.891-2.314 2.453-4.202.714-2.407.453-5.081-1.791-6.862-3.22-2.557-7.145-1.675-9.323 1.129-.118.182 1.117.762.709 1.665-.584 1.534-.573 2.22-.337 2.557.913 1.302.93 1.487.88 3.471l.516.417c.213-1.557.905-1.434 1.578-.915 1.174.907 1.626 2.968 3.58 3.374a1.71 1.71 0 0 0 1.735-.634z"/><path d="M303.335 125.404c-.156.973-.222 1.587-.645 2.075-.159.187-.581.248-1 .328a5.97 5.97 0 0 0-.217-1.071c-.149-.513-.425-.923-.836-1.179-.032.124-.034.56.04.633.189.191.229.419.321.734.095.326.113.545.117.978l-.263.039-.114-.273c-.035.806-.047 1.884.136 1.957.234.092 1.6-.188 2.302-.472.732-.297.517-.457.584-1.321l.153-2.279-.578-.149z"/></g><path d="M313.219 122.338c-.726-.531-2.386-1.064-5.502-1.284-2.157-.153-3.657-.649-4.969-1.349-1.971-1.05-1.428-2.855-.595-3.594 1.609-1.428 5.536-1.651 8.306-.224 2.022 1.04 3.139 3.105 2.76 6.451z" class="g"/><path d="M310.648 129.983c-.107 1.502-3.902 2.631-6.662 1.617l.049-.291c-.311.23-1.426 1.873-1.439 2.545 2.988.713 7.56.595 8.702-1.742.25-.513-.081-1.491-.65-2.129z" class="H"/><path d="M301.283 134.33c4.673 3.182 6.743 9.551 7.048 14.869.015.276-.225.656-.804.908-.62.269-1.583.381-1.599-.25-.13-4.999-2.143-12.025-7.017-14.15-.314-.24 1.704-1.693 2.372-1.377z" class="J"/><path d="M307.254 148.253c.358.092.565.483.464.876s-.473.633-.831.54-.564-.483-.463-.876.472-.633.83-.54z" class="T"/><g class="G"><path d="M307.298 148.227c.341.088.539.464.442.837s-.451.605-.793.517-.539-.464-.442-.837.451-.605.793-.517zm-1.295-32.804c-2.104-1.16-5.832-1.261-6.943.197-.781 1.024-1.448 3.755 3.554 5.649l3.389-5.846z"/></g><g class="H"><path d="M312.42 124.49c-.605.757-1.62 1.387-2.937 1.257.247-.967.453-2.122 1.743-2.258.455-.049.992.03 1.194 1.001zm-10.58-4.597c.512 4.029 4.744 6.485 7.177 6.529 2.139.038 3.64-.795 4.353-2.76.614-1.693.824-3.823.294-5.528-.684-2.203-2.502-3.571-4.565-4.011a7.51 7.51 0 0 0-5.036.735c-1.659.9-2.535 2.575-2.223 5.035zm-6.7 20.24c-1.467 4.199-1.721 11.235-2.991 15.523-.689 2.954 3.717 5.668 5.655 3.554 1.649-3.175 3.692-9.337 4.558-12.05 1.774-5.549.874-8.918-1.732-9.953-2.405-.958-4.364-.293-5.49 2.926z"/></g><path d="M281.06 149.324l1.355.367c.249 1.216-.388 2.944-.619 3.372a10.8 10.8 0 0 0-1.439-.213 7.25 7.25 0 0 1-.926-.035c-1.787-.19-2.626-.566-4.222-3.251-.166-.28-.417-.716-.635-.801l-3.564-1.206c-.195-.286-.172-1.155-.098-2.55.022-.438.26-.717.88-.726l3.342-.021c2.687.109 1.767-.199 3.065 1.867 1.102 1.754 2.245 2.845 2.861 3.197z" class="K"/><path d="M280.783 153.01c.253.093.816.364 1.079.482.373.165.601.717.964.953.968.626 4.291 2.524 7.181 3.871.883.412 3.44 1.446 5.209 1.76 1.571.279 2.54-.035 2.834-1.475.298-1.455.11-3.598-1.707-4.745-2.414-1.512-8.067-2.942-11.418-4.064-.52-.174-1.091.074-1.583.141-.386-.105-.766-.194-1.113-.386-.376.071-1.555 2.205-1.446 3.463z" class="H"/><path d="M431.257 352.091l38.6-21.985c4.207-1.923 10.23-3.453 14.518-1.222 3.905 2.034 10.34 6.194 13.186 7.817 2.161 1.232 9.663 5.727 4.99 8.267-13.746 7.475-27.349 15.882-41.308 23.475-2.638 1.435-6.501 1.955-10.555 1.618-4.035-.336-8.175-1.511-11.432-3.405l-6.845-3.984c-3.027-1.763-4.632-3.848-4.792-5.775-.155-1.883 1.055-3.628 3.638-4.806z" class="W"/></g><path d="M436.396 349.163l-21.494-11.598.198-.106-.74-2.874 4.155-2.524.719 3.194.011-.006 21.4 11.494-4.249 2.42zm25.531-14.541l-22.133-11.378.255-.136-.777-3.661 3.803-2.311.961 3.784-1.297.754 1.398-.746 22.029 11.28-4.239 2.414zm-20.714-24.817l-1.844-1.075v-6.191l1.844 7.266zm-14.971-8.72l-4.156-2.419 7.921-4.525-.002 4.794-3.763 2.15zm3.766-20.701l-2.733-10.029-9.053 5.172-4.153-2.418 12.075-6.897-3.194-11.715 3.667-2.182 3.392 13.36-.001 14.709z" fill="#cad8e7"/><path d="M414.36 334.585l-7.223-28.035 4.762-2.835.183.666 10.004-5.715 4.156 2.419-13.028 7.444 5.301 23.532-4.155 2.524zm24.912-15.138l-.919-4.326 1.014-.589.002-5.802 1.844 1.075 1.862 7.331-3.803 2.311z" fill="#b4c3d5"/><path d="M405.824 301.455l-4.836-18.772.241-.139-.054-15.087.725-.431 3.075 11.277 9.094-5.194 4.153 2.418-12.117 6.924 4.429 16.251-4.71 2.753z" fill="#abb7d0"/><path d="M407.137 306.55l-1.313-5.095 4.71-2.753 1.365 5.013-4.762 2.835z" fill="#7b8498"/><path d="M400.988 282.683l-.867-3.362.001-11.237 1.053-.627.054 15.087-.241.139z" fill="#93683f"/><path d="M400.122 262.146v-1.64l.386 1.415-.386.225zm.002-6.414v-4.793l18.914-10.806-.535-1.908-18.379 10.674v-.044l22.321-12.969 2.921 11.505-3.754 2.195-1.445-5.305-20.043 11.451z" fill="#abb7d0"/><path d="M400.122 268.084v-5.938l.386-.225 1.392 5.105-.725.431-1.053.627zm22.828-13.587l-1.338-4.911 3.754-2.195 1.251 4.924-3.667 2.182z" fill="#7b8498"/><path d="M438.353 315.121l-3.65-17.194.001-13.761 4.665 18.373v6.191l-.002 5.802-1.014.589z" fill="#1c2131"/><path d="M430.005 298.935l.002-4.794 3.245-1.854-3.244-11.903.001-14.709 4.695 18.491-.001 13.761-.318-1.493-4.38 2.501z" fill="#282d40"/><path d="M400.121 279.321l-4.665-18.104.001-9.651 4.667-2.711v.044l-2.731 1.586.475 1.743 2.256-1.289v4.793l-1.127.644 1.125 4.13v1.64 5.938l-.001 11.237z" fill="#1c2131"/><path d="M395.456 261.217l-2.162-8.393 2.163-1.258-.001 9.651z" fill="#282d40"/><path d="M455.058 359.232l-18.662-10.069 4.249-2.42 19.48 10.462-5.067 2.027zm25.89-14.832l-19.021-9.778 4.239-2.414 19.85 10.163-5.068 2.029z" fill="#b4c3d5"/><g class="N"><g fill="#95b1cf"><path d="M483.673 343.764l-2.857.739-3.316-7.167 2.856-.745 3.317 7.173zm-5.25-11.355l-2.856.741-10.22-22.105 2.857-.745 10.219 22.109zm-12.156-26.291l-2.851.741-10.225-22.11 2.856-.745 10.22 22.114zm-12.152-26.292l-2.857.741-10.219-22.113 2.856-.741 10.22 22.113zm-12.153-26.295l-2.855.745-10.221-22.11 2.857-.74 10.219 22.105zm-12.156-26.292l-2.851.74-4.217-9.112 2.856-.741 4.212 9.113z"/></g><g fill="#b5cde6"><path d="M425.594 218.126l-2.856.741 3.764-2.172 2.857-.743-3.765 2.174zm30.696 127.062l-2.857.741 22.134-12.779 2.856-.741-22.133 12.779zm-12.157-26.29l-2.852.741 22.135-12.78 2.851-.741-22.134 12.78zm-12.152-26.295l-2.857.744 22.134-12.78 2.857-.741-22.134 12.777zm-12.153-26.292l-2.857.745 22.136-12.78 2.855-.745-22.134 12.78zm-12.157-26.292l-2.851.741 22.135-12.781 2.851-.74-22.135 12.78z"/></g><path d="M457.77 358.718l-2.856.74-58.078-125.637 2.856-.739 58.078 125.636z" fill="#95b1cf"/><path d="M429.359 215.952l-3.765 2.174 4.212 9.113-22.135 12.78-4.212-9.112-3.767 2.175 58.078 125.636 3.767-2.174-3.315-7.173 22.134-12.78 3.317 7.173 3.763-2.174-58.077-125.638zm-19.752 28.254l10.221 22.105 22.134-12.78-10.219-22.105-22.136 12.78zm12.153 26.287l22.135-12.78 10.22 22.113-22.134 12.777-10.221-22.11zm12.152 26.292l10.221 22.113 22.134-12.78-10.22-22.114-22.135 12.781zm22.378 48.403l-10.221-22.109 22.135-12.779 10.219 22.109-22.133 12.779z" fill="#dbebfb"/><path d="M399.692 233.082l-2.856.739 3.767-2.173 2.856-.741-3.767 2.175z" fill="#b5cde6"/><path d="M442.844 220.416c-.024-.388-.334-.061-1.274-.864-.316-.633-1.395-2.08-1.454-2.655-.092-.908.784-2.118.616-2.762-.168-.638-2.543-2.263-2.242-2.96.314-.719 1.221-2.425 1.643-2.403.6.124 1.373.896 2.188 1.698.657.646 1.413 1.312 1.573 1.666.438.975.869 2.098 1.057 3.286.142.903.036 1.599.013 2.302-.013.408.615.829.668 1.187.056.554-.416 1.244-.273 1.938l-2.515-.433z" class="R"/><g class="X"><path d="M452.977 235.614c.679.367 1.715.638 3.309.846 2.113.279 11.686 3.245 15.234 3.085 5.488-.25 5.722-7.914-.136-8.682-2.902-.382-12.728-1.502-16.091-1.506-5.797-.005-5.644 5.604-2.316 6.257z"/><path d="M451.253 234.792c-3.538-3.52-5.538-8.316-8.264-12.707-.143-.231-.292-.722-.375-1.154-.171-.28-.457-.784-.631-.981 1.06-.053 3.07-1.724 3.06-2.175.258.391.423.55.785 1.004.305.164.557.325.79.547 2.67 2.553 6.703 7.795 8.305 10.211.969 1.459 2.189 2.598 1.333 3.795-.804 1.126-1.602 2.157-2.41 2.181-1.077.033-1.862-.036-2.593-.721z"/></g><path d="M459.579 191.592l-3.876 4.519-16.998 9.076-21.001-13.59 20.871-12.133 21.004 12.128z" class="D"/><path d="M459.579 191.592l-.071 19.89-20.869 12.128-1.002-8.785 1.068-11.104 20.874-12.129z" class="B"/><path d="M438.705 203.721l-.066 19.889-21.005-12.128.07-19.885 21.001 12.124z" class="C"/><path d="M447.465 208.437l.071-9.864 2.712-1.551-.024 9.812-2.759 1.603z" class="F"/><path d="M448.818 197.839l.379-.216-.066 9.847-.334.194.021-9.825z" class="B"/><path d="M447.536 198.573l-19.803-12.794 2.665-1.571 19.85 12.814-2.712 1.551z" class="E"/><path d="M428.961 185.055l.407-.24 19.829 12.808-.377.215-19.859-12.783z" class="C"/></g><path d="M440.011 202.962h0l-19.631-12.865 8.481-3.589 18.675 12.065v.017l-7.525 4.372zm10.23-5.944l-18.299-11.813 3.165-1.338 18.068 11.446-2.934 1.705z" class="L"/><path d="M439.952 214.924l.059-11.962 7.525-4.372-.071 9.847 1.332-.773h0l.334-.194v-.002l1.093-.634.024-9.812-.007-.004 2.934-1.705.003.002-.065 11.962-13.161 7.647z" class="I"/><path d="M447.465 208.437l.071-9.847v-.017l1.282-.734-.021 9.825-1.332.773zm1.666-.969l.066-9.845 1.051-.601-.024 9.812-1.093.634z" class="Q"/><path d="M448.797 207.664h0l.021-9.825.379-.216-.066 9.845v.002l-.334.194z" class="I"/><path d="M447.536 198.573h0l-18.675-12.065 1.423-.601 18.536 11.931.377-.215-18.445-11.914 1.19-.504 18.299 11.813.007.004-1.051.601-.379.216-1.282.734z" class="O"/><path d="M448.82 197.838l-18.536-11.931.468-.198 18.445 11.914-.377.215z" class="M"/><g class="N"><path d="M450.642 176.444l-3.766 4.433-7.433 3.511-19.008-12.299 12.134-7.093 18.073 11.448z" class="D"/><path d="M450.642 176.444l-.066 18.003-11.193 6.617-.908-7.952.968-10.051 11.199-6.617z" class="B"/><path d="M439.443 183.061l-.06 18.003-19.013-10.978.065-17.997 19.008 10.972z" class="C"/><path d="M444.346 189.068l.065-8.928 2.454-1.404-.02 8.881-2.499 1.451z" class="F"/><path d="M445.571 179.475l.344-.195-.06 8.911-.303.176.019-8.892z" class="B"/><path d="M444.411 180.14l-17.924-11.581 2.412-1.423 17.966 11.6-2.454 1.404z" class="E"/><path d="M427.597 167.903l.371-.217 17.947 11.593-.342.195-17.976-11.571z" class="C"/><path d="M472.942 322.942c.788-7.686 1.793-19.963-.233-24.586-1.031-2.354-1.491-5.923-1.513-8.537-.006-.723.354-4.009 1.268-7.301.938-3.377 2.436-6.794 2.933-10.125.605-4.042-1.746-10.084-1.79-10.159-2.507-4.424-12.054 3.585-12.079 4.205-1.115 3.6-.042 12.973.206 15.188l.051 1.55c.012 1.569-.079 3.138.043 4.977.162 2.453.419 3.655.97 6.09l1.924 11.502c.4 2.796.663 5.427.901 7.348l1.67 13.782c2.166.557 4.017-5.07 5.649-3.934z" class="U"/><path d="M469.914 265.624c-1.802-4.434-11.685-1.464-12.925-.589-2.929-.706-5.831-2.022-9.385-2.925-2.696-.685-9.023-1.724-11.828-1.524-1.82.13-3.269.954-3.663 2.532-.675 2.699 1.258 4.959 7.758 7.152 4.025 1.359 9.545 5.255 13.896 7.412 4.156 2.059 8.081 3.177 11.075 2.331 5.144-1.454 6.91-9.865 5.072-14.389z" class="J"/><path d="M473.082 261.634c-.65 3.817-2.07 6.746-6.21 7.542-4.837.932-11.858-.891-11.505-2.98l.126-.704c.526-2.833 1.098-4.671.666-7.898-.749-5.581-4.292-12.772-2.582-17.163.368-.942 1.01-1.399 1.74-1.985 1.887-1.517 11.656-6.49 14.616-6.841 5.67-.736 6.699 3.768 6.267 9.093-.594 7.336-4.366 13.067-3.118 20.936z" class="G"/><path d="M473.617 262.273c-.65 3.819-3.071 15.409-7.21 16.206-4.837.931-11.393-10.194-11.04-12.283l.126-.704c.526-2.833 1.098-4.671.666-7.898-.749-5.581-4.292-12.772-2.582-17.163a3.22 3.22 0 0 1 .624-1.009c-.531 3.311.381 7.601 1.09 10.918.491 2.298 1.307 4.705 2.022 5.054 1.148.56 3.682-.361 3.849-.927.412-1.399.701-2.142 2.576-2.994 3.24-1.473 5.025-2.921 9-4.938 1.797-.912 2.249-.897 2.464.176-1.079 4.741-2.472 9.964-1.585 15.562z" class="J"/><path d="M467.358 336.535s1.667-.82 1.719-1.005.398-2.143.398-2.143l-.767-1.006c-1.805.064-3.91 1.151-2.765 3.129.244.421.696.785 1.415 1.025z" fill="#04304f"/><path d="M467.569 326.428l.477 1.932c.571 3.961.645 4.569-1.006 8.017 1.871.896 5.456-.042 7.171-1.535 1.269-1.105-.462-2.39.158-4.021.364-.956 1.426-2.403 1.645-4.16.15-1.205.135-2.36-2.015-2.959-.569-.959-1.064-1.589-1.608-1.746-3.03-.103-3.821 3.12-4.822 4.472z" class="P"/><path d="M467.888 336.644c1.962.365 4.841-.512 6.323-1.802 1.269-1.105-.462-2.39.158-4.021.364-.956 1.426-2.403 1.645-4.16.254-2.038-1.128-2.851-2.919-2.1-1.22.513-2.137 1.82-2.408 3.23-.286 1.491-.054 2.468.088 3.378.359 2.284-1.381 6.691-4.57 4.687.465.485 1.056.671 1.683.788z" fill="#032040"/><path d="M441.3 293.006c-.904-.437-2.877-2.235-5.75-3.59-1.165-.549-2.968-.732-2.965 1.195.002 2.581 1.605 4.959 3.44 6.435.651.524 1.563.88 2.322 1.578.588.542.572 1.132.973 1.654.873 1.143 2.189 1.463 3.2 1.446 1.216-.019 1.756-.338 2.41-1.527.601-1.091 1.298-3.184 1.25-4.103.014-.163 0-.321-.04-.477-.338-1.659-3.179-4.289-4.84-2.611z" class="P"/><g class="J"><path d="M446.53 294.507c-.035-6.771.012-19.795-3.315-25.106-.928-1.48-1.675-3.553-2.186-5.538-1.049-4.08-5.482-3.459-6.856-2.84-2.147.965-2.274 3.07-1.868 4.267l4.087 12.59c.804 2.707 1.449 5.27 1.966 7.137.223.807 1.055 4.924 1.554 7.241.014 1.065 1.23 2.504 2.629 3.226 1.728.891 3.727.81 3.989-.977zm24.16-63.096c2.965 2.796 4.79 9.771 4.46 14.909-.018.276-.315.619-.922.787-.652.182-1.621.158-1.55-.469.566-4.97-1.383-11.885-4.224-14.359-.277-.282 1.618-1.274 2.236-.868z"/></g><path d="M474.215 245.234c.34.141.492.559.338.932s-.557.561-.898.419-.492-.558-.337-.931.556-.562.897-.42z" class="T"/><path d="M474.261 245.215c.327.134.47.532.323.888s-.533.538-.858.402-.47-.532-.322-.889.532-.536.857-.401z" class="G"/><path d="M458.918 236.235c4.604 3.28 6.866 10.063 7.058 15.386.01.276-.239.651-.823.891-.626.256-1.591.348-1.593-.284-.025-5-2.054-12.275-6.88-14.503-.31-.247 1.46-1.634 2.238-1.49z" class="J"/><path d="M464.92 250.653c.355.098.554.496.444.885s-.486.623-.841.523-.554-.496-.445-.885.486-.623.842-.523z" class="T"/><path d="M464.963 250.628c.339.096.529.475.424.845s-.463.596-.803.5-.53-.474-.425-.846.465-.594.804-.499z" class="G"/><g class="R"><path d="M459.44 230.626c.481.336 3.173.37 3.059.593-.224 1.202-.704 1.867-1.07 3.549 2.721.329 6.595.201 7.316-1.752.086-1.152.226-2.363.614-2.819.767-.898 2.197-1.809 2.876-3.244 1.083-2.292 1.236-5.003-.732-7.127-3.591-3.88-9.179-2.375-11.238 2.173-.401.889.253 1.504.105 2.293-.03.156-.259.285-.479.604-.304.442-1.038 5.316-.451 5.73z"/><path d="M459.549 230.642c.251.191 1.404.269 2.302.074.566-.123 1.023-.52 1.11-.541.373-.088 1.324-1.075.387-3.022-.913-1.9 5.54 3.596 6.011 3.044.766-.898 2.197-1.809 2.876-3.244 1.083-2.292 1.236-5.003-.732-7.127-3.591-3.88-9.179-2.375-11.238 2.173-.401.889.253 1.504.105 2.293-.03.156-.259.285-.479.604-.304.442-.916 5.315-.342 5.746z"/></g><path d="M462.995 227.802c-.126-.643.093-.836.351-.728.284.117.635.603.755 1.266.193 1.07-.506 2.278-1.411 1.624.837.18.916-.85.76-1.517-.107-.452-.326-.796-.455-.645z" class="K"/><path d="M463.341 228.136c-.303.404-.425.651-.373.815.037.112.181.257.487.041.055-.304-.009-.602-.114-.856z" class="V"/><path d="M469.239 231.24c.469-1.596 2.262-2.731 3.073-4.445.697-1.474.988-3.13.528-4.671.422-1.147-1.303-3.178-2.052-3.577.056.109.113.203.16.363-2.176-1.625-2.878-1.477-5.513-1.552l.795.294c-1.435-.236-5.334.895-5.577 3.556.675-1.101 1.25-.858 1.711-.46-.64 1.319-.214 2.697-.047 3.035.677 1.373.666 1.552.328 3.432l.429.471c.431-1.449 1.071-1.232 1.635-.638.983 1.035-.03 4.041 2.509 4.552.706.141 1.592.044 2.021-.36z" class="g"/><path d="M468.789 232.95c.88.23 1.2 1.425.972 1.931-1.301 3.138-7.109 2.619-10.704 1.261-.043-.016 1.592-1.485 2.338-1.605 2.305.589 6.377.225 7.394-1.587z" class="H"/><path d="M466.577 216.989c-1.937-1.532-5.7-2.266-7.073-.977-.965.908-2.105 3.565 2.648 6.332l4.425-5.355z" class="G"/><path d="M471.552 227.269c-.742.666-1.879 1.132-3.191.779.413-.939.817-2.077 2.149-1.997.47.029 1.001.2 1.042 1.218zm-9.952-6.451c-.162 4.172 3.714 7.379 6.174 7.835 2.162.4 3.825-.191 4.881-2.063.909-1.614 1.482-3.738 1.233-5.557-.32-2.35-1.933-4.044-3.951-4.839-1.646-.647-3.571-.678-5.232-.107-1.835.632-3.007 2.181-3.105 4.731z" class="H"/><path d="M434.309 237.297c-.047-.387-.139-1.377-.319-1.692-.351-.614-1.514-1.995-1.606-2.566-.143-.902.66-2.161.454-2.793s-2.671-2.112-2.409-2.824c.271-.737 1.076-2.491 1.5-2.496.605.089 1.422.816 2.283 1.568.693.607 1.487 1.229 1.667 1.572.493.948.99 2.045 1.246 3.219.308 1.415.105 2.568.307 3.529.088.55.233 1.18.416 1.865l-3.539.618z" class="R"/><g class="H"><path d="M442.934 251.978c.771.011 1.815-.229 3.324-.782 2-.733 7.775-2.127 10.845-3.915 4.747-2.763 1.404-9.663-4.144-7.63-2.748 1.005-7.89 4.154-10.871 5.71-5.14 2.68-2.406 7.581.846 6.617z"/><path d="M439.958 250.889c-2.938-4.033-3.396-7.712-5.397-12.479-.105-.25-.175-.759-.189-1.198-.124-.304-.326-.845-.467-1.069 1.054.115 3.303-1.218 3.363-1.666.194.429.332.611.617 1.115.275.211.499.41.695.665 2.233 2.942 4.628 7.383 5.831 10.021.726 1.594 1.751 2.911.719 3.957-.973.985-1.924 1.878-2.725 1.776-1.07-.139-1.833-.331-2.447-1.122z"/></g></g><path d="M258.657 315.11a17.28 17.28 0 0 1-1.8-.097l-.39-.046.014-3.997-12.039-6.952a6.14 6.14 0 0 1 .679-.342l12.199-6.6 17.184 11.102-11.12 5.98c-1.243.641-2.911.952-4.727.952zm21.555-10.077l-17.143-11.067 6.139-3.322c1.64-.706 3.717-1.308 5.681-1.308 1.174 0 2.307.215 3.284.75 2.381 1.306 6.29 3.956 8.022 4.995 1.317.788 5.879 3.66 2.966 5.162-2.989 1.542-5.967 3.154-8.949 4.79z" class="L"/><path d="M274.504 308.178l-17.184-11.102 2.678-1.449 17.194 11.068-2.688 1.483zm3.495-1.929l-17.154-11.081 2.224-1.202 17.143 11.067-2.213 1.216z" class="O"/><path d="M277.192 306.695l-17.194-11.068.847-.459 17.154 11.081-.807.446z" class="M"/><g class="N"><path d="M205.942 344.771l1.432-.058c3.184.065 6.856-2.505 10.705-3.763.373-.122 1.448-.399 1.812-.369.712.061 2.6.086 3.169-.043 1.478-.337 3.67-2.031 4.188-6.177l-3.469 1.345c-.21.08-.316-.298.281-.773.374-.3 1.46-.909.988-1.779-1.12.534-1.596.696-2.61 1.461-.594.447-1.391 1.281-1.714 1.68-.326.407-1.162.614-1.592.715-3.38.964-8.625-.024-12.129 1.516-1.617.71-3.859.74-3.992 2.215-.126 1.39.206 2.322.706 2.964.645.825 1.217 1.109 2.225 1.066z" class="K"/><g class="X"><path d="M204.978 345.296c.438-.018 1.066-.122 1.576-.19 3.318-.449 8.424-2.265 11.408-3.685.26-.123.464-.51.73-.576.449-.113.984-.223 1.22-.203.272-.793-.05-2.777-.456-3.759-.39.113-.563.142-1.014.213-.296.048-.721-.193-1.037-.192-3.245.018-9.789.653-12.823 1.723-3.608 1.271-.386 6.703.396 6.669z"/><path d="M202.319 337.264c.869.616 1.797 1.195 2.264 1.253.057.006.908-.041 2.193-.089.975.598 2.832 5.655.826 6.469-.604.245-2.038.373-3.492.574-.774-.073-2.141-.715-3.593-1.43-2.279-1.122-8.527-2.561-11.154-5.186-1.053-1.053-1.815-3.043-1.609-3.969.643-2.907 3.995-3.754 6.477-2.824 2.538.949 5.111 2.983 8.088 5.202z"/></g><path d="M161.745 424.42l39.135-22.288c4.267-1.95 10.372-3.5 14.72-1.239 3.96 2.061 10.483 6.281 13.368 7.926 2.191 1.249 9.798 5.806 5.06 8.381-13.936 7.579-27.728 16.103-41.88 23.8-2.676 1.456-6.592 1.982-10.702 1.64-4.091-.339-8.289-1.531-11.591-3.451l-6.939-4.039c-3.069-1.788-4.698-3.901-4.858-5.856-.158-1.909 1.068-3.677 3.687-4.874z" class="W"/><path d="M256.481 310.97l-5.867 6.84-25.726 13.734-31.784-20.567 31.586-18.364 31.791 18.357z" class="D"/><path d="M256.481 310.97l-.109 30.1-31.584 18.357-1.517-13.295 1.617-16.807 31.593-18.355z" class="B"/><path d="M224.888 329.325l-.1 30.102-31.791-18.357.107-30.093 31.784 18.348z" class="C"/><path d="M238.147 336.464l.106-14.93 4.105-2.347-.036 14.85-4.175 2.427z" class="F"/><path d="M240.193 320.425l.574-.328-.098 14.902-.508.294.032-14.868z" class="B"/><path d="M238.253 321.534l-29.97-19.363 4.033-2.378 30.042 19.394-4.105 2.347z" class="E"/><path d="M210.141 301.075l.616-.364 30.01 19.385-.571.326-30.055-19.347z" class="C"/></g><path d="M226.865 328.177h0l-29.71-19.472.007-.002 28.753 16.601 9.489-5.61 2.849 1.84v.026l-11.388 6.617zm15.483-8.997l-2.903-1.874 3.409-2.016.004-1.18 3.93 2.491-4.44 2.579z" class="L"/><path d="M226.775 346.279l.09-18.102 11.388-6.617-.106 14.904 2.014-1.171h0l.508-.294h0l1.653-.962.036-14.85-.01-.007 4.44-2.579.006.002-.1 18.104-19.919 11.572z" class="I"/><path d="M238.147 336.464l.106-14.904v-.026l4.105-2.347-.036 14.85-1.653.962.098-14.902-.574.328-.032 14.868-2.014 1.171z" class="Q"/><path d="M240.161 335.293h0l.032-14.868.574-.328-.098 14.902h0l-.508.294z" class="I"/><path d="M238.253 321.534h0l-2.849-1.84 1.908-1.128 2.884 1.856.571-.326-2.887-1.865 1.565-.925 2.903 1.874.01.007-4.105 2.347z" class="O"/><path d="M240.196 320.422l-2.884-1.856.568-.335 2.887 1.865-.571.326z" class="M"/><g class="N"><path d="M242.953 288.044l-5.699 6.709-11.251 5.314-28.766-18.615 18.365-10.734 27.351 17.326z" class="D"/><path d="M242.953 288.044l-.099 27.246-16.939 10.014-1.374-12.034 1.462-15.211 16.95-10.015z" class="B"/><path d="M226.003 298.059l-.088 27.245-28.775-16.614.097-27.238 28.766 16.607z" class="C"/><path d="M233.427 307.148l.096-13.513 3.715-2.124-.031 13.441-3.78 2.196z" class="F"/><path d="M235.28 292.631l.519-.296-.09 13.488-.458.265.029-13.457z" class="B"/><path d="M233.523 293.635l-27.126-17.525 3.649-2.153 27.192 17.554-3.715 2.124z" class="E"/><path d="M208.078 275.117l.559-.329 27.162 17.546-.517.296-27.204-17.513z" class="C"/><g class="U"><path d="M193.612 385.603a36.45 36.45 0 0 0 .18-3.482c.047-5.658-1.87-10.933-1.701-15.901.091-2.655.8-5.086 2.082-6.529 1.912-2.154 10.875 2.53 10.899 3.1.129 3.131-1.911 16.404-2.266 19.667-.231 2.112-.833 4.161-1.435 6.27-3.668 1.031-6.528.481-7.759-3.125z"/><path d="M179.454 408.316l2.774-7.16c2.569-5.46 5.849-11.564 9.09-13.955 1.371-1.013 2.63-2.545 3.704-4.115 4.979-5.956 9.889 2.92 7.145 4.8-2.347 2.483-5.123 4.704-7.254 7.839-3.285 4.83-6.701 9.417-9.599 14.481-1.735 1.314-5.58-.049-5.86-1.89z"/></g><path d="M185.192 420.506s-1.625-.799-1.676-.979-.386-2.088-.386-2.088l.747-.981c1.758.062 3.81 1.123 2.693 3.049-.237.411-.677.766-1.378.999z" fill="#04304f"/><path d="M184.986 410.656l-.465 1.882c-.556 3.862-.63 4.454.98 7.814-1.823.874-5.317-.04-6.988-1.496-1.238-1.077.449-2.329-.155-3.919-.354-.931-1.388-2.341-1.602-4.052-.146-1.175-.132-2.302 1.963-2.885.555-.936 1.037-1.549 1.568-1.702 2.953-.101 3.722 3.04 4.699 4.358z" class="P"/><path d="M184.675 420.612c-1.912.357-4.718-.498-6.162-1.756-1.238-1.077.449-2.329-.155-3.919-.354-.931-1.388-2.341-1.602-4.052-.247-1.988 1.099-2.78 2.843-2.048 1.19.5 2.085 1.773 2.348 3.148.278 1.452.053 2.403-.086 3.292-.349 2.225 1.346 6.521 4.454 4.567-.452.473-1.029.654-1.64.768z" fill="#032040"/><path d="M205.894 418.934c.968-.149 3.32-1.257 6.385-1.694 1.244-.176 2.976.17 2.419 1.964-.744 2.405-2.917 4.157-5.051 5.006-.758.302-1.709.372-2.615.804-.704.335-.859.889-1.381 1.261-1.143.813-2.46.733-3.397.426-1.126-.367-1.538-.817-1.806-2.113-.247-1.189-.294-3.339.014-4.182.033-.154.092-.297.174-.432.183-1.341-.135-3.798-.398-6.616l6.082-1.633c-.408 3.195-.812 5.451-.426 7.209z" class="P"/><path d="M200.202 420.824c-.93-6.535-2.441-19.166.012-24.76 1.005-2.295 1.453-5.772 1.474-8.321.006-.703-.345-3.907-1.236-7.114-.913-3.293-2.838-6.622-3.324-9.87-.589-3.937.804-6.933.847-7.008 2.443-4.31 13.111.601 13.136 1.206 1.085 3.51.041 12.645-.201 14.803l-.049 1.51c-.013 1.53-.073 3.16-.192 4.951l-.045.647-.001.017-.015.19-.001.008-.013.169-.004.041-.015.171v.007l-.016.178-.001.004-.015.166-.003.032-.015.146-.001.016-.015.146-.003.022-.014.139-.004.032-.014.129-.002.016-.017.14-.001.009-.017.133-.002.019-.017.129v.006l-.018.128-.003.014-.017.118-.001.013-.058.364v.003l-.021.12-2.301 13.574c-.391 2.724-.646 5.288-.879 7.161-.134 1.079-.439 8.318-.579 8.842-.011 2.308-5.796 3.445-6.339 1.554z" class="J"/><path d="M193.641 361.802c1.449 4.305 13.379 8.864 17.435 2.815-.634-4.238-1.03-6.073-1.113-9.733-.123-5.487 1.373-12.947-.938-16.915-.496-.852-1.184-1.194-1.974-1.648-.604-.346-1.912-.878-3.531-1.453-3.874-1.376-9.53-2.999-11.576-2.921-4.528.123-5.045 3.961-4.426 8.112.507 3.379 2.524 10.477 5.278 15.692 1.215 2.3 1.377 4.419.845 6.051z" class="G"/><g class="J"><path d="M192.803 362.406c.488 1.451 2.303 3.073 4.65 4.354 4.621 2.524 11.305 3.73 13.995-.281-.309-4.24-1.402-7.935-1.485-11.595-.123-5.487 1.373-12.947-.938-16.915l-.018-.031c1.11 3.227.982 7.131.736 10.625-.166 2.345-.639 4.841-1.298 5.287-1.058.716-2.828.315-3.073-.222-.604-1.328-.991-2.022-2.969-2.606-3.413-1.007-6.086-2.186-10.303-3.63-2.039-.697-2.407-.56-2.423.76l.028.247c.851 2.501 1.903 5.102 3.091 7.352 1.215 2.3.773 4.466.007 6.655z"/><path d="M192.108 332.094c-2.547 3.182-3.661 10.688-2.618 15.731.056.27.398.568 1.024.651.669.088 1.625-.07 1.469-.681-1.256-4.842.265-12.533 2.734-15.378.235-.318-2.053-.81-2.609-.323z"/></g><path d="M190.265 346.619c-.318.187-.41.621-.204.969s.629.479.947.291.408-.622.204-.969-.63-.478-.947-.291z" class="T"/><path d="M190.216 346.606c-.304.178-.392.593-.195.926s.6.457.904.278.39-.593.195-.926-.601-.457-.904-.278z" class="G"/><path d="M203.955 335.135c-4.103 3.889-5.126 10.507-4.574 15.805.028.275.328.612.938.767.656.167 1.624.123 1.54-.503-.672-4.953.189-12.21 4.66-15.09.269-.288-1.955-1.398-2.564-.979z" class="J"/><path d="M200.293 349.834c-.338.148-.481.569-.318.938s.568.55.906.401.479-.568.317-.939-.568-.548-.905-.4z" class="T"/><path d="M200.245 349.816c-.323.142-.459.544-.303.896s.544.525.866.382.458-.542.302-.895-.543-.524-.865-.383z" class="G"/><g class="R"><path d="M203.81 329.512c-.478.337-3.171.37-3.057.592.225 1.203.703 1.867 1.068 3.55-2.721.329-6.593.201-7.315-1.753-.084-1.15-.224-2.363-.614-2.819-.766-.897-2.197-1.808-2.875-3.242-1.085-2.294-1.235-5.003.73-7.129 3.591-3.88 9.181-2.374 11.239 2.175.402.888-.253 1.503-.104 2.293.029.154.259.284.48.604.303.44 1.036 5.316.448 5.729z"/><path d="M203.704 329.528c-.253.19-1.406.269-2.304.074-.564-.123-1.022-.521-1.11-.543-.373-.087-1.322-1.073-.387-3.021.912-1.899-5.539 3.596-6.011 3.044-.766-.897-2.197-1.808-2.875-3.242-1.085-2.294-1.235-5.003.73-7.129 3.591-3.88 9.181-2.374 11.239 2.175.402.888-.253 1.503-.104 2.293.029.154.259.284.48.604.303.44.914 5.314.342 5.745z"/></g><path d="M200.255 326.687c.127-.642-.093-.834-.35-.728-.282.118-.634.605-.755 1.268-.194 1.069.507 2.275 1.41 1.623-.836.179-.914-.851-.758-1.516.106-.454.326-.796.453-.647z" class="K"/><path d="M199.911 327.021c.303.403.425.652.373.815-.038.114-.182.258-.487.042-.055-.304.009-.603.114-.857z" class="V"/><path d="M194.012 330.125c-.47-1.596-2.261-2.731-3.072-4.444-.696-1.475-.989-3.13-.529-4.673-.422-1.145 1.305-3.176 2.052-3.574-.056.107-.113.202-.159.36 2.175-1.622 2.877-1.476 5.512-1.551l-.794.294c1.434-.237 5.333.897 5.577 3.556-.675-1.101-1.249-.856-1.712-.458.642 1.317.214 2.696.048 3.034-.677 1.373-.667 1.552-.329 3.431l-.429.472c-.431-1.448-1.071-1.231-1.636-.639-.983 1.035.033 4.042-2.508 4.551-.706.143-1.592.047-2.021-.359z" class="g"/><path d="M194.462 331.834c-.88.232-1.2 1.426-.972 1.933 1.301 3.137 7.11 2.618 10.705 1.261.042-.016-1.592-1.484-2.34-1.606-2.302.589-6.375.227-7.393-1.588z" class="H"/><path d="M196.673 315.874c1.938-1.531 5.701-2.266 7.075-.975.965.906 2.103 3.563-2.647 6.33l-4.428-5.355z" class="G"/><path d="M191.7 326.155c.741.667 1.879 1.132 3.191.778-.413-.94-.816-2.076-2.149-1.996-.471.03-1.002.199-1.042 1.218zm9.952-6.452c.162 4.173-3.716 7.381-6.174 7.835-2.162.4-3.826-.19-4.88-2.062-.91-1.614-1.484-3.737-1.235-5.558.32-2.349 1.932-4.044 3.953-4.838a7.72 7.72 0 0 1 5.231-.107c1.834.632 3.006 2.182 3.105 4.73z" class="H"/><path d="M216.926 354.144l1.372.413c2.987 1.102 7.298-.126 11.347-.056.392.007 1.5.098 1.834.245.65.29 2.428.933 3.008.996 1.301.143 4.294-.612 6.039-3.198.279-.411 1.802-2.942 2.056-3.456-1.004.511-3.466 2.115-4.018 2.136-.677.026-1.174.167-1.818.186-.225.008-.201-.384.518-.639.452-.16 1.678-.38 1.517-1.357-1.234.139-1.736.135-2.945.527-.706.228-1.734.757-2.169 1.029-.442.276-1.298.2-1.738.153-3.51-.194-8.142-2.842-11.959-2.534-1.759.142-3.889-.564-4.496.788-.574 1.272-.565 2.261-.302 3.031.338.991.786 1.446 1.754 1.736z" class="K"/><g class="H"><path d="M215.843 354.325c.421.126 1.047.233 1.552.336 3.283.66 8.7.614 11.987.248.283-.032.605-.33.877-.307.461.042 1.004.113 1.22.209.517-.661.859-2.641.798-3.701-.405-.022-.579-.051-1.03-.131-.294-.052-.617-.418-.914-.521-3.073-1.044-9.466-2.583-12.684-2.565-3.824.021-2.557 6.207-1.806 6.432z"/><path d="M215.956 345.865c.622.866 1.308 1.716 1.732 1.925.05.023.872.258 2.101.632.725.883.827 6.271-1.337 6.384-.649.033-2.047-.315-3.486-.601-.709-.322-1.789-1.375-2.929-2.525-1.785-1.806-6.244-4.971-7.867-8.31-.652-1.34-.631-3.659-.133-4.468 1.558-2.535 3.89-2.503 5.93-.812 2.087 1.728 3.902 4.705 5.989 7.775z"/></g><path d="M227.072 254.056c-.315-4.886-1.222-14.079-2.105-18.785-1.461-7.797-8.202-5.669-8.49-1.108-.289 4.568 3.4 15.109 3.692 18.745.624 3.688 6.465 6.265 6.903 1.148z" class="G"/><path d="M270.665 270.081c.161.093.38.162.638.296.842 2.025 1.161 2.62.995 2.82-.136.166-.12.078-.193.485-.098.554 1.847 2.957 2.148 3.719.271.685.308 1.323.069 2.022-.427 1.249-1.148 2.472-2.073 3.513-.772.867-1.623 1.42-2.363 1.253-.912-.205-.757-1.023-.621-1.832.05-.288.599-.928.556-1.212-.243-1.622-1.43-3.035-2.299-4.44-.749-.696-2.006-1.426-2.704-2.23-1.005-1.162-1.195-2.384.055-3.095.397-.228 1.401-1.358 1.914-1.315.985.082 2.633-.712 3.878.016z" class="P"/><g class="U"><path d="M245.071 271.173c6.464 1.233 16.094 2.004 20.618 3.729 1.775-1.303 2.3-3.722 1.14-5.172-4.935-2.353-11.6-5.406-14.394-6.443-2.326-.861-6.846-.083-9.157-.207-5.099-.994-7.294 4.427-4.915 6.564 1.702.608 4.869 1.178 6.708 1.529z"/><path d="M237.001 265.433c-1.203 3.281 1.406 5.902 6.413 3.789 4.455-4.887 14.213-12.028 16.975-17.613 1.213-2.454 1.408-5.861 2.253-7.991-6.797 1.988-8.099-2.113-9.348-3.555-1.071 1.57-1.044 1.278-2.13 2.957l-12.743 19.697c-.605.855-1.181 1.854-1.42 2.716z"/></g><path d="M245.576 270.762c-.222 2.924 1.966 5.307 6.49 3.071 3.772-5.359 11.978-16.332 14.131-22.411 2.568-7.246-.38-11.381-4.338-13.659-1.405-.809-2.919.489-3.633-.378-1.691 3.296-3.215 7.777-4.204 11.809-1.378 5.624-7.95 17.556-8.446 21.568z" class="J"/><path d="M258.335 296.395c.954 1.322-1.621 7.968-2.248 9.367-.552 1.235-.377 1.991.931 2.01 1.032.016 2.668-1.445 3.665-2.4 1.871-1.792 1.978-3.618 2.521-4.395l.637-.205c.466-.264 1.845-2.062 1.919-2.744-.148-.46-.417-1.255-.71-1.851-1.018-1.878-1.241-1.056-2.582-2.205-1.53 1.109-.444 1.552-4.133 2.423z" class="P"/><g class="J"><path d="M246.128 273.62c2.791 5.406 9.738 17.596 12.19 23.014 2.163.456 4.355-.805 4.547-2.508-1.581-5.194-4.143-13.748-5.409-16.476-1.054-2.27-3.259-5.495-4.863-7.332-1.688-3.115-8.13-1.868-6.465 3.302z"/><path d="M247.571 247.045c-2.138.149-4.265 1.854-8.481 2.259-4.967.477-14.608-1.795-18.315-7.425-1.926-2.922-3.145-5.842-2.166-8.103 3.22-7.429 12.305-4.341 17.079-3.174 8.065 1.164 17.252 2.231 23.797 5.35 4.59 2.188 10.481 3.729 6.649 15.319-1.01 3.056-20.242 22.652-20.558 19.025-.565-6.459 7.173-20.817 6.489-21.692-.325-.416-3.827-1.605-4.494-1.559z"/></g><path d="M218.006 279.702l.662 3.334c.364.99.59 1.258 2.014.645.776-.36 1.037-.695.843-1.872-.213-1.295-.048-2.41.104-2.895.174-.557.527-.896.906-1.192.855-.662 1.85-1.098 1.28-3.26-.298-1.13-.207-1.965-.21-3.134l-2.938-.243c.021 2.624-1.173 4.373-2.426 6.56-.606 1.058-.474.86-.235 2.057z" class="K"/><g class="G"><path d="M220.226 273.108l3.48.402c.028-.319.024-.858.112-1.156.168-.566.662-.876.866-1.358.872-2.053 1.008-4.03 1.497-6.905.574-3.392.908-7.451.896-9.874-.017-3.328-7.077-6.159-6.857-.945-.165 2.855-.711 14.85-.143 17.423.106.485.338.792.343 1.334.004.411-.099.58-.194 1.079zm11.327-27.797c-1.737.75-2.328 1.561-4.844.338-3.466-1.412-5.54-3.51-6.906-7.313-.965-2.685-.575-5.28 3.504-6.446 1.651-.472 3.757-.396 5.396.435 1.766.898-.858 9.449 2.85 12.986zm.469-8.369c-.814 3.477-.341 7.782 4.45 9.426 5.066 1.738 8.088.519 9.104-2.421.746-2.166.132-5.123-2.963-7.765-3.196-2.731-9.725-2.946-10.591.76z"/></g><path d="M227.372 232.795c-.904-.282-2.131-.45-3.453-.75l-2.482 6.041c.87.003 1.242 1.573 2.078 1.672.527.063 1.074.109 1.675.094 4.832-.129 4.762-6.249 2.182-7.057z" class="V"/><g class="H"><path d="M225.118 239.88c-.298-.132-.782-.532-1.256-.828l-1.797-1.022c-.262.439 1.498 2.653 1.933 3.89.192-1.046.423-1.351 1.12-2.04z"/><path d="M226.567 232.549c1.607 1.429-.231 5.36-1.463 7.347.89.085 2.024.181 2.487.689.848-1.474 2.276-3.981 1.598-6.264-.464-1.559-1.69-1.893-2.622-1.772z"/></g><path d="M220.029 241.537l2.85-2.317c1.299-1.115 1.036-2.391 1.281-4.439 1.218-1.017 1.594-1.78 1.648-2.613.124-1.979-1.152-4.005-2.735-5.045-1.382-.91-2.907-1.078-4.57-.578-3.23.966-4.396 3.555-4.353 6.407a1.91 1.91 0 0 0 .145.7l.384 1.032c.235.829.055 1.906.362 2.936.417 1.4 1.122 2.869 1.564 3.376.423.487.851.769 1.435.834.547.061 1.079.255 1.989-.293z" class="K"/><path d="M226.3 231.199c-.005 1.093-.355 2.153-.92 3.238-1.036 1.984-1.526 1.032-2.235-.259-.093.504-.229.998-.535 1.195-.194.127-.592.31-.652-.272-.209-2.011-1.174-2.079-.963-3.31.157-.922.073-1.307-.174-1.618-.65.142-1.023.848-1.769 1.24-.731.382-4.658.658-4.975-.238-.755-2.131.567-4.121 2.532-5.331 4.833-2.979 9.714.628 9.691 5.355z" fill="#4f2b0c"/><path d="M216.344 239.35c.13-.02.183.05.337.086.244-.018.324-.013.5.046.322.111.373.323.853.444.145.036.12.064-.025.139-.232.121-1.076.136-1.427-.002-.234-.093-.162-.235-.284-.365-.09-.1-.213-.305.046-.348z" class="e"/><g class="f"><path d="M217.838 235.197c.705.17 1.249.171 1.992-.289-.695.622-1.374.622-1.992.289zm-1.951-.328c-.695-.044-.851-.097-1.35-.388.386.438.706.496 1.324.504l.026-.116zm.204.636c-.108.674-.095 1.012-.394 1.492-.515.825-.226 1.142.627 1.228-.903-.234-.806-.493-.478-1.227.204-.457.206-.74.245-1.493z"/><path d="M214.888 234.752c.082.312.393.437.614.198-.219-.04-.4-.07-.614-.198zm3.267.523c.14.338.511.431.723.129-.252-.012-.461-.018-.723-.129z"/></g><path d="M223.607 233.112c1.197-.656 1.461.812 1.421 1.737-.03.636-.543.677-.642 1.193-.116.614-.518.96-.901 1.015-.779.116-.5-1.119-.487-1.592-.222-.732-.15-1.938.609-2.353z" class="K"/><path d="M213.707 231.168l-2.007 1.388c-1.607 1.113-.802 1.931 1.066 2.754 1.84.811 2.948.826 4.847.047l5.229-2.344c1.919-.899 1.792-.833 3.431-2.272l-12.566.427z" class="X"/><path d="M213.558 230.762l-1.968 1.386c-1.598 1.128-.803 1.933 1.066 2.755 1.839.811 2.947.825 4.845.047l7.011-3.2-10.954-.988z" class="G"/><path d="M226.362 230.652c-.014-3.449-1.775-5.516-3.99-6.347-3.937-1.477-9.313.956-8.872 6.495 2.142 2.733 9.981 2.426 12.862-.148z" class="H"/></g><path d="M226.532 297.747l-15.464-8.874 7.94-4.615 14.5 9.367-6.976 4.122zm10.634-6.283l-14.478-9.346 3.582-2.082 15.37 8.784-4.474 2.644z" class="L"/><path d="M226.538 302.162l.002-4.411-.008-.004 6.976-4.122.015.01-.031 4.452-6.954 4.075zm10.69-6.265l.01-4.386-.072-.047 4.474-2.644.047.026-.117.069-.006 4.442-4.336 2.54z" class="I"/><path d="M233.492 298.087l.031-4.452 1.759-1.005h0l-.002.001-.009 4.414-1.779 1.042zm2.277-1.335l.03-4.417-.497.285.185-.108 1.751-1.001-.01 4.386-1.459.855z" class="Q"/><path d="M235.271 297.045l.009-4.414.002-.001h0l.02-.01.497-.285-.03 4.417-.498.293z" class="I"/><path d="M233.523 293.635h0l-.015-.01-14.5-9.367.439-.255.101.005c.264 0 .622-.106 1.134-.327a3.12 3.12 0 0 0 .382-.204l14.218 9.153-1.759 1.005zm1.964-1.123l.312-.178-14.341-9.264a1.1 1.1 0 0 0 .101-.295l1.129-.657 14.478 9.346.072.047-1.751 1.001z" class="O"/><path d="M235.282 292.63h0l-14.218-9.153c.176-.116.307-.244.394-.407l14.341 9.264-.312.178-.185.108-.02.01z" class="M"/><path d="M219.548 284.008c-.035 0-.069-.002-.101-.005l2.112-1.228a1.1 1.1 0 0 1-.101.295c-.087.163-.218.291-.394.407a3.12 3.12 0 0 1-.382.204c-.512.221-.87.327-1.134.327z" fill="#c78557"/><g class="N"><path d="M235.383 270.776l-2.822 3.292-12.382 6.611-15.297-9.899 15.202-8.839 15.299 8.835z" class="D"/><path d="M235.383 270.776l-.051 14.487-15.201 8.835-.731-6.4.779-8.088 15.204-8.834z" class="B"/><path d="M220.179 279.61l-.048 14.488-15.3-8.835.051-14.483 15.297 8.83z" class="C"/><path d="M226.56 283.047l.052-7.186 1.974-1.13-.015 7.147-2.011 1.169z" class="F"/><path d="M227.545 275.327l.277-.158-.049 7.172-.242.142.014-7.156z" class="B"/><path d="M226.612 275.861l-14.425-9.32 1.941-1.145 14.458 9.335-1.974 1.13z" class="E"/><path d="M213.081 266.014l.298-.175 14.443 9.33-.275.157-14.466-9.312z" class="C"/><path d="M222.823 280.559l2.51-1.642c.383-.263.911-.166 1.466.334l-1.447 2.455-1.301-.454-.935-.393-.293-.3z" class="R"/><g class="K"><path d="M230.313 273.405c-.658 1.101.057 3.254-.158 4.389-.229 1.21-.232 2.317-1 3.22-.833.751-2.276 1.302-3.211 1.658-.366.14-2.734-1.088-3.186-1.343-.457-1.977 2.289.004 2.406-.34l1.009-3.315c.142-.811-1.128-.362-1.117-.554.185-3.052 2.331-2.93 2.846-4.635l2.411.92z"/><path d="M230.458 273.368c-.658 1.102-.088 3.291-.303 4.426-.229 1.21-.085 2.259-.855 3.162-1.041.939-2.083 1.144-3.373 1.711.737-1.437 1.727-4.039 2.272-5.144.565-1.145.715-3.612 1.207-4.796l1.052.641zm-4.545 3.797c-.214.169-.981.336-1.262.824-.473.827-.857 1.597-1.565 1.121.281-.995.473-1.28.69-1.984.178-.164 1.307-2.029 2.034-2.631.596-.491 1.026-.515 1.836-1.272 2.171 2.428-1.573 3.815-1.733 3.942z"/></g><g class="H"><path d="M227.611 272.95c.974.842 1.583.948 2.696 1.22.119-.298.432-.803.602-1.062.187-.285 1.049-.556 1.385-.957 1.782-2.136 6.626-11.605 7.202-14.203.721-3.249-5.087-7.081-6.383-2.026-1.379 2.742-4.472 11.699-5.143 14.606-.113.484-.008 1.007-.012 1.343-.004.282-.113.628-.347 1.079z"/><path d="M237.934 259.845c1.118-.667 1.53-1.412 1.752-2.79 1.171-4.845 2.242-10.905 2.09-15.708-.116-3.668-1.901-6.773-6.205-5.577-1.322.366-2.854 1.372-3.049 3.114-.233 2.084.076 5.547.274 9.084l.486 9.597c.021 1.605 1.305 2.561 4.652 2.28z"/></g><g class="W"><path d="M481.696 487.586l-30.334 16.608-69.52-40.109 30.341-16.61 69.513 40.111z"/><path d="M474.858 491.261l-30.335 16.607-144.683-85.132 30.341-16.61 144.677 85.135z"/></g><g class="P"><path d="M318.909 409.995c-.389.071-1.04.253-1.51.196l-.425-.05c-1.148-.12-2.166-.068-3.218.605-.218.139-.569.322-.673.498-.326 1.032-.253 2.51.129 3.731l.002.008.003.006.003.008.001.008.002.007.003.008.003.008.001.008.002.007.003.008.003.009.006.025.003.008.002.009.004.017.003.007.006.026.005.017.006.019.01.032.021.062.001.005.014.035.011.021.031.054.006.009.005.007.004.003.005.007.007.005.009.008c.404.307.861.663 1.078 1.85.404 2.22-.824 3.564-.337 5.987l.017.077.009.039c.455 1.851 2.365 3.58 4.261 3.657.555.022 2.539-.962 2.097-2.052-.148-.364-.871-.433-1.127-1.458-.134-.53-.227-1.04-.13-1.598.215-1.241.95-2.653 1.897-5.444-3.187-1.506-2.702-4.45-2.253-6.499zm16.854 17.276c-.096.201-.261.409-.423.714-.037 2.049-.031 3.276.201 3.982.065.196.345.339.533.565.207.248.247.896.242 1.513-.011 1.216.12 1.999.312 3.075.158.88.659 1.56 1.304 2.134a11.71 11.71 0 0 0 4.063 2.326c1.247.41 2.381.443 2.977-.197.736-.788.097-1.537-.517-2.287-.219-.268-.605-.534-.736-.855-.743-1.832-.594-4.547-.619-6.551.494-1.538 3.09-7.208-1.267-6.984l-1.416.127.062-.023c-1-.134-3.677.282-4.716 2.461z"/></g><path d="M368.523 405.056c-8.294 8.059-14.566 7.684-25.601 7.596-8.871-.071-14.058 1.643-22.308 3.851-2.325.297-3.521-5.045-1.8-6.248 4.946-1.89 8.837-4.786 13.264-6.286 1.563-.529 4.23-.978 6.098-1.038 5.515-.175 8.288-.561 12.861-4.546.963-1.561 2.388-2.532 4.063-3.119 2.436-.854 5.439-.723 8.631 1.004l4.792 8.786z" class="U"/><path d="M357.357 394.57c-.72.541-2.165.421-2.935.8-11.643 5.72-1.823 19.076 3.408 27.212-4.602-.283-10.197 1.32-15.953 1.974-2.634.561-1.18 5.812 1.001 6.766 6.777.506 11.604.114 17.84.61 1.51.12 5.389.413 6.419.032 1.885-.699 2.76-2.153 2.594-4.573-.617-8.996-2.982-14.602-5.953-20.663.921-1.254 1.224-1.439 2.395-2.457l-5.713-6.45-3.103-3.251z" class="J"/><path d="M419.822 396.322l1.823-1.192c-.57-.896-1.58-.183-2.846.451l-.05.019c.854-.681 2.148-1.232 3.359-1.383 1.418-.176 2.458-.372 2.894-1.217.747-1.548.193-2.373-.171-2.262-.899-.023-2.658.266-3.973.204-1.243-.058-2.173-.027-2.8.298l-3.545 1.732c-1.17.451-2.392.723-3.842.649l.132 3.267c1.294.06 2.226-.001 3.463.381a5.32 5.32 0 0 0 .567.145l.276.105c.566.175 1.191.168 1.926.124 1.071-.063 1.948-.986 2.787-1.321z" class="R"/><g class="G"><path d="M412.682 392.864c.047 1.294.263 3.424.437 4.71-5.316 1.359-14.923 3.029-20.409 2.378-1.482-.177-1.601-.046-2.385-1.359-1.261-1.927-2.349-3.682-3.322-5.442l5.595-8.452c.326 1.069 1.859 7.075 2.344 8.22l.024-.005c3.192-.543 8.679-.446 11.95-.218 2.418.168 3.448.509 5.766.168z"/><path d="M368.309 382.277c-4.235 2.018-7.748 8.64-11.392 12.617-.931 3.205.083 5.866 2.381 8.062 1.843 1.762 3.717 2.431 9.308 2.216 3.973-2.649 7.601-3.56 12.072-5.406 2.029-.498 3.78-1.011 5.508-2.258 1.816-1.309 4.008-3.499 5.538-5.823 2.196-3.334 2.249-9.156-2.805-11.003-5.836-2.134-14.633-1.255-20.61 1.595z"/></g><path d="M378.139 395.085c.895-1.544 1.523-2.769 1.639-4.615.234-3.767-.835-6.615.233-8.064 1.215-1.651 3.378-1.939 5.293-1.9 4.728.097 5.888 2.782 5.612 5.954-.39 4.487-1.608 6.907-4.944 9.415-2.988.483-5.027.622-7.833-.79zm-1.823-11.17c1.753 3.304 2.425 7.79-1.988 10.736-4.666 3.114-8.053 2.688-9.866-.02-1.337-1.993-1.503-5.152.923-8.656 2.507-3.619 9.063-5.583 10.931-2.06zm-8.007-1.638c-4.235 2.018-7.748 8.64-11.392 12.617-.931 3.205.083 5.866 2.381 8.062 1.843 1.762 3.717 2.431 9.308 2.216 3.973-2.649 7.601-3.56 12.072-5.406 2.029-.498 3.78-1.011 5.508-2.258 1.816-1.309 4.008-3.499 5.538-5.823 2.196-3.334 2.249-9.156-2.805-11.003-5.836-2.134-14.633-1.255-20.61 1.595z" class="J"/><path d="M383.414 381.839c.99-.308 2.332-.494 3.779-.82l2.714 6.607c-.951.002-1.359 1.719-2.273 1.829-.576.068-1.175.119-1.833.101-5.284-.139-5.207-6.835-2.387-7.717z" class="V"/><g class="H"><path d="M385.88 389.587c.327-.143.855-.582 1.375-.906l1.966-1.118c.287.481-1.64 2.903-2.116 4.257-.209-1.145-.462-1.479-1.225-2.233z"/><path d="M384.296 381.569c-1.758 1.563.253 5.862 1.6 8.036-.973.095-2.213.197-2.721.754-.926-1.613-2.489-4.355-1.747-6.85.508-1.708 1.848-2.072 2.868-1.94z"/></g><path d="M391.447 391.4l-3.117-2.535c-1.421-1.219-1.132-2.614-1.4-4.854-1.332-1.112-1.745-1.947-1.802-2.859-.138-2.164 1.258-4.38 2.988-5.517 1.515-.995 3.182-1.179 5.001-.635 3.532 1.06 4.807 3.889 4.762 7.011-.004.268-.057.507-.16.764l-.419 1.129c-.26.908-.063 2.084-.397 3.211-.456 1.531-1.227 3.139-1.711 3.693-.464.532-.93.842-1.57.912-.597.067-1.18.279-2.175-.32z" class="K"/><path d="M384.589 380.093c.005 1.195.387 2.356 1.006 3.54 1.133 2.172 1.669 1.13 2.445-.282.1.55.249 1.092.583 1.308.212.137.649.338.715-.298.228-2.201 1.282-2.275 1.053-3.621-.171-1.009-.079-1.43.19-1.769.71.155 1.118.927 1.933 1.355.801.42 5.096.72 5.444-.259.825-2.332-.621-4.507-2.77-5.832-5.287-3.257-10.625.688-10.599 5.858z" fill="#4f2b0c"/><path d="M395.477 389.009c-.141-.023-.2.053-.368.092-.267-.019-.355-.013-.547.053-.351.119-.408.353-.934.483-.158.039-.131.072.029.153.254.134 1.176.148 1.561-.004.254-.099.177-.255.309-.399.1-.107.232-.331-.05-.378z" class="e"/><g class="f"><path d="M393.843 384.465c-.77.185-1.366.188-2.177-.315.759.679 1.502.68 2.177.315zm2.134-.358c.762-.048.931-.105 1.477-.425-.424.478-.772.543-1.447.551l-.03-.126zm-.222.696c.117.736.104 1.107.43 1.631.563.903.247 1.25-.686 1.343.987-.254.883-.54.523-1.341-.224-.5-.224-.809-.267-1.633z"/><path d="M397.07 383.979c-.089.341-.429.478-.671.218.239-.046.437-.078.671-.218zm-3.574.571c-.153.371-.558.473-.79.141.276-.013.505-.019.79-.141z"/></g><path d="M387.533 382.183c-1.308-.716-1.598.889-1.553 1.901.031.696.592.742.701 1.306.128.671.566 1.05.986 1.111.851.126.546-1.224.533-1.742.241-.802.164-2.12-.667-2.576z" class="K"/><path d="M398.363 380.059l2.193 1.517c1.759 1.218.877 2.113-1.166 3.014-2.011.886-3.224.902-5.299.051l-5.721-2.564c-2.098-.983-1.96-.912-3.753-2.486l13.746.468z" class="X"/><path d="M398.525 379.613l2.153 1.519c1.748 1.232.877 2.111-1.167 3.011-2.011.888-3.223.903-5.298.052l-7.669-3.5 11.981-1.082z" class="G"/><path d="M384.519 379.494c.017-3.771 1.942-6.034 4.364-6.942 4.307-1.615 10.187 1.045 9.706 7.105-2.343 2.988-10.918 2.652-14.07-.163z" class="H"/><path d="M407.531 401.563l3.582 1.18c1.04.537 1.304.82.439 2.304-.503.807-.908 1.048-2.176.677-1.398-.409-2.648-.379-3.203-.278-.637.116-1.058.458-1.435.838-.845.851-1.459 1.887-3.763.969-1.204-.481-2.136-.495-3.422-.656l.129-3.268c2.887.378 4.974-.701 7.552-1.785 1.246-.524 1.011-.404 2.297.019z" class="K"/><path d="M398.971 402.673c-.057 1.294-.012 3.435.061 4.73-5.408.933-15.517 2.131-20.935 1.044-1.416-.284-2.579-1.732-3.319-3.093-3.015-4.637-5.917-9.758-7.531-14.838-1.233-3.88-.513-7.788 4.432-8.127 1.518-.104 3.272.506 4.338 2.131 2.788 4.247 3.802 13.087 5.465 16.778 3.245-.254 8.571.27 11.754.748 2.398.36 3.396.783 5.735.627z" class="H"/><path d="M444.686 438.414l-5.868 6.84-25.725 13.734-31.783-20.565 31.585-18.365 31.791 18.356z" class="D"/><path d="M444.686 438.414l-.108 30.102-31.584 18.355-1.517-13.293 1.616-16.807 31.593-18.357z" class="B"/><path d="M413.093 456.771l-.099 30.1-31.791-18.355.107-30.093 31.783 18.348z" class="C"/><path d="M426.351 463.908l.107-14.928 4.106-2.347-.037 14.849-4.176 2.426z" class="F"/><path d="M428.399 447.871l.574-.329-.1 14.901-.506.294.032-14.866z" class="B"/><path d="M426.458 448.98l-29.971-19.363 4.034-2.38 30.043 19.396-4.106 2.347z" class="E"/><path d="M398.346 428.521l.617-.364 30.01 19.385-.57.326-30.057-19.347z" class="C"/><path d="M476.653 456.846l-5.869 6.84-25.726 13.734-31.782-20.566 31.585-18.365 31.792 18.357z" class="D"/><path d="M476.653 456.846l-.109 30.1-31.584 18.357-1.518-13.295 1.616-16.807 31.595-18.355z" class="B"/><path d="M445.058 475.201l-.098 30.102-31.791-18.357.107-30.092 31.782 18.347z" class="C"/><path d="M458.317 482.34l.108-14.93 4.105-2.347-.036 14.85-4.177 2.427z" class="F"/><path d="M460.365 466.301l.573-.329-.099 14.903-.506.294.032-14.868z" class="B"/><path d="M458.425 467.41l-29.972-19.363 4.033-2.378 30.044 19.394-4.105 2.347z" class="E"/><path d="M430.312 446.951l.617-.364 30.01 19.385-.571.327-30.056-19.348z" class="C"/></g><clipPath id="B"><path d="M469.068 452.466l-1.641-.947.081-.047 1.56.994z" fill="#fff"/></clipPath><g clip-path="url(#B)"><path d="M467.427 451.472h1.641v.994h-1.641v-.994z" fill="#d2bea5"/></g><path d="M413.294 456.654l-.805-.469 4.383-1.61-3.578 2.079z" class="L"/><path d="M413.456 456.749l-.162-.095 3.578-2.079.876-.321-4.292 2.495z" class="I"/><path d="M445.124 475.162l-31.668-18.413 4.292-2.495 12.949-4.759 4.223 2.73-.409 4.248 1.518 13.293 13.711-7.968 8.685 5.612v.026l-13.301 7.726zm17.395-10.106l-8.71-5.622 13.618-7.915 1.641.947 7.211 4.596-13.76 7.994z" class="L"/><path d="M445.085 493.295l.09-18.103-.051-.03 13.301-7.726-.108 14.904 4.177-2.427.036-14.85-.011-.007 13.76-7.994.008.004-.098 18.104-31.104 18.125z" class="I"/><path d="M458.317 482.34l.108-14.904v-.026l2.049-1.172-.109.063-.032 14.868.506-.294.099-14.903h.001l1.591-.909-.036 14.85-4.177 2.427z" class="Q"/><path d="M460.333 481.169l.032-14.868.109-.063.36-.205.104-.06-.099 14.902-.506.294z" class="I"/><path d="M458.425 467.41h0l-8.685-5.612 1.911-1.11 8.717 5.611.466-.266-.36.205-2.049 1.172zm2.514-1.438l-8.705-5.623 1.575-.915 8.71 5.622.011.007-1.591.909zm-26.019-13.747l-4.223-2.73 2.271-.834 2.161 1.391-.209 2.173zm.277-2.881l-1.482-.957 1.631-.599-.149 1.556z" class="O"/><path d="M460.368 466.299l-8.717-5.611.583-.339 8.705 5.623-.001.001-.104.06-.466.266zm-25.239-16.247l-2.161-1.391.747-.274 1.482.957-.068.708z" class="M"/><g class="N"><path d="M383.56 409.316l6.296 7.411 12.43 5.871 31.782-20.566-20.289-11.858-30.219 19.142z" class="D"/><path d="M383.56 409.316l.11 30.102 18.714 11.063 1.518-13.293-1.616-16.807-18.726-11.065z" class="C"/><path d="M402.286 420.381l.098 30.1 31.793-18.355-.109-30.094-31.782 18.349z" class="B"/><path d="M394.084 430.423l-.106-14.93-4.105-2.346.036 14.849 4.175 2.427z" class="D"/><path d="M392.038 414.384l-.574-.328.099 14.902.507.294-.032-14.868z" class="B"/><path d="M393.978 415.493l29.971-19.363-4.034-2.378-30.042 19.395 4.105 2.346z" class="E"/><path d="M422.09 395.034l-.616-.364-30.01 19.386.571.327 30.055-19.349z" class="C"/><path d="M467.722 421.309l-5.867 6.84-25.726 13.736-31.784-20.567 31.586-18.365 31.791 18.356z" class="D"/><path d="M467.722 421.309l-.109 30.102-31.584 18.355-1.518-13.293 1.618-16.807 31.593-18.357z" class="B"/><path d="M436.129 439.666l-.1 30.1-31.791-18.355.107-30.093 31.784 18.348z" class="C"/><path d="M449.386 446.804l.108-14.929 4.105-2.347-.036 14.849-4.177 2.427z" class="F"/><path d="M451.434 430.765l.574-.328-.099 14.901-.507.294.032-14.867z" class="B"/><path d="M449.494 431.875l-29.971-19.364 4.034-2.379 30.042 19.396-4.105 2.347z" class="E"/><path d="M421.382 411.415l.616-.364 30.01 19.386-.57.326-30.056-19.348z" class="C"/></g><path d="M438.106 438.517l-29.711-19.472 12.836-5.43 28.263 18.26v.025l-11.388 6.617zm15.483-8.996l-27.695-17.879 4.788-2.025 27.347 17.324-4.44 2.58z" class="L"/><path d="M438.016 456.619l.09-18.102 11.388-6.617-.108 14.904 2.016-1.172h0l.507-.294 1.654-.961.036-14.849-.01-.007 4.44-2.58.004.002-.098 18.105-19.919 11.571z" class="I"/><path d="M449.386 446.804l.108-14.904v-.025l1.94-1.11-.032 14.867-2.016 1.172zm2.523-1.466l.099-14.901h0l1.591-.909-.036 14.849-1.654.961z" class="Q"/><path d="M451.402 445.632h0l.032-14.867.003-.002h.001l.57-.326-.099 14.901-.507.294z" class="I"/><path d="M449.494 431.875h0l-28.263-18.26 2.153-.911 28.054 18.059-.004.002-1.94 1.11zm2.514-1.438l-27.915-18.032 1.801-.763 27.695 17.879.01.007-1.591.909z" class="O"/><path d="M451.438 430.763h0l-28.054-18.059.709-.299 27.915 18.032h0l-.57.326z" class="M"/><g class="N"><path d="M454.194 398.385l-5.7 6.708-11.248 5.314-28.769-18.615 18.365-10.733 27.352 17.326z" class="D"/><path d="M454.194 398.385l-.1 27.245-16.938 10.015-1.374-12.035 1.464-15.212 16.948-10.013z" class="B"/><path d="M437.246 408.398l-.09 27.247-28.777-16.616.098-27.237 28.769 16.606z" class="C"/><path d="M444.667 417.489l.097-13.514 3.716-2.123-.033 13.44-3.78 2.197z" class="F"/><path d="M446.521 402.971l.519-.296-.089 13.488-.46.267.03-13.459z" class="B"/><path d="M444.764 403.975l-27.127-17.526 3.65-2.153 27.193 17.556-3.716 2.123z" class="E"/><path d="M419.319 385.458l.559-.33 27.162 17.547-.517.295-27.204-17.512z" class="C"/></g><path d="M611.874 71.652h30.549v164.766H522.997V71.652h30.328" fill="#4e8fe3"/><path d="M614.429 77.945h20.822V228.7H530.169V77.945h20.822 63.438z" fill="#fff"/><g fill="#ffd422"><path d="M565.285 101.765h54.836v13.26h-54.836zm0 29.007h54.836v13.26h-54.836zm.644 29.004h54.836v13.26h-54.836zm0 31.458h54.836v13.26h-54.836z"/></g><g fill="#b6e892"><path d="M545.636 114.537c-.764 0-1.527-.291-2.11-.874l-5.648-5.648c-1.165-1.165-1.165-3.054 0-4.219s3.055-1.166 4.221 0l3.537 3.537 7.678-7.679c1.167-1.165 3.056-1.165 4.221 0s1.165 3.055 0 4.22l-9.789 9.789c-.583.583-1.347.874-2.11.874zm0 29.006h0c-.791 0-1.55-.315-2.11-.875l-5.648-5.647c-1.165-1.166-1.165-3.055.001-4.22s3.054-1.165 4.22 0l3.537 3.537 7.678-7.678c1.166-1.166 3.055-1.166 4.221 0s1.165 3.055 0 4.22l-9.789 9.788c-.56.56-1.319.875-2.11.875zm0 29.12h0c-.791 0-1.55-.314-2.11-.874l-5.648-5.648c-1.165-1.165-1.165-3.054.001-4.219s3.054-1.166 4.22 0l3.537 3.537 7.678-7.679c1.166-1.165 3.055-1.165 4.221 0s1.165 3.055 0 4.22l-9.789 9.789c-.56.56-1.319.874-2.11.874zm0 33.079h0c-.791 0-1.55-.315-2.11-.875l-5.648-5.647c-1.165-1.166-1.165-3.055.001-4.22s3.054-1.165 4.22 0l3.537 3.537 7.678-7.678c1.166-1.166 3.055-1.166 4.221 0s1.165 3.054 0 4.22l-9.789 9.788c-.56.56-1.319.875-2.11.875z"/></g><g fill="#4e8fe3"><path d="M611.081 84.999h-56.742a3.35 3.35 0 0 1-3.348-3.348V56.033a3.35 3.35 0 0 1 3.348-3.348h56.742a3.35 3.35 0 0 1 3.348 3.348v7.741 17.877a3.35 3.35 0 0 1-3.348 3.348zm4.626 151.419h34.563v7.633H515.151v-7.633h34.313 66.243z"/></g><path d="M550.991 68.273v13.378a3.35 3.35 0 0 0 3.348 3.348h56.741a3.35 3.35 0 0 0 3.348-3.348V68.273h-63.437z" fill="#315591"/><clipPath id="C"><path d="M542.919 179.258H713V494.77H542.919z" fill="#fff"/></clipPath><g clip-path="url(#C)"><path d="M578.881 354.805c-14.909 0-28.206-.371-36.878-.952l2.293-2.075-.193-1.26c8.646-.505 21.028-.822 34.778-.822 26.138 0 47.325 1.141 47.325 2.554s-21.187 2.555-47.325 2.555z" fill="#71bde1"/><path d="M601.401 342.51l4.763-1.025.67 5.451 1.179 2.481.3 1.26-3.735.931-1.02-.31-1.716.369-.339.65-8.443.03-.201-.853 5.733-1.023 2.932-2.824-.123-5.137z" fill="#1a2958"/><linearGradient id="D" x1="583.819" y1="308.868" x2="607.226" y2="308.868" gradientUnits="userSpaceOnUse"><stop offset="0" stop-color="#1868b3"/><stop offset="100%" stop-color="#208aee"/></linearGradient><path d="M583.819 273.489l11.325 41.109 5.441 32.144 6.641-.86-3.496-31.475-1.833-43.416-18.078 2.498z" fill="url(#D)"/><g fill="#ffc590"><path d="M554.843 196.145l.942-.101.279 2.739.125-.015-.381-3.577.945-.104.38 3.58.131-.014-.446-4.105.944-.102.446 4.103.138-.015-.388-3.643.944-.104.54 5.075 1.093-1.434.691.239-1.889 3.095.027 1.513.584 2.845-3.433.475-.633-3.63-.34-1.827-.19.022-.509-5.015zm29.667 2.229l-.576.739 2.66 1.6-.076.099-3.469-2.105-.573.744 3.466 2.103-.078.102-3.975-2.42-.577.742 3.978 2.418-.086.111-3.532-2.144-.576.74 4.922 2.984-2.014.201-.099.702 4.108-.042 1.531.775 2.619 1.909 2.199-2.644-3.399-2.344-1.698-1.194.115-.148-4.87-2.928zm13.9 26.614l-9.484-4.178-2.256 4.122-2.361 2.325.639.817-.308 2.17c-.213.496.076 1.049.632 1.219l3.993 1.255-.639 8.901 6.109.191-1.422-8.532 5.097-8.29z"/></g><path d="M594.964 237.538l-6.612-1.484-1.99.742 8.782 2.07-.18-1.328z" fill="#208aee"/><g fill="#1a2958"><path d="M590.924 218.807s.49.026 1.972.867 2.251 1.342 2.66 2.032 2.854 1.73 3.195 2.006.47 2.59-.055 3.5c-.341.593-3.748 3.587-3.748 3.587l-2.566-1.453-.003-3.694-.738-.468-1.14.863-.498-.364.621-1.172-.483-.889c-.84.102-1.588-.401-2.198-2.169-.838-2.417.73-2.878 2.981-2.646zm-19.8 122.413l4.596-.244v6.941l.584 2.701.05 1.212-3.628.305-.887-.435-1.659.087-.43.553-8.391.515-.034-.82 6.062-1.838 3.224-2.181.513-6.796z"/></g><linearGradient id="E" x1="570.138" y1="307.055" x2="596.487" y2="307.055" gradientUnits="userSpaceOnUse"><stop offset="0" stop-color="#1868b3"/><stop offset="100%" stop-color="#208aee"/></linearGradient><path d="M575.003 268.132l-4.267 41.194-.598 37.863 6.474.087 2.311-37.059 17.564-43.38-21.484 1.295z" fill="url(#E)"/><linearGradient id="F" x1=".093" y1=".633" x2=".983" y2=".119" gradientTransform="matrix(57.006,0,0,72.369,555.417,204.033)" gradientUnits="userSpaceOnUse"><stop offset="0" stop-color="#223675"/><stop offset=".27027%" stop-color="#223675"/><stop offset="100%" stop-color="#2d489c"/></linearGradient><path d="M611.138 215.631l-7.457-5.043-10.258-6.555-3.24 2.859 16.13 12.6-4.481 20.913-23.587-5.424-.167.005c-.796-1.815-2.363-3.351-4.525-4.156l-8.43-9.178-4.972-17.401-4.734.262 1.743 8.75 1.943 7.408c.584 3.644 1.267 4.145 3.821 7.368l12.47 18.949-.563 25.012 26.956 4.403 9.082-29.751c.543-1.328.665-3.327.645-4.582l.628-17.925c.355-4.162.665-4.948-1.004-8.514z" fill="url(#F)"/></g></g></svg>