<svg xmlns="http://www.w3.org/2000/svg" viewBox="0 0 800 550" width="1066.667" height="733.333" xmlns:v="https://vecta.io/nano"><style><![CDATA[.B{opacity:.2}.C{fill:#fff}.D{fill:#6c63ff}.E{fill:#1a73e8}.F{fill:#fec12f}.G{fill:#ffc590}.H{fill:#ededf4}.I{fill:#0063cb}.J{fill:#0c1153}.K{fill:#d1effc}.L{stroke-opacity:100}.M{stroke-miterlimit:3}.N{fill-rule:evenodd}]]></style><clipPath id="A"><path d="M-1.315 14.011h800v550h-800z" class="C"/></clipPath><g clip-path="url(#A)"><g fill="#ffab01"><path d="M639.353 372.851s-1.326-4.07.183-7.819c.55-1.358 2.639-3.241 4.048-2.67s1.858 2.756 1.059 4.729c-1.509 3.751-5.29 5.76-5.29 5.76zm-2.066 6.425s1.829-3.268 5.107-4.453c1.19-.428 3.616-.139 4.071 1.136.462 1.272-.674 2.852-2.402 3.474-3.278 1.187-6.776-.157-6.776-.157zm-3.817 6.89s3.001-2.238 6.48-1.982c1.261.095 3.349 1.35 3.249 2.699s-1.781 2.327-3.61 2.192c-3.479-.256-6.119-2.909-6.119-2.909zm3.652-6.755s-3.208-1.326-5.066-4.276c-.668-1.069-1.071-3.395-.136-3.981.935-.592 2.551.29 3.533 1.843 1.858 2.952 1.669 6.414 1.669 6.414z"/><path d="M633.914 386.399s-3.302-1.262-5.154-4.212c-.68-1.07-1.035-3.422-.047-4.047.994-.623 2.651.232 3.633 1.787 1.858 2.95 1.568 6.472 1.568 6.472zm-6.101 8.668s-2.947-.695-4.367-2.949c-.515-.815-.597-2.733.391-3.356.994-.623 2.45-.093 3.201 1.094 1.414 2.256.775 5.211.775 5.211zm.367.205s2.16-1.927 4.983-2.138c1.023-.077 2.846.574 2.917 1.543s-1.166 1.848-2.657 1.96c-2.817.213-5.243-1.365-5.243-1.365z"/><path d="M611.357 434.581c.645.618 1.225.814 1.266.829l.219-.676-.112.335.112-.335c-.065-.021-1.574-.558-2.272-2.859-.787-2.58-.243-6.238 1.603-10.876 2.539-6.36 7.504-14.389 14.759-23.859 8.426-11.002 10.764-18.18 12.314-22.931.396-1.215.74-2.268 1.112-3.128l-.65-.28c-.385.89-.734 1.956-1.137 3.189-1.532 4.705-3.852 11.813-12.202 22.718-16.148 21.086-17.87 30.897-16.468 35.415.367 1.182.935 1.957 1.456 2.458z"/></g><path d="M606.35 421.075c-16.498 7.289-27.392 22.063-30.534 38.679 14.403 8.865 32.659 10.764 49.157 3.474 16.504-7.291 27.392-22.067 30.54-38.684-14.403-8.863-32.659-10.759-49.163-3.469z" class="F"/><g class="C"><path d="M649.318 427.512l-70.395 31.1-.391-.888 70.389-31.099"/><path d="M634.843 433.129l11.812 5.575-.414.877-11.812-5.574m-11.586 4.425l14.557 6.872-.414.875-14.558-6.869m-11.586 4.426l24.333 11.485-.414.876-24.333-11.486m-11.593 4.427l23.676 11.178-.414.876-23.676-11.179m-11.586 4.427l13.184 6.225-.414.876-13.185-6.226m49.11-22.641l3.828-12.484.929.284-3.834 12.485m-12.924 5.019l5.965-19.465.929.284-5.971 19.466m-12.93 5.016l7.474-24.364.929.285-7.474 24.363m-12.929 5.018l7.675-25.028.929.285-7.675 25.027m-12.93 5.024l6.592-21.503.929.284-6.598 21.503"/></g><path d="M560.519 407.268c-11.296 16.42-12.971 36.633-6.296 54.084 18.682-.018 36.955-8.817 48.246-25.239s12.971-36.631 6.296-54.082c-18.682.013-36.955 8.814-48.246 25.237z" class="F"/><g class="C"><path d="M604.658 388.415l-48.174 70.055-.882-.603 48.168-70.059"/><path d="M594.302 402.087l14.339-1.603.118 1.065-14.338 1.603m-8.332 10.879l17.676-1.974.118 1.065-17.676 1.975m-8.332 10.878l29.547-3.301.118 1.066-29.546 3.3m-8.332 10.884l28.741-3.211.119 1.065-28.742 3.212m-8.332 10.876l16.001-1.787.119 1.065-16.001 1.787m33.061-49.762l-3.639-13.963 1.035-.27 3.639 13.963m-9.249 12.216l-5.669-21.77 1.036-.27 5.669 21.77m-9.255 12.215l-7.095-27.25 1.035-.271 7.101 27.251m-9.249 12.214l-7.296-27.99 1.042-.27 7.29 27.99m-9.255 12.215l-6.261-24.043 1.042-.271 6.254 24.048"/></g><g class="I"><path d="M630.772 474.246c2.148-3.302-.521-6.107-10.717-7.598-11.124-1.627-21.758-.521-30.504 1.497 20.628-9.994 44.677-24.031 22.723-25.652-6.847-.509-17.38 2.805-29.091 7.983 13.066-10.629 20.256-19.367 12.338-20.99-7.349-1.509-22.332 7.137-38.28 18.617 9.089-9.621 14.35-18.013 10.267-21.973-3.332-3.233-10.433.477-18.611 7.349.367-6.043-2.171-9.692-7.971-8.96-5.45.689-9.864 7.684-13.018 16.076-5.225-13.015-19.037-20.974-32.967-17.022-16.368 4.64-3.219 35.838 4.101 50.673h131.73z"/><path d="M557.998 384.144l-.059.062c-1.154 1.328-20.238 23.901-28.357 74.696l-.627-.1c8.403-52.563 28.535-75.047 28.57-75.083l.473.425h0zm-22.113 11.42a10.33 10.33 0 0 1-.113.277c-1.136 2.76-10.279 25.817-10.279 52.291 0 1.852.048 3.722.143 5.598l-.64.036c-.094-1.894-.136-3.776-.136-5.634 0-28.393 10.433-52.796 10.445-52.818l.58.251v-.001zm19.06 20.594l-.047.028c-.497.302-4.912 3.071-9.19 8.894s-8.433 14.694-8.433 27.242c0 .893.018 1.805.065 2.734l-.639.029a63.65 63.65 0 0 1-.065-2.763c0-13.1 4.486-22.285 8.983-28.182 4.491-5.898 8.983-8.517 9.006-8.532l.32.55z"/><path d="M560.04 379.565c4.521 2.362 7.409 5.761 6.45 7.591s-5.397 1.401-9.912-.962c-4.521-2.361-7.408-5.76-6.45-7.592s5.397-1.4 9.912.963z"/></g><path d="M558.862 381.829c1.432.748 2.35 1.828 2.048 2.41-.308.58-1.716.444-3.148-.308-1.438-.748-2.355-1.829-2.048-2.409.302-.581 1.71-.446 3.148.307z" class="J"/><path d="M536.547 393.621c1.882.982 3.083 2.398 2.681 3.16-.396.761-2.243.583-4.124-.4s-3.084-2.399-2.687-3.16 2.249-.584 4.13.4z" class="I"/><path d="M536.05 394.563c.598.31.983.76.858 1.002s-.716.187-1.313-.125-.977-.762-.852-1.007.716-.185 1.307.13z" class="J"/><path d="M556.146 414.408c2.012 1.857 3.03 4.022 2.278 4.838s-2.994-.032-5-1.888c-2.012-1.856-3.03-4.022-2.278-4.837s2.988.03 5 1.887z" class="I"/><path d="M555.217 415.414c.639.59.965 1.279.722 1.537-.237.259-.947-.011-1.586-.6s-.964-1.277-.728-1.536c.243-.258.953.01 1.592.599z" class="J"/><path d="M572.443 452.996a1.29 1.29 0 0 0 1.077-1.467c-.106-.698-.763-1.184-1.462-1.077s-1.183.763-1.082 1.467a1.29 1.29 0 0 0 1.467 1.077zm-2.929-.887l.266-.195-.136-.054c-1.225-.479-2.012-1.384-1.763-2.024s1.444-.769 2.669-.289c.106.041.207.088.301.136l-.023-.148c-.196-1.302.195-2.432.869-2.539.681-.101 1.391.864 1.586 2.166a3.1 3.1 0 0 1 .036.331l.112-.094c1.03-.823 2.208-1.054 2.64-.515.426.532-.06 1.633-1.083 2.456l-.267.195.136.047c1.225.479 2.012 1.385 1.764 2.024s-1.444.769-2.669.29c-.106-.036-.207-.083-.302-.13l.024.148c.201 1.301-.195 2.432-.87 2.532-.68.107-1.391-.864-1.586-2.165-.018-.107-.029-.219-.035-.326l-.113.095c-1.029.822-2.207 1.053-2.639.515-.426-.539.059-1.634 1.083-2.456z" class="C"/><path d="M547.347 51.236s11.449-17.918 26.58-5.845c0 0 10.801-15.633 26.069-4.954 0 0 15.239-20.67 27.01-1.132 0 0 2.717 4.021 4.05 8.172.998 3.105 6.09 3.76 6.09 3.76l-89.799-.001z" class="K"/><path d="M320.601 57.24s14.959-23.41 34.728-7.637c0 0 14.112-20.424 34.061-6.472 0 0 19.911-27.006 35.29-1.479 0 0 3.549 5.254 5.292 10.677 1.303 4.058 7.956 4.913 7.956 4.913l-117.327-.002z" fill="#77b7f5"/><path d="M469.212 315.776l-241.185 1.054c-3.505 0-6.349-2.013-6.349-4.5l-.937-205.226 258.365-2.461-3.545 206.637c0 2.487-2.839 4.496-6.349 4.496z" class="K"/><mask id="B" x="-200%" y="-200%" width="400%" height="400%"><path d="M-2e2-2e2h4e2v4e2H-2e2z" class="C"/><path d="M466.503 311.943l-241.186 1.054c-3.505 0-6.349-2.013-6.349-4.5l-.937-205.226 258.365-2.461-3.545 206.637c0 2.487-2.839 4.496-6.348 4.496z"/></mask><g class="C"><path d="M466.503 311.943l-241.186 1.054c-3.505 0-6.349-2.013-6.349-4.5l-.937-205.226 258.365-2.461-3.545 206.637c0 2.487-2.839 4.496-6.348 4.496z" mask="url(#B)" vector-effect="non-scaling-stroke" stroke-width="2" stroke="#2d489c" class="L M"/><path d="M466.503 311.943l-241.186 1.054c-3.505 0-6.349-2.013-6.349-4.5l-.937-205.226 258.365-2.461-3.545 206.637c0 2.487-2.839 4.496-6.348 4.496z"/></g><path d="M475.238 103.271l-256.666 2.465-1.886-26.533c0-2.218 2.525-4.022 5.635-4.022l248.44-2.594c3.115 0 5.635 1.8 5.635 4.021l-1.158 26.663z" class="E"/><g class="C"><path d="M379.654 93.564H278.656l-.838-7.41h101.836v7.41zm-147.233-8.288h-3.656v-3.585l3.477.11.179 3.475z"/></g><path d="M240.121 85.276h-3.477l-.207-3.679 3.521.204.163 3.475z" fill="#ffc008"/><path d="M247.096 85.276h-3.294l-.18-3.475h3.474v3.475z" fill="#ff7201"/><path d="M562.227 424.599l-299.873 1.31c-4.357 0-7.893-2.502-7.893-5.594l-1.166-255.163 321.233-3.061-4.407 256.918c0 3.092-3.531 5.59-7.894 5.59z" class="K"/><mask id="C" x="-200%" y="-200%" width="400%" height="400%"><path d="M-2e2-2e2h4e2v4e2H-2e2z" class="C"/><path d="M558.858 419.834l-299.873 1.31c-4.358 0-7.893-2.502-7.893-5.594l-1.166-255.164 321.233-3.06-4.408 256.918c0 3.092-3.53 5.59-7.893 5.59z"/></mask><g class="C"><path d="M558.858 419.834l-299.873 1.31c-4.358 0-7.893-2.502-7.893-5.594l-1.166-255.164 321.233-3.06-4.408 256.918c0 3.092-3.53 5.59-7.893 5.59z" mask="url(#C)" vector-effect="non-scaling-stroke" stroke-width="2" stroke="#2d489c" class="L M"/><path d="M558.858 419.834l-299.873 1.31c-4.358 0-7.893-2.502-7.893-5.594l-1.166-255.164 321.233-3.06-4.408 256.918c0 3.092-3.53 5.59-7.893 5.59z"/></g><path d="M569.719 160.386l-319.121 3.065-2.344-32.99c0-2.757 3.139-5 7.006-5l308.893-3.226c3.872 0 7.006 2.239 7.006 5l-1.44 33.151z" fill="#2d489c"/><g class="C"><path d="M450.877 148.317H325.303l-1.043-9.213h126.617v9.213zm-183.06-10.305h-4.544v-4.457l4.322.137.222 4.32z"/></g><path d="M277.391 138.012h-4.323l-.257-4.574 4.378.254.202 4.32z" fill="#ffc008"/><path d="M286.064 138.012h-4.096l-.224-4.32h4.32v4.32z" fill="#ff7201"/><g fill="#fee3a1"><path d="M436.016 322.202c.155.374.363.783.565 1.19l-.565-1.19zm1.091 2.233c.149.266.526 1.17.698 1.45l.123-.149-.812-1.309-.009.008zm-.073-.134l-.03-.053.027.059.003-.006zm-1.342-2.97l-.196-.596-.02.017.216.579z"/></g><path d="M438.971 331.432l-.172-1.497h.003l.169 1.497h0z" fill="#7b9cba"/><path d="M427.332 494.918c-123.632 0-228.741-5.644-267.212-13.512 12.528-1.21 20.501-3.036 20.501-5.076 0-2.505-12.051-4.685-29.808-5.803 8.962-2.963 27.052-5.675 52.075-7.996 6.448 4.593 14.202 7.275 22.548 7.275h400.3c8.519 0 16.417-2.792 22.94-7.556 38.505 3.439 61.52 7.794 61.52 12.534 0 11.124-126.64 20.134-282.864 20.134z" fill="#7fcaec" fill-opacity=".5"/><path d="M637.146 197.129l-.77 1.515-3.239-.024-.081-1.809 4.09.318z" fill="#ffd1a6"/><path d="M615.904 485.883c-28.123 0-50.92-2.258-50.92-5.037s22.797-5.033 50.92-5.033 50.92 2.253 50.92 5.033-22.797 5.037-50.92 5.037z" fill="#71bde1"/><path d="M600.713 461.609l-7.137.721-2.849 8.492-8.067 5.186 1.079 2.333 14.822-.256.381-4.809-.272-2.756 2.043-8.911z" class="G"/><path d="M599.236 473.243l-.18-1.513c-.009-.819-1.85.782-2.385.926-2.332.634-6.856 2.682-10.254 2.78-.491.014.377-1.471.899-2.193l-.465-.177-3.529 1.667-11.341 3.212-.013 2.067h27.465l.022-3.054-.219-3.715z" fill="#191a2d"/><path d="M571.968 480.012l.004-1.019 27.483-1.853v1.01l-.022 1.862h-27.465z" fill="#58595b"/><linearGradient id="D" x1="589.324" y1="380.933" x2="643.171" y2="380.933" gradientUnits="userSpaceOnUse"><stop offset="0" stop-color="#223675"/><stop offset=".27027%" stop-color="#223675"/><stop offset="100%" stop-color="#2d489c"/></linearGradient><path d="M615.036 296.048l-4.31 18.11-5.953 80.518-15.449 71.141 11.389-1.01 19.342-71.928 23.117-91.487-28.136-5.344z" fill="url(#D)"/><path d="M647.543 461.944l-6.033.675-1.595 8.99-9.172 5.233 1.083 2.332 14.822-.251.377-4.814-.271-2.751.789-9.414z" class="G"/><path d="M647.324 474.081l-.18-1.518c-.013-.814-1.855.783-2.389.931-2.328.624-6.853 2.682-10.255 2.775-.486.014.373-1.466.899-2.188l-.465-.177-3.529 1.662-11.341 3.213-.009 2.067h27.466l.022-3.054-.219-3.711z" fill="#191a2d"/><path d="M620.055 480.846v-1.015l27.488-1.858v1.01l-.022 1.863h-27.466z" fill="#58595b"/><linearGradient id="E" x1="-1.147" y1=".73" x2="1.275" y2="-1.428" gradientTransform="matrix(29.018,0,0,176.594,634.724,289.982)" gradientUnits="userSpaceOnUse"><stop offset="0" stop-color="#223675"/><stop offset=".27027%" stop-color="#223675"/><stop offset="100%" stop-color="#2d489c"/></linearGradient><path d="M634.724 301.318l5.405 95.909-1.025 69.349 9.294-1.578 6.501-67.603 8.843-70.593-5.463-36.82-23.555 11.336z" fill="url(#E)"/><path d="M635.627 186.838h0c-1.131.181-2.144 1.234-3.209.973-2.902-.708-8.496 8.017-7.948 14.204l1.214 13.738 28.671-4.511-4.072-14.534c-1.881-6.714-8.133-10.922-14.656-9.87z" fill="#1a2958"/><g class="G"><path d="M585.106 241.936l-2.192-4.208-7.207-6.453-.39 1.974 1.973 2.705-8.838-3.212-.303 1.601 7.229 3.008-.079.279-3.112-1.131.083 1.922 2.464 1.09-.079.26-2.359-.861.088 1.979 1.71.768-.075.251-1.617-.596.065 1.374 4.621 1.662 3.604 2.439 5.537 7.114 4.901-4.004-6.024-7.961zm63.235-26.662l-3.003-21.737-17.747 2.766 2.994 21.685c.119.847.693 1.555 1.478 1.797l5.037 1.56-1.968 11.392 10.749 1.732-.517-15.512 2.1-1.551c.653-.479.991-1.303.877-2.132z"/></g><linearGradient id="F" x1=".003" y1=".952" x2=".862" y2="-.136" gradientTransform="matrix(57.404,0,0,86.179,608.42,224.175)" gradientUnits="userSpaceOnUse"><stop offset="0" stop-color="#208aee"/><stop offset="81.2613%" stop-color="#4da1f1"/></linearGradient><path d="M663.097 310.354l-54.677-4.283 5.967-24.013-.759-18.846 10.18-26.867c2.556-4.358.706-9.237-2.297-11.076l-1.259-.507a3.78 3.78 0 0 0-2.012-.582h-.035c.057-.005.119-.005.176-.005.179 0 .355.01.53.033l46.913 5.028c-3.836.843-5.633 6.993-4.366 10.936l3.888 17.072-3.888-17.072 2.959 19.995v-.009l-4.016 12.631-4.309-.699-.101 7.496 2.008.759-.513 1.62 5.611 28.389zm-50.122-82.775c1.087-1.858 2.705-2.924 4.27-3.273-1.587.391-3.104 1.676-4.27 3.273z" fill="url(#F)" class="N"/><path d="M645.495 227.062l-8.242 27.207-.925-28.199 9.167.992z" class="C"/><g fill="#94c7f7"><path d="M645.495 227.062l3.547 7.118-4.283-.493 1.872 9.502-9.378 11.08 8.242-27.207z"/><path d="M636.324 226.005l-4.283 6.564 4.279.489-4.358 8.445 5.291 12.766-.929-28.264z"/></g><path d="M642.023 277.831l6.611.195c.728.023 1.337-.596 1.355-1.378l.517-15.94c.022-.783-.552-1.434-1.28-1.458l-6.611-.195c-.728-.023-1.337.596-1.359 1.373l-.513 15.95c-.022.782.553 1.429 1.28 1.453z" fill="#091018"/><path d="M643.027 261.262l2.122.051.517-.531-.495-.554-2.122-.061-.522.536.5.559z" fill="#939598"/><path d="M654.982 272.142l-1.337-.922-1.674-1.402-1.719-1.187-.057 1.155.82.642.004.261-5.98-2.16-2.547-1.555.044 1.452 2.363 1.728 3.196 1.946-.022.223-4.037-1.192-3.293-1.787.136 1.191 2.775 1.644 4.279 1.653-.022.209-4.138-1.271-2.675-1.746.035 1.225 2.613 1.834 4.02 1.466-.017.201-2.346-.666-2.082-.95.381 1.104 1.964 1.094 4.924.982.802.158 2.038.121 8.313 1.988 3.248-5.307-10.009-2.132z" class="G"/><linearGradient id="G" x1=".27" y1=".92" x2=".626" y2="-.118" gradientTransform="matrix(23.969,0,0,57.599,655.991,229.096)" gradientUnits="userSpaceOnUse"><stop offset="0" stop-color="#208aee"/><stop offset="100%" stop-color="#4da1f1"/></linearGradient><path d="M675.359 286.695c-.517 0-1.065-.13-1.626-.428l-15.734-5.922-2.008-.759.101-7.496 4.309.699 8.812 1.434-3.867-16.979-3.888-17.072c-1.267-3.943.53-10.093 4.366-10.936.013 0 .022-.005.035-.005a5.98 5.98 0 0 1 1.276-.135c2.924 0 5.563 2.105 6.304 5.228l6.352 45.257c.798 2.365-1.319 7.114-4.432 7.114z" fill="url(#G)"/><linearGradient id="H" x1="603.957" y1="279.069" x2="603.957" y2="224.18" gradientUnits="userSpaceOnUse"><stop offset="0" stop-color="#208aee"/><stop offset="100%" stop-color="#4da1f1"/></linearGradient><path d="M603.313 279.069c-2.061 0-4.165-1.294-5.831-4.004l-14.581-25.48 4.875-5.926 15.335 19.418 8.303-32.645c.377-.982.917-1.969 1.561-2.853 1.166-1.597 2.683-2.882 4.27-3.273.32-.079.64-.121.96-.126h.035a3.78 3.78 0 0 1 2.012.582l1.259.507c3.003 1.839 4.853 6.718 2.297 11.076l-10.18 26.867-3.055 8.059c-1.368 5.079-4.27 7.798-7.26 7.798zm9.325-40.364l-.548 28.562 1.538-4.059-.99-24.503z" fill="url(#H)" class="N"/><g fill="#ffd1a6"><path d="M576.444 241.731l-4.06-.842-.074-2.002 4.945 1.69-.811 1.154zm1.122-1.154l-5.296-2.156-.083-1.922 5.984 2.891-.605 1.187z"/></g><linearGradient id="I" x1="603.957" y1="279.069" x2="603.957" y2="224.18" gradientUnits="userSpaceOnUse"><stop offset="0" stop-color="#1f77d0"/><stop offset="100%" stop-color="#4389d2"/></linearGradient><path d="M612.09 267.267l.548-28.562.99 24.503-1.538 4.059z" fill="url(#I)"/><g fill="#1a2958"><path d="M636.789 193.956s4.577 10.294 11.46 9.623l-1.859-12.416-9.601 2.793zm-4.713 1.197s-.329 7.579-4.73 9.05l-1.863-8.152 6.593-.898z"/></g><path d="M664.417 260.158l.929-2.914.048.214-.977 2.7z" fill="#76b5d8"/><linearGradient id="J" x1="-13.602" y1="3.302" x2="-3.607" y2="-9.348" gradientTransform="matrix(3.888,0,0,19.995,661.458,240.172)" gradientUnits="userSpaceOnUse"><stop offset="0" stop-color="#1f77d0"/><stop offset="81.2613%" stop-color="#4389d2"/></linearGradient><path d="M664.417 260.167l-2.959-19.995 3.888 17.072-.929 2.914v.009z" fill="url(#J)"/><g fill="#e9d6b8"><path d="M562.773 483.984s-.373.497-.779.23c-.665-.447-1.537-1.802-1.819-2.298-.324-.554-1.396-3.413-1.396-3.413a3.57 3.57 0 0 0 1.424 1.705c.638 1.677 2.57 3.776 2.57 3.776z"/><path d="M562.53 483.643c-.931-.682-1.299-1.963-1.374-3.576-.071-1.531-.894-2.083-.894-2.083s-.059.989.298 3.355c.103.664.255 1.381.585 1.956.995 1.742 3.782 2.093 1.385.348z"/><path d="M562.99 484.783s-1.305-1.29-1.461-2.197c-.109-.63-.135-3.685-.135-3.685a3.6 3.6 0 0 0 .752 2.089c.021 1.794.844 3.793.844 3.793z"/></g><path d="M601.117 76.145c1.672 0 3.022 1.387 3.022 3.108 0 1.714-1.35 3.107-3.022 3.099-1.671.008-3.028-1.385-3.028-3.099 0-1.721 1.357-3.108 3.028-3.108zm-.493 18.335l14.729-15.113-14.729-15.35h-33.919v15.236 15.235l33.919-.008z" fill="#fdbf14"/><path d="M583.768 71.282l2.435 5.064 5.443.806-3.935 3.943.929 5.565-4.872-2.629-4.871 2.629.929-5.565-3.936-3.943 5.442-.806 2.436-5.064z" class="C"/><g fill="#3f3d56"><path d="M263.179 260.028h1.528a.89.89 0 0 1 .89.889v25.49a.89.89 0 0 1-.89.89h-1.528a.89.89 0 0 1-.89-.89v-25.49a.89.89 0 0 1 .89-.889zm-110.261-21.364h.69c.322 0 .583.262.583.584v7.81c0 .322-.261.584-.583.584h-.69c-.322 0-.583-.262-.583-.584v-7.81c0-.322.261-.584.583-.584zm.007 16.436h.777a.66.66 0 0 1 .658.658v14.31a.66.66 0 0 1-.658.658h-.777a.66.66 0 0 1-.658-.658v-14.31a.66.66 0 0 1 .658-.658zm.002 21.093h.739c.346 0 .626.281.626.626v14.509c0 .346-.28.626-.626.626h-.739c-.345 0-.626-.28-.626-.626v-14.509c0-.345.281-.626.626-.626z"/></g><path d="M167.24 208.997h82.98c7.647 0 13.855 6.208 13.855 13.854v197.25c0 7.646-6.208 13.854-13.855 13.854h-82.98c-7.646 0-13.854-6.208-13.854-13.854v-197.25c0-7.646 6.208-13.854 13.854-13.854z" class="E"/><g fill="#e6e8ec"><path d="M199.04 215.715h13.483c.545 0 .987.442.987.987v1.165c0 .545-.442.987-.987.987H199.04c-.545 0-.987-.442-.987-.987v-1.165c0-.545.442-.987.987-.987z"/><circle vector-effect="non-scaling-stroke" cx="217.628" cy="217.285" r="1.78"/></g><path d="M261.685 221.731v201.492c-.001 4.999-4.257 9.051-9.507 9.05h-85.896c-5.249.001-9.505-4.051-9.507-9.05V221.731c0-2.401 1.002-4.704 2.785-6.402s4.201-2.652 6.722-2.651h12.854v1.572c.001 4.117 3.505 7.454 7.828 7.455h43.683c4.323 0 7.828-3.338 7.828-7.455v-1.572h13.703c2.522-.001 4.94.953 6.723 2.651s2.784 4.001 2.784 6.402h0z" class="C"/><path d="M279.119 197.852h149.517v84.632H279.119z" fill="#7ecbed" fill-opacity=".498"/><path d="M428.636 282.484l-31.691-51.046-10.746 24.192-37.996-45.978-25.166 28.481-12.236-12.148-31.682 32.298v24.201h149.517 0z" class="E"/><ellipse vector-effect="non-scaling-stroke" cx="410.379" cy="217.383" rx="10.856" ry="8.951" class="F"/><path d="M166.051 238.604h85.544v57.669h-85.544z" fill="#bfe5f6"/><path d="M251.595 296.273l-18.131-34.783-6.149 16.484-21.739-31.33-14.398 19.408-7-8.278-18.127 22.008v16.491h85.544 0z" class="E"/><ellipse vector-effect="non-scaling-stroke" cx="241.149" cy="251.912" rx="6.211" ry="6.1" class="F"/><clipPath id="K"><path d="M39.554 45.101h945.004v531.565H39.554z" class="C"/></clipPath><g clip-path="url(#K)"><path d="M274.833 184.109h84.369v5.029h-84.369z" class="E"/><path d="M274.833 331.056h84.369v5.029h-84.369z" class="D"/><g class="B D"><g class="B"><path d="M274.833 342.23h156.444v5.029H274.833z"/></g></g><g class="B D"><g class="B"><path d="M274.833 349.498h156.444v5.029H274.833z"/></g></g><g class="B D"><g class="B"><path d="M274.833 356.761h156.444v5.029H274.833z"/></g></g><g class="B D"><g class="B"><path d="M276.51 289.71h36.317v33.524H276.51z"/></g></g><g class="B D"><g class="B"><path d="M393.842 289.71h36.317v33.524h-36.317z"/></g></g><g class="B D"><g class="B"><path d="M334.338 289.71h36.317v33.524h-36.317z"/></g></g><g class="B D"><g class="B"><path d="M446.439 208.558h106.902v78.685H446.439z"/></g></g><g class="H"><path d="M457.703 224.527h84.369v5.029h-84.369zm0 10.432h84.369v5.029h-84.369z"/></g><g class="B D"><g class="B"><path d="M165.235 308.344h86.45v63.632h-86.45z"/></g></g><g class="H"><path d="M457.703 245.389h84.369v5.029h-84.369zm-283.359 75.869h68.228v4.067h-68.228zm283.359-65.442h84.369v5.029h-84.369zm-283.359 73.879h68.228v4.067h-68.228zm283.359-63.448h84.369v5.029h-84.369zM174.344 338.13h68.228v4.067h-68.228z"/></g><g class="E"><path d="M445.551 301.695h107.812v23.848H445.551zm-278.984 80.714h86.451v23.848h-86.451z"/></g><path d="M174.344 346.562h68.228v4.067h-68.228z" class="H"/><path d="M455.155 343.341h54.203v9.492h-54.203z" class="F"/><path d="M174.344 354.997h68.228v4.067h-68.228z" class="H"/></g></g></svg>